<svg xmlns="http://www.w3.org/2000/svg" width="1600" height="900" viewBox="0 0 1600 900" role="img" aria-label="Commit Top 10, last 42 days">
<defs><linearGradient id="cardbg" x1="0" y1="0" x2="0" y2="1"><stop offset="0" stop-color="#161b22"/><stop offset="1" stop-color="#0d1117"/></linearGradient><linearGradient id="ls-0" x1="0" y1="0" x2="1" y2="0"><stop offset="0" stop-color="#fb7185" stop-opacity="0.25"/><stop offset="0.55" stop-color="#fb7185" stop-opacity="0.7"/><stop offset="1" stop-color="#fb7185"/></linearGradient><linearGradient id="as-0" x1="0" y1="0" x2="0" y2="1"><stop offset="0" stop-color="#fb7185" stop-opacity="0.14"/><stop offset="1" stop-color="#fb7185" stop-opacity="0"/></linearGradient><linearGradient id="ls-1" x1="0" y1="0" x2="1" y2="0"><stop offset="0" stop-color="#60a5fa" stop-opacity="0.25"/><stop offset="0.55" stop-color="#60a5fa" stop-opacity="0.7"/><stop offset="1" stop-color="#60a5fa"/></linearGradient><linearGradient id="as-1" x1="0" y1="0" x2="0" y2="1"><stop offset="0" stop-color="#60a5fa" stop-opacity="0.14"/><stop offset="1" stop-color="#60a5fa" stop-opacity="0"/></linearGradient><linearGradient id="ls-2" x1="0" y1="0" x2="1" y2="0"><stop offset="0" stop-color="#34d399" stop-opacity="0.25"/><stop offset="0.55" stop-color="#34d399" stop-opacity="0.7"/><stop offset="1" stop-color="#34d399"/></linearGradient><linearGradient id="as-2" x1="0" y1="0" x2="0" y2="1"><stop offset="0" stop-color="#34d399" stop-opacity="0.14"/><stop offset="1" stop-color="#34d399" stop-opacity="0"/></linearGradient><linearGradient id="ls-3" x1="0" y1="0" x2="1" y2="0"><stop offset="0" stop-color="#fbbf24" stop-opacity="0.25"/><stop offset="0.55" stop-color="#fbbf24" stop-opacity="0.7"/><stop offset="1" stop-color="#fbbf24"/></linearGradient><linearGradient id="as-3" x1="0" y1="0" x2="0" y2="1"><stop offset="0" stop-color="#fbbf24" stop-opacity="0.14"/><stop offset="1" stop-color="#fbbf24" stop-opacity="0"/></linearGradient><linearGradient id="ls-4" x1="0" y1="0" x2="1" y2="0"><stop offset="0" stop-color="#a78bfa" stop-opacity="0.25"/><stop offset="0.55" stop-color="#a78bfa" stop-opacity="0.7"/><stop offset="1" stop-color="#a78bfa"/></linearGradient><linearGradient id="as-4" x1="0" y1="0" x2="0" y2="1"><stop offset="0" stop-color="#a78bfa" stop-opacity="0.14"/><stop offset="1" stop-color="#a78bfa" stop-opacity="0"/></linearGradient><linearGradient id="ls-5" x1="0" y1="0" x2="1" y2="0"><stop offset="0" stop-color="#22d3ee" stop-opacity="0.25"/><stop offset="0.55" stop-color="#22d3ee" stop-opacity="0.7"/><stop offset="1" stop-color="#22d3ee"/></linearGradient><linearGradient id="as-5" x1="0" y1="0" x2="0" y2="1"><stop offset="0" stop-color="#22d3ee" stop-opacity="0.14"/><stop offset="1" stop-color="#22d3ee" stop-opacity="0"/></linearGradient><linearGradient id="ls-6" x1="0" y1="0" x2="1" y2="0"><stop offset="0" stop-color="#f472b6" stop-opacity="0.25"/><stop offset="0.55" stop-color="#f472b6" stop-opacity="0.7"/><stop offset="1" stop-color="#f472b6"/></linearGradient><linearGradient id="as-6" x1="0" y1="0" x2="0" y2="1"><stop offset="0" stop-color="#f472b6" stop-opacity="0.14"/><stop offset="1" stop-color="#f472b6" stop-opacity="0"/></linearGradient><linearGradient id="ls-7" x1="0" y1="0" x2="1" y2="0"><stop offset="0" stop-color="#fb923c" stop-opacity="0.25"/><stop offset="0.55" stop-color="#fb923c" stop-opacity="0.7"/><stop offset="1" stop-color="#fb923c"/></linearGradient><linearGradient id="as-7" x1="0" y1="0" x2="0" y2="1"><stop offset="0" stop-color="#fb923c" stop-opacity="0.14"/><stop offset="1" stop-color="#fb923c" stop-opacity="0"/></linearGradient><linearGradient id="ls-8" x1="0" y1="0" x2="1" y2="0"><stop offset="0" stop-color="#818cf8" stop-opacity="0.25"/><stop offset="0.55" stop-color="#818cf8" stop-opacity="0.7"/><stop offset="1" stop-color="#818cf8"/></linearGradient><linearGradient id="as-8" x1="0" y1="0" x2="0" y2="1"><stop offset="0" stop-color="#818cf8" stop-opacity="0.14"/><stop offset="1" stop-color="#818cf8" stop-opacity="0"/></linearGradient><linearGradient id="ls-9" x1="0" y1="0" x2="1" y2="0"><stop offset="0" stop-color="#94a3b8" stop-opacity="0.25"/><stop offset="0.55" stop-color="#94a3b8" stop-opacity="0.7"/><stop offset="1" stop-color="#94a3b8"/></linearGradient><linearGradient id="as-9" x1="0" y1="0" x2="0" y2="1"><stop offset="0" stop-color="#94a3b8" stop-opacity="0.14"/><stop offset="1" stop-color="#94a3b8" stop-opacity="0"/></linearGradient></defs>
<rect width="1600" height="900" rx="16" fill="url(#cardbg)"/>
<rect x="0.75" y="0.75" width="1598.5" height="898.5" rx="16" fill="none" stroke="#30363d" stroke-width="1.5"/>
<g stroke="#a78bfa" stroke-width="4" fill="none"><line x1="68" y1="76" x2="100" y2="76"/><circle cx="68" cy="76" r="7.5"/><circle cx="100" cy="76" r="7.5"/></g>
<text x="118" y="90" font-family="-apple-system,BlinkMacSystemFont,&quot;Segoe UI&quot;,&quot;Noto Sans CJK SC&quot;,&quot;PingFang SC&quot;,&quot;Microsoft YaHei&quot;,Helvetica,Arial,sans-serif" font-size="38" font-weight="700" fill="#e6edf3">Commit Top 10</text>
<text x="118" y="128" font-family="-apple-system,BlinkMacSystemFont,&quot;Segoe UI&quot;,&quot;Noto Sans CJK SC&quot;,&quot;PingFang SC&quot;,&quot;Microsoft YaHei&quot;,Helvetica,Arial,sans-serif" font-size="21" fill="#8b949e">2026.7.30 – 2026.9.10 · @techysy · 最近 42 天</text>
<text x="1536" y="90" font-family="-apple-system,BlinkMacSystemFont,&quot;Segoe UI&quot;,&quot;Noto Sans CJK SC&quot;,&quot;PingFang SC&quot;,&quot;Microsoft YaHei&quot;,Helvetica,Arial,sans-serif" font-size="18" fill="#8b949e" text-anchor="end">生成于 2026-09-10</text>
<line x1="64" y1="152" x2="1536" y2="152" stroke="#21262d" stroke-width="1.5"/>
<line x1="100" y1="776" x2="1016" y2="776" stroke="#3d444d" stroke-width="1.6"/>
<text x="84" y="782" font-family="-apple-system,BlinkMacSystemFont,&quot;Segoe UI&quot;,&quot;Noto Sans CJK SC&quot;,&quot;PingFang SC&quot;,&quot;Microsoft YaHei&quot;,Helvetica,Arial,sans-serif" font-size="19" fill="#8b949e" text-anchor="end">0</text>
<line x1="100" y1="631" x2="1016" y2="631" stroke="#1c2129" stroke-width="1"/>
<text x="84" y="637" font-family="-apple-system,BlinkMacSystemFont,&quot;Segoe UI&quot;,&quot;Noto Sans CJK SC&quot;,&quot;PingFang SC&quot;,&quot;Microsoft YaHei&quot;,Helvetica,Arial,sans-serif" font-size="19" fill="#8b949e" text-anchor="end">100</text>
<line x1="100" y1="486" x2="1016" y2="486" stroke="#1c2129" stroke-width="1"/>
<text x="84" y="492" font-family="-apple-system,BlinkMacSystemFont,&quot;Segoe UI&quot;,&quot;Noto Sans CJK SC&quot;,&quot;PingFang SC&quot;,&quot;Microsoft YaHei&quot;,Helvetica,Arial,sans-serif" font-size="19" fill="#8b949e" text-anchor="end">200</text>
<line x1="100" y1="341" x2="1016" y2="341" stroke="#1c2129" stroke-width="1"/>
<text x="84" y="347" font-family="-apple-system,BlinkMacSystemFont,&quot;Segoe UI&quot;,&quot;Noto Sans CJK SC&quot;,&quot;PingFang SC&quot;,&quot;Microsoft YaHei&quot;,Helvetica,Arial,sans-serif" font-size="19" fill="#8b949e" text-anchor="end">300</text>
<line x1="100" y1="196" x2="1016" y2="196" stroke="#1c2129" stroke-width="1"/>
<text x="84" y="202" font-family="-apple-system,BlinkMacSystemFont,&quot;Segoe UI&quot;,&quot;Noto Sans CJK SC&quot;,&quot;PingFang SC&quot;,&quot;Microsoft YaHei&quot;,Helvetica,Arial,sans-serif" font-size="19" fill="#8b949e" text-anchor="end">400</text>
<text x="100" y="180" font-family="-apple-system,BlinkMacSystemFont,&quot;Segoe UI&quot;,&quot;Noto Sans CJK SC&quot;,&quot;PingFang SC&quot;,&quot;Microsoft YaHei&quot;,Helvetica,Arial,sans-serif" font-size="18" fill="#8b949e">Commits</text>
<text x="100" y="808" font-family="-apple-system,BlinkMacSystemFont,&quot;Segoe UI&quot;,&quot;Noto Sans CJK SC&quot;,&quot;PingFang SC&quot;,&quot;Microsoft YaHei&quot;,Helvetica,Arial,sans-serif" font-size="19" fill="#8b949e" text-anchor="middle">7.30</text>
<text x="252.66666666666666" y="808" font-family="-apple-system,BlinkMacSystemFont,&quot;Segoe UI&quot;,&quot;Noto Sans CJK SC&quot;,&quot;PingFang SC&quot;,&quot;Microsoft YaHei&quot;,Helvetica,Arial,sans-serif" font-size="19" fill="#8b949e" text-anchor="middle">8.6</text>
<text x="405.3333333333333" y="808" font-family="-apple-system,BlinkMacSystemFont,&quot;Segoe UI&quot;,&quot;Noto Sans CJK SC&quot;,&quot;PingFang SC&quot;,&quot;Microsoft YaHei&quot;,Helvetica,Arial,sans-serif" font-size="19" fill="#8b949e" text-anchor="middle">8.13</text>
<text x="558" y="808" font-family="-apple-system,BlinkMacSystemFont,&quot;Segoe UI&quot;,&quot;Noto Sans CJK SC&quot;,&quot;PingFang SC&quot;,&quot;Microsoft YaHei&quot;,Helvetica,Arial,sans-serif" font-size="19" fill="#8b949e" text-anchor="middle">8.20</text>
<text x="710.6666666666666" y="808" font-family="-apple-system,BlinkMacSystemFont,&quot;Segoe UI&quot;,&quot;Noto Sans CJK SC&quot;,&quot;PingFang SC&quot;,&quot;Microsoft YaHei&quot;,Helvetica,Arial,sans-serif" font-size="19" fill="#8b949e" text-anchor="middle">8.27</text>
<text x="863.3333333333334" y="808" font-family="-apple-system,BlinkMacSystemFont,&quot;Segoe UI&quot;,&quot;Noto Sans CJK SC&quot;,&quot;PingFang SC&quot;,&quot;Microsoft YaHei&quot;,Helvetica,Arial,sans-serif" font-size="19" fill="#8b949e" text-anchor="middle">9.3</text>
<text x="1016" y="808" font-family="-apple-system,BlinkMacSystemFont,&quot;Segoe UI&quot;,&quot;Noto Sans CJK SC&quot;,&quot;PingFang SC&quot;,&quot;Microsoft YaHei&quot;,Helvetica,Arial,sans-serif" font-size="19" fill="#8b949e" text-anchor="middle">9.10</text>
<path d="M100.0,776.0C107.3,776.0 114.5,776.0 121.8,776.0C129.1,776.0 136.3,776.0 143.6,776.0C150.9,776.0 158.2,776.0 165.4,776.0C172.7,776.0 180.0,776.0 187.2,776.0C194.5,776.0 201.8,776.0 209.0,776.0C216.3,776.0 223.6,776.0 230.9,776.0C238.1,776.0 245.4,776.0 252.7,776.0C259.9,776.0 267.2,776.0 274.5,776.0C281.7,776.0 289.0,776.0 296.3,768.8C303.6,761.5 310.8,709.3 318.1,707.9C325.4,706.4 332.6,706.4 339.9,706.4C347.2,706.4 354.4,706.4 361.7,706.4C369.0,706.4 376.3,706.4 383.5,706.4C390.8,706.4 398.1,706.4 405.3,706.4C412.6,706.4 419.9,706.4 427.1,706.4C434.4,706.4 441.7,706.4 449.0,706.4C456.2,706.4 463.5,703.5 470.8,703.5C478.0,703.5 485.3,703.5 492.6,703.5C499.8,703.5 507.1,703.5 514.4,703.5C521.7,703.5 528.9,703.5 536.2,703.5C543.5,703.5 550.7,703.5 558.0,703.5C565.3,703.5 572.5,703.5 579.8,703.5C587.1,703.5 594.3,703.5 601.6,703.5C608.9,703.5 616.2,703.5 623.4,703.5C630.7,703.5 638.0,703.5 645.2,703.5C652.5,703.5 659.8,703.5 667.0,703.5C674.3,703.5 681.6,703.5 688.9,703.5C696.1,703.5 703.4,703.5 710.7,703.5C717.9,703.5 725.2,703.5 732.5,703.5C739.7,703.5 747.0,703.5 754.3,703.5C761.6,703.5 768.8,703.5 776.1,703.5C783.4,703.5 790.6,703.5 797.9,703.5C805.2,703.5 812.4,703.5 819.7,703.5C827.0,703.5 834.3,703.5 841.5,703.5C848.8,703.5 856.1,703.5 863.3,703.5C870.6,703.5 877.9,703.5 885.1,703.5C892.4,703.5 899.7,703.5 907.0,703.5C914.2,703.5 921.5,703.5 928.8,703.5C936.0,703.5 943.3,703.5 950.6,703.5C957.8,703.5 965.1,703.5 972.4,703.5C979.7,703.5 986.9,703.5 994.2,703.5C1001.5,703.5 1008.7,703.5 1016.0,703.5L1016.0,776 L100.0,776 Z" fill="url(#as-9)" stroke="none"/>
<path d="M100.0,771.6C107.3,768.8 114.5,766.1 121.8,763.0C129.1,759.8 136.3,752.8 143.6,752.8C150.9,752.8 158.2,752.8 165.4,752.8C172.7,752.8 180.0,752.8 187.2,752.8C194.5,752.8 201.8,722.4 209.0,722.4C216.3,722.4 223.6,722.4 230.9,722.4C238.1,722.4 245.4,722.4 252.7,722.4C259.9,722.4 267.2,722.4 274.5,722.4C281.7,722.4 289.0,722.4 296.3,722.4C303.6,722.4 310.8,722.4 318.1,722.4C325.4,722.4 332.6,722.4 339.9,722.4C347.2,722.4 354.4,722.4 361.7,722.4C369.0,722.4 376.3,722.4 383.5,722.4C390.8,722.4 398.1,722.4 405.3,722.4C412.6,722.4 419.9,722.4 427.1,722.4C434.4,722.4 441.7,722.4 449.0,722.4C456.2,722.4 463.5,710.8 470.8,710.8C478.0,710.8 485.3,710.8 492.6,710.8C499.8,710.8 507.1,710.8 514.4,710.8C521.7,710.8 528.9,710.8 536.2,710.8C543.5,710.8 550.7,710.8 558.0,710.8C565.3,710.8 572.5,705.0 579.8,705.0C587.1,705.0 594.3,705.0 601.6,705.0C608.9,705.0 616.2,705.0 623.4,705.0C630.7,705.0 638.0,705.0 645.2,705.0C652.5,705.0 659.8,702.0 667.0,702.0C674.3,702.0 681.6,702.0 688.9,702.0C696.1,702.0 703.4,702.0 710.7,702.0C717.9,702.0 725.2,702.0 732.5,702.0C739.7,702.0 747.0,702.0 754.3,702.0C761.6,702.0 768.8,702.0 776.1,702.0C783.4,702.0 790.6,702.0 797.9,702.0C805.2,702.0 812.4,702.0 819.7,702.0C827.0,702.0 834.3,702.0 841.5,702.0C848.8,702.0 856.1,702.0 863.3,702.0C870.6,702.0 877.9,702.0 885.1,702.0C892.4,702.0 899.7,702.0 907.0,702.0C914.2,702.0 921.5,702.0 928.8,702.0C936.0,702.0 943.3,702.0 950.6,702.0C957.8,702.0 965.1,702.0 972.4,702.0C979.7,702.0 986.9,702.0 994.2,702.0C1001.5,702.0 1008.7,702.0 1016.0,702.0L1016.0,776 L100.0,776 Z" fill="url(#as-8)" stroke="none"/>
<path d="M100.0,763.0C107.3,755.7 114.5,746.5 121.8,741.2C129.1,735.9 136.3,733.9 143.6,731.0C150.9,728.1 158.2,728.9 165.4,723.8C172.7,718.7 180.0,703.5 187.2,700.6C194.5,697.7 201.8,697.7 209.0,697.7C216.3,697.7 223.6,697.7 230.9,697.7C238.1,697.7 245.4,697.7 252.7,697.7C259.9,697.7 267.2,697.7 274.5,697.7C281.7,697.7 289.0,697.7 296.3,697.7C303.6,697.7 310.8,697.7 318.1,697.7C325.4,697.7 332.6,694.8 339.9,694.8C347.2,694.8 354.4,694.8 361.7,694.8C369.0,694.8 376.3,694.8 383.5,694.8C390.8,694.8 398.1,694.8 405.3,694.8C412.6,694.8 419.9,694.8 427.1,694.8C434.4,694.8 441.7,694.8 449.0,694.8C456.2,694.8 463.5,694.8 470.8,694.8C478.0,694.8 485.3,694.8 492.6,694.8C499.8,694.8 507.1,694.8 514.4,694.8C521.7,694.8 528.9,694.8 536.2,694.8C543.5,694.8 550.7,694.8 558.0,694.8C565.3,694.8 572.5,694.8 579.8,694.8C587.1,694.8 594.3,694.8 601.6,694.8C608.9,694.8 616.2,694.8 623.4,694.8C630.7,694.8 638.0,694.8 645.2,694.8C652.5,694.8 659.8,694.8 667.0,694.8C674.3,694.8 681.6,694.8 688.9,694.8C696.1,694.8 703.4,694.8 710.7,694.8C717.9,694.8 725.2,694.8 732.5,694.8C739.7,694.8 747.0,694.8 754.3,694.8C761.6,694.8 768.8,694.8 776.1,694.8C783.4,694.8 790.6,694.8 797.9,694.8C805.2,694.8 812.4,694.8 819.7,694.8C827.0,694.8 834.3,694.8 841.5,694.8C848.8,694.8 856.1,694.8 863.3,694.8C870.6,694.8 877.9,694.8 885.1,694.8C892.4,694.8 899.7,694.8 907.0,694.8C914.2,694.8 921.5,694.8 928.8,694.8C936.0,694.8 943.3,694.8 950.6,694.8C957.8,694.8 965.1,694.8 972.4,694.8C979.7,694.8 986.9,694.8 994.2,694.8C1001.5,694.8 1008.7,694.8 1016.0,694.8L1016.0,776 L100.0,776 Z" fill="url(#as-7)" stroke="none"/>
<path d="M100.0,776.0C107.3,776.0 114.5,776.0 121.8,776.0C129.1,776.0 136.3,776.0 143.6,776.0C150.9,776.0 158.2,776.0 165.4,776.0C172.7,776.0 180.0,776.0 187.2,776.0C194.5,776.0 201.8,776.0 209.0,776.0C216.3,776.0 223.6,776.0 230.9,776.0C238.1,776.0 245.4,776.0 252.7,776.0C259.9,776.0 267.2,776.0 274.5,776.0C281.7,776.0 289.0,776.0 296.3,776.0C303.6,776.0 310.8,776.0 318.1,776.0C325.4,776.0 332.6,776.0 339.9,776.0C347.2,776.0 354.4,731.0 361.7,729.6C369.0,728.2 376.3,728.2 383.5,728.1C390.8,728.1 398.1,726.7 405.3,726.7C412.6,726.7 419.9,726.7 427.1,726.7C434.4,726.7 441.7,726.7 449.0,726.7C456.2,726.7 463.5,726.7 470.8,726.7C478.0,726.7 485.3,726.7 492.6,723.8C499.8,720.9 507.1,707.9 514.4,707.9C521.7,707.9 528.9,707.9 536.2,707.9C543.5,707.9 550.7,707.9 558.0,707.9C565.3,707.9 572.5,707.9 579.8,707.9C587.1,707.9 594.3,707.9 601.6,707.9C608.9,707.9 616.2,707.9 623.4,707.9C630.7,707.9 638.0,707.9 645.2,707.9C652.5,707.9 659.8,699.1 667.0,699.1C674.3,699.1 681.6,699.1 688.9,699.1C696.1,699.1 703.4,699.1 710.7,699.1C717.9,699.1 725.2,699.1 732.5,699.1C739.7,699.1 747.0,699.1 754.3,699.1C761.6,699.1 768.8,699.1 776.1,699.1C783.4,699.1 790.6,699.1 797.9,699.1C805.2,699.1 812.4,699.1 819.7,697.7C827.0,696.3 834.3,686.1 841.5,686.1C848.8,686.1 856.1,686.1 863.3,686.1C870.6,686.1 877.9,686.1 885.1,686.1C892.4,686.1 899.7,686.1 907.0,686.1C914.2,686.1 921.5,686.1 928.8,686.1C936.0,686.1 943.3,686.1 950.6,686.1C957.8,686.1 965.1,686.1 972.4,686.1C979.7,686.1 986.9,686.1 994.2,686.1C1001.5,686.1 1008.7,686.1 1016.0,686.1L1016.0,776 L100.0,776 Z" fill="url(#as-6)" stroke="none"/>
<path d="M100.0,776.0C107.3,776.0 114.5,776.0 121.8,776.0C129.1,776.0 136.3,771.4 143.6,767.3C150.9,763.2 158.2,751.4 165.4,751.4C172.7,751.4 180.0,751.4 187.2,751.4C194.5,751.4 201.8,749.9 209.0,749.9C216.3,749.9 223.6,749.9 230.9,749.9C238.1,749.9 245.4,749.9 252.7,749.9C259.9,749.9 267.2,749.9 274.5,749.9C281.7,749.9 289.0,742.6 296.3,742.6C303.6,742.6 310.8,742.6 318.1,742.6C325.4,742.6 332.6,700.6 339.9,697.7C347.2,694.8 354.4,694.8 361.7,694.8C369.0,694.8 376.3,694.8 383.5,694.8C390.8,694.8 398.1,694.8 405.3,694.8C412.6,694.8 419.9,694.8 427.1,694.8C434.4,694.8 441.7,694.8 449.0,694.8C456.2,694.8 463.5,694.8 470.8,694.8C478.0,694.8 485.3,694.8 492.6,694.8C499.8,694.8 507.1,694.8 514.4,694.8C521.7,694.8 528.9,694.8 536.2,694.8C543.5,694.8 550.7,694.8 558.0,694.8C565.3,694.8 572.5,694.8 579.8,694.8C587.1,694.8 594.3,694.8 601.6,694.8C608.9,694.8 616.2,694.8 623.4,694.8C630.7,694.8 638.0,694.8 645.2,694.8C652.5,694.8 659.8,694.8 667.0,694.8C674.3,694.8 681.6,694.8 688.9,694.8C696.1,694.8 703.4,694.8 710.7,694.8C717.9,694.8 725.2,694.8 732.5,694.8C739.7,694.8 747.0,694.8 754.3,694.8C761.6,694.8 768.8,694.8 776.1,694.8C783.4,694.8 790.6,694.8 797.9,694.8C805.2,694.8 812.4,694.8 819.7,694.8C827.0,694.8 834.3,694.1 841.5,689.0C848.8,683.9 856.1,664.4 863.3,664.4C870.6,664.4 877.9,664.4 885.1,664.4C892.4,664.4 899.7,664.4 907.0,664.4C914.2,664.4 921.5,664.4 928.8,664.4C936.0,664.4 943.3,664.4 950.6,664.4C957.8,664.4 965.1,664.4 972.4,664.4C979.7,664.4 986.9,664.4 994.2,664.4C1001.5,664.4 1008.7,664.4 1016.0,664.4L1016.0,776 L100.0,776 Z" fill="url(#as-5)" stroke="none"/>
<path d="M100.0,776.0C107.3,776.0 114.5,776.0 121.8,776.0C129.1,776.0 136.3,759.1 143.6,752.8C150.9,746.5 158.2,738.3 165.4,738.3C172.7,738.3 180.0,738.3 187.2,738.3C194.5,738.3 201.8,734.4 209.0,732.5C216.3,730.6 223.6,728.2 230.9,726.7C238.1,725.3 245.4,723.8 252.7,723.8C259.9,723.8 267.2,723.8 274.5,723.8C281.7,723.8 289.0,712.9 296.3,709.3C303.6,705.7 310.8,702.0 318.1,702.0C325.4,702.0 332.6,702.0 339.9,702.0C347.2,702.0 354.4,702.0 361.7,702.0C369.0,702.0 376.3,702.0 383.5,702.0C390.8,702.0 398.1,699.1 405.3,699.1C412.6,699.1 419.9,699.1 427.1,699.1C434.4,699.1 441.7,681.8 449.0,681.8C456.2,681.8 463.5,681.8 470.8,681.8C478.0,681.8 485.3,680.3 492.6,680.3C499.8,680.3 507.1,680.3 514.4,680.3C521.7,680.3 528.9,676.7 536.2,674.5C543.5,672.3 550.7,667.3 558.0,667.3C565.3,667.3 572.5,667.3 579.8,667.3C587.1,667.3 594.3,667.3 601.6,667.3C608.9,667.3 616.2,667.3 623.4,667.3C630.7,667.3 638.0,667.3 645.2,667.3C652.5,667.3 659.8,667.3 667.0,667.3C674.3,667.3 681.6,667.3 688.9,667.3C696.1,667.3 703.4,664.4 710.7,664.4C717.9,664.4 725.2,664.4 732.5,664.4C739.7,664.4 747.0,664.4 754.3,664.4C761.6,664.4 768.8,664.4 776.1,664.4C783.4,664.4 790.6,664.4 797.9,664.4C805.2,664.4 812.4,664.4 819.7,664.4C827.0,664.4 834.3,664.4 841.5,664.4C848.8,664.4 856.1,664.4 863.3,664.4C870.6,664.4 877.9,664.4 885.1,664.4C892.4,664.4 899.7,664.4 907.0,664.4C914.2,664.4 921.5,664.4 928.8,664.4C936.0,664.4 943.3,664.4 950.6,664.4C957.8,664.4 965.1,664.4 972.4,664.4C979.7,664.4 986.9,664.4 994.2,664.4C1001.5,664.4 1008.7,664.4 1016.0,664.4L1016.0,776 L100.0,776 Z" fill="url(#as-4)" stroke="none"/>
<path d="M100.0,776.0C107.3,776.0 114.5,776.0 121.8,776.0C129.1,776.0 136.3,776.0 143.6,776.0C150.9,776.0 158.2,776.0 165.4,776.0C172.7,776.0 180.0,736.8 187.2,726.7C194.5,716.6 201.8,722.6 209.0,712.2C216.3,701.8 223.6,661.5 230.9,661.5C238.1,661.5 245.4,661.5 252.7,661.5C259.9,661.5 267.2,661.5 274.5,661.5C281.7,661.5 289.0,661.5 296.3,661.5C303.6,661.5 310.8,661.5 318.1,661.5C325.4,661.5 332.6,657.8 339.9,657.1C347.2,656.4 354.4,656.9 361.7,655.6C369.0,654.4 376.3,647.0 383.5,647.0C390.8,647.0 398.1,647.0 405.3,647.0C412.6,647.0 419.9,647.0 427.1,647.0C434.4,647.0 441.7,647.0 449.0,647.0C456.2,647.0 463.5,647.0 470.8,647.0C478.0,647.0 485.3,647.0 492.6,647.0C499.8,647.0 507.1,647.0 514.4,647.0C521.7,647.0 528.9,647.0 536.2,647.0C543.5,647.0 550.7,647.0 558.0,647.0C565.3,647.0 572.5,647.0 579.8,647.0C587.1,647.0 594.3,647.0 601.6,647.0C608.9,647.0 616.2,647.0 623.4,647.0C630.7,647.0 638.0,647.0 645.2,647.0C652.5,647.0 659.8,647.0 667.0,647.0C674.3,647.0 681.6,647.0 688.9,647.0C696.1,647.0 703.4,647.0 710.7,647.0C717.9,647.0 725.2,647.0 732.5,647.0C739.7,647.0 747.0,647.0 754.3,647.0C761.6,647.0 768.8,647.0 776.1,647.0C783.4,647.0 790.6,647.0 797.9,647.0C805.2,647.0 812.4,647.0 819.7,647.0C827.0,647.0 834.3,647.0 841.5,647.0C848.8,647.0 856.1,647.0 863.3,647.0C870.6,647.0 877.9,647.0 885.1,647.0C892.4,647.0 899.7,647.0 907.0,647.0C914.2,647.0 921.5,647.0 928.8,647.0C936.0,647.0 943.3,647.0 950.6,647.0C957.8,647.0 965.1,647.0 972.4,647.0C979.7,647.0 986.9,647.0 994.2,647.0C1001.5,647.0 1008.7,647.0 1016.0,647.0L1016.0,776 L100.0,776 Z" fill="url(#as-3)" stroke="none"/>
<path d="M100.0,776.0C107.3,776.0 114.5,776.0 121.8,776.0C129.1,776.0 136.3,776.0 143.6,776.0C150.9,776.0 158.2,776.0 165.4,776.0C172.7,776.0 180.0,776.0 187.2,776.0C194.5,776.0 201.8,776.0 209.0,776.0C216.3,776.0 223.6,776.0 230.9,776.0C238.1,776.0 245.4,776.0 252.7,776.0C259.9,776.0 267.2,776.0 274.5,776.0C281.7,776.0 289.0,776.0 296.3,776.0C303.6,776.0 310.8,776.0 318.1,776.0C325.4,776.0 332.6,776.0 339.9,776.0C347.2,776.0 354.4,776.0 361.7,776.0C369.0,776.0 376.3,776.0 383.5,776.0C390.8,776.0 398.1,776.0 405.3,776.0C412.6,776.0 419.9,776.0 427.1,776.0C434.4,776.0 441.7,776.0 449.0,776.0C456.2,776.0 463.5,776.0 470.8,776.0C478.0,776.0 485.3,776.0 492.6,776.0C499.8,776.0 507.1,776.0 514.4,776.0C521.7,776.0 528.9,776.0 536.2,776.0C543.5,776.0 550.7,776.0 558.0,776.0C565.3,776.0 572.5,732.3 579.8,718.0C587.1,703.7 594.3,698.2 601.6,690.5C608.9,682.7 616.2,677.2 623.4,671.6C630.7,666.0 638.0,657.1 645.2,657.1C652.5,657.1 659.8,657.1 667.0,657.1C674.3,657.1 681.6,657.1 688.9,657.1C696.1,657.1 703.4,655.6 710.7,655.6C717.9,655.6 725.2,655.6 732.5,655.6C739.7,655.6 747.0,655.6 754.3,655.6C761.6,655.6 768.8,655.6 776.1,655.6C783.4,655.6 790.6,655.6 797.9,655.6C805.2,655.6 812.4,655.6 819.7,655.6C827.0,655.6 834.3,655.6 841.5,655.6C848.8,655.6 856.1,655.6 863.3,655.6C870.6,655.6 877.9,655.6 885.1,655.6C892.4,655.6 899.7,652.8 907.0,651.3C914.2,649.8 921.5,648.2 928.8,647.0C936.0,645.7 943.3,644.0 950.6,644.0C957.8,644.0 965.1,644.0 972.4,644.0C979.7,644.0 986.9,644.0 994.2,644.0C1001.5,644.0 1008.7,644.0 1016.0,644.0L1016.0,776 L100.0,776 Z" fill="url(#as-2)" stroke="none"/>
<path d="M100.0,776.0C107.3,776.0 114.5,776.0 121.8,776.0C129.1,776.0 136.3,776.0 143.6,776.0C150.9,776.0 158.2,776.0 165.4,776.0C172.7,776.0 180.0,776.0 187.2,776.0C194.5,776.0 201.8,776.0 209.0,776.0C216.3,776.0 223.6,776.0 230.9,776.0C238.1,776.0 245.4,776.0 252.7,776.0C259.9,776.0 267.2,776.0 274.5,776.0C281.7,776.0 289.0,776.0 296.3,776.0C303.6,776.0 310.8,776.0 318.1,776.0C325.4,776.0 332.6,776.0 339.9,776.0C347.2,776.0 354.4,776.0 361.7,776.0C369.0,776.0 376.3,776.0 383.5,776.0C390.8,776.0 398.1,773.3 405.3,760.0C412.6,746.8 419.9,709.3 427.1,696.3C434.4,683.2 441.7,685.4 449.0,681.8C456.2,678.1 463.5,676.2 470.8,674.5C478.0,672.8 485.3,671.8 492.6,671.6C499.8,671.4 507.1,671.6 514.4,670.1C521.7,668.7 528.9,644.1 536.2,639.7C543.5,635.4 550.7,635.4 558.0,635.4C565.3,635.4 572.5,635.4 579.8,635.4C587.1,635.4 594.3,628.1 601.6,628.1C608.9,628.1 616.2,628.1 623.4,628.1C630.7,628.1 638.0,628.1 645.2,628.1C652.5,628.1 659.8,628.1 667.0,628.1C674.3,628.1 681.6,628.1 688.9,628.1C696.1,628.1 703.4,628.1 710.7,628.1C717.9,628.1 725.2,628.1 732.5,628.1C739.7,628.1 747.0,628.1 754.3,628.1C761.6,628.1 768.8,628.1 776.1,628.1C783.4,628.1 790.6,628.1 797.9,628.1C805.2,628.1 812.4,628.1 819.7,628.1C827.0,628.1 834.3,628.1 841.5,628.1C848.8,628.1 856.1,628.1 863.3,628.1C870.6,628.1 877.9,628.1 885.1,628.1C892.4,628.1 899.7,628.1 907.0,628.1C914.2,628.1 921.5,613.6 928.8,613.6C936.0,613.6 943.3,613.6 950.6,613.6C957.8,613.6 965.1,612.1 972.4,612.1C979.7,612.1 986.9,612.1 994.2,612.1C1001.5,612.1 1008.7,612.1 1016.0,612.1L1016.0,776 L100.0,776 Z" fill="url(#as-1)" stroke="none"/>
<path d="M100.0,776.0C107.3,776.0 114.5,776.0 121.8,776.0C129.1,776.0 136.3,776.0 143.6,776.0C150.9,776.0 158.2,776.0 165.4,776.0C172.7,776.0 180.0,776.0 187.2,776.0C194.5,776.0 201.8,776.0 209.0,776.0C216.3,776.0 223.6,776.0 230.9,776.0C238.1,776.0 245.4,776.0 252.7,774.5C259.9,773.1 267.2,764.4 274.5,764.4C281.7,764.4 289.0,764.4 296.3,764.4C303.6,764.4 310.8,764.4 318.1,764.4C325.4,764.4 332.6,764.4 339.9,764.4C347.2,764.4 354.4,764.4 361.7,764.4C369.0,764.4 376.3,764.4 383.5,764.4C390.8,764.4 398.1,763.0 405.3,763.0C412.6,763.0 419.9,763.0 427.1,763.0C434.4,763.0 441.7,763.0 449.0,763.0C456.2,763.0 463.5,763.0 470.8,763.0C478.0,763.0 485.3,763.0 492.6,763.0C499.8,763.0 507.1,763.0 514.4,763.0C521.7,763.0 528.9,763.0 536.2,763.0C543.5,763.0 550.7,763.0 558.0,763.0C565.3,763.0 572.5,761.5 579.8,761.5C587.1,761.5 594.3,761.5 601.6,761.5C608.9,761.5 616.2,761.5 623.4,760.0C630.7,758.6 638.0,752.6 645.2,748.5C652.5,744.3 659.8,742.4 667.0,735.4C674.3,728.4 681.6,716.8 688.9,706.4C696.1,696.0 703.4,684.9 710.7,673.0C717.9,661.2 725.2,648.9 732.5,635.4C739.7,621.8 747.0,596.1 754.3,591.9C761.6,587.6 768.8,590.7 776.1,583.1C783.4,575.6 790.6,520.6 797.9,499.1C805.2,477.5 812.4,459.7 819.7,454.1C827.0,448.5 834.3,451.5 841.5,446.9C848.8,442.2 856.1,421.5 863.3,410.6C870.6,399.7 877.9,388.8 885.1,381.6C892.4,374.3 899.7,372.7 907.0,367.1C914.2,361.5 921.5,354.8 928.8,348.3C936.0,341.7 943.3,333.5 950.6,328.0C957.8,322.4 965.1,320.0 972.4,314.9C979.7,309.8 986.9,297.5 994.2,297.5C1001.5,297.5 1008.7,297.5 1016.0,297.5L1016.0,776 L100.0,776 Z" fill="url(#as-0)" stroke="none"/>
<path d="M100.0,776.0C107.3,776.0 114.5,776.0 121.8,776.0C129.1,776.0 136.3,776.0 143.6,776.0C150.9,776.0 158.2,776.0 165.4,776.0C172.7,776.0 180.0,776.0 187.2,776.0C194.5,776.0 201.8,776.0 209.0,776.0C216.3,776.0 223.6,776.0 230.9,776.0C238.1,776.0 245.4,776.0 252.7,776.0C259.9,776.0 267.2,776.0 274.5,776.0C281.7,776.0 289.0,776.0 296.3,768.8C303.6,761.5 310.8,709.3 318.1,707.9C325.4,706.4 332.6,706.4 339.9,706.4C347.2,706.4 354.4,706.4 361.7,706.4C369.0,706.4 376.3,706.4 383.5,706.4C390.8,706.4 398.1,706.4 405.3,706.4C412.6,706.4 419.9,706.4 427.1,706.4C434.4,706.4 441.7,706.4 449.0,706.4C456.2,706.4 463.5,703.5 470.8,703.5C478.0,703.5 485.3,703.5 492.6,703.5C499.8,703.5 507.1,703.5 514.4,703.5C521.7,703.5 528.9,703.5 536.2,703.5C543.5,703.5 550.7,703.5 558.0,703.5C565.3,703.5 572.5,703.5 579.8,703.5C587.1,703.5 594.3,703.5 601.6,703.5C608.9,703.5 616.2,703.5 623.4,703.5C630.7,703.5 638.0,703.5 645.2,703.5C652.5,703.5 659.8,703.5 667.0,703.5C674.3,703.5 681.6,703.5 688.9,703.5C696.1,703.5 703.4,703.5 710.7,703.5C717.9,703.5 725.2,703.5 732.5,703.5C739.7,703.5 747.0,703.5 754.3,703.5C761.6,703.5 768.8,703.5 776.1,703.5C783.4,703.5 790.6,703.5 797.9,703.5C805.2,703.5 812.4,703.5 819.7,703.5C827.0,703.5 834.3,703.5 841.5,703.5C848.8,703.5 856.1,703.5 863.3,703.5C870.6,703.5 877.9,703.5 885.1,703.5C892.4,703.5 899.7,703.5 907.0,703.5C914.2,703.5 921.5,703.5 928.8,703.5C936.0,703.5 943.3,703.5 950.6,703.5C957.8,703.5 965.1,703.5 972.4,703.5C979.7,703.5 986.9,703.5 994.2,703.5C1001.5,703.5 1008.7,703.5 1016.0,703.5" fill="none" stroke="url(#ls-9)" stroke-width="3.5" stroke-linecap="round"/>
<circle cx="1016" cy="703.5" r="9" fill="#94a3b8" fill-opacity="0.22"/>
<circle cx="1016" cy="703.5" r="4.5" fill="#94a3b8"/>
<path d="M100.0,771.6C107.3,768.8 114.5,766.1 121.8,763.0C129.1,759.8 136.3,752.8 143.6,752.8C150.9,752.8 158.2,752.8 165.4,752.8C172.7,752.8 180.0,752.8 187.2,752.8C194.5,752.8 201.8,722.4 209.0,722.4C216.3,722.4 223.6,722.4 230.9,722.4C238.1,722.4 245.4,722.4 252.7,722.4C259.9,722.4 267.2,722.4 274.5,722.4C281.7,722.4 289.0,722.4 296.3,722.4C303.6,722.4 310.8,722.4 318.1,722.4C325.4,722.4 332.6,722.4 339.9,722.4C347.2,722.4 354.4,722.4 361.7,722.4C369.0,722.4 376.3,722.4 383.5,722.4C390.8,722.4 398.1,722.4 405.3,722.4C412.6,722.4 419.9,722.4 427.1,722.4C434.4,722.4 441.7,722.4 449.0,722.4C456.2,722.4 463.5,710.8 470.8,710.8C478.0,710.8 485.3,710.8 492.6,710.8C499.8,710.8 507.1,710.8 514.4,710.8C521.7,710.8 528.9,710.8 536.2,710.8C543.5,710.8 550.7,710.8 558.0,710.8C565.3,710.8 572.5,705.0 579.8,705.0C587.1,705.0 594.3,705.0 601.6,705.0C608.9,705.0 616.2,705.0 623.4,705.0C630.7,705.0 638.0,705.0 645.2,705.0C652.5,705.0 659.8,702.0 667.0,702.0C674.3,702.0 681.6,702.0 688.9,702.0C696.1,702.0 703.4,702.0 710.7,702.0C717.9,702.0 725.2,702.0 732.5,702.0C739.7,702.0 747.0,702.0 754.3,702.0C761.6,702.0 768.8,702.0 776.1,702.0C783.4,702.0 790.6,702.0 797.9,702.0C805.2,702.0 812.4,702.0 819.7,702.0C827.0,702.0 834.3,702.0 841.5,702.0C848.8,702.0 856.1,702.0 863.3,702.0C870.6,702.0 877.9,702.0 885.1,702.0C892.4,702.0 899.7,702.0 907.0,702.0C914.2,702.0 921.5,702.0 928.8,702.0C936.0,702.0 943.3,702.0 950.6,702.0C957.8,702.0 965.1,702.0 972.4,702.0C979.7,702.0 986.9,702.0 994.2,702.0C1001.5,702.0 1008.7,702.0 1016.0,702.0" fill="none" stroke="url(#ls-8)" stroke-width="3.5" stroke-linecap="round"/>
<circle cx="1016" cy="702.05" r="9" fill="#818cf8" fill-opacity="0.22"/>
<circle cx="1016" cy="702.05" r="4.5" fill="#818cf8"/>
<path d="M100.0,763.0C107.3,755.7 114.5,746.5 121.8,741.2C129.1,735.9 136.3,733.9 143.6,731.0C150.9,728.1 158.2,728.9 165.4,723.8C172.7,718.7 180.0,703.5 187.2,700.6C194.5,697.7 201.8,697.7 209.0,697.7C216.3,697.7 223.6,697.7 230.9,697.7C238.1,697.7 245.4,697.7 252.7,697.7C259.9,697.7 267.2,697.7 274.5,697.7C281.7,697.7 289.0,697.7 296.3,697.7C303.6,697.7 310.8,697.7 318.1,697.7C325.4,697.7 332.6,694.8 339.9,694.8C347.2,694.8 354.4,694.8 361.7,694.8C369.0,694.8 376.3,694.8 383.5,694.8C390.8,694.8 398.1,694.8 405.3,694.8C412.6,694.8 419.9,694.8 427.1,694.8C434.4,694.8 441.7,694.8 449.0,694.8C456.2,694.8 463.5,694.8 470.8,694.8C478.0,694.8 485.3,694.8 492.6,694.8C499.8,694.8 507.1,694.8 514.4,694.8C521.7,694.8 528.9,694.8 536.2,694.8C543.5,694.8 550.7,694.8 558.0,694.8C565.3,694.8 572.5,694.8 579.8,694.8C587.1,694.8 594.3,694.8 601.6,694.8C608.9,694.8 616.2,694.8 623.4,694.8C630.7,694.8 638.0,694.8 645.2,694.8C652.5,694.8 659.8,694.8 667.0,694.8C674.3,694.8 681.6,694.8 688.9,694.8C696.1,694.8 703.4,694.8 710.7,694.8C717.9,694.8 725.2,694.8 732.5,694.8C739.7,694.8 747.0,694.8 754.3,694.8C761.6,694.8 768.8,694.8 776.1,694.8C783.4,694.8 790.6,694.8 797.9,694.8C805.2,694.8 812.4,694.8 819.7,694.8C827.0,694.8 834.3,694.8 841.5,694.8C848.8,694.8 856.1,694.8 863.3,694.8C870.6,694.8 877.9,694.8 885.1,694.8C892.4,694.8 899.7,694.8 907.0,694.8C914.2,694.8 921.5,694.8 928.8,694.8C936.0,694.8 943.3,694.8 950.6,694.8C957.8,694.8 965.1,694.8 972.4,694.8C979.7,694.8 986.9,694.8 994.2,694.8C1001.5,694.8 1008.7,694.8 1016.0,694.8" fill="none" stroke="url(#ls-7)" stroke-width="3.5" stroke-linecap="round"/>
<circle cx="1016" cy="694.8" r="9" fill="#fb923c" fill-opacity="0.22"/>
<circle cx="1016" cy="694.8" r="4.5" fill="#fb923c"/>
<path d="M100.0,776.0C107.3,776.0 114.5,776.0 121.8,776.0C129.1,776.0 136.3,776.0 143.6,776.0C150.9,776.0 158.2,776.0 165.4,776.0C172.7,776.0 180.0,776.0 187.2,776.0C194.5,776.0 201.8,776.0 209.0,776.0C216.3,776.0 223.6,776.0 230.9,776.0C238.1,776.0 245.4,776.0 252.7,776.0C259.9,776.0 267.2,776.0 274.5,776.0C281.7,776.0 289.0,776.0 296.3,776.0C303.6,776.0 310.8,776.0 318.1,776.0C325.4,776.0 332.6,776.0 339.9,776.0C347.2,776.0 354.4,731.0 361.7,729.6C369.0,728.2 376.3,728.2 383.5,728.1C390.8,728.1 398.1,726.7 405.3,726.7C412.6,726.7 419.9,726.7 427.1,726.7C434.4,726.7 441.7,726.7 449.0,726.7C456.2,726.7 463.5,726.7 470.8,726.7C478.0,726.7 485.3,726.7 492.6,723.8C499.8,720.9 507.1,707.9 514.4,707.9C521.7,707.9 528.9,707.9 536.2,707.9C543.5,707.9 550.7,707.9 558.0,707.9C565.3,707.9 572.5,707.9 579.8,707.9C587.1,707.9 594.3,707.9 601.6,707.9C608.9,707.9 616.2,707.9 623.4,707.9C630.7,707.9 638.0,707.9 645.2,707.9C652.5,707.9 659.8,699.1 667.0,699.1C674.3,699.1 681.6,699.1 688.9,699.1C696.1,699.1 703.4,699.1 710.7,699.1C717.9,699.1 725.2,699.1 732.5,699.1C739.7,699.1 747.0,699.1 754.3,699.1C761.6,699.1 768.8,699.1 776.1,699.1C783.4,699.1 790.6,699.1 797.9,699.1C805.2,699.1 812.4,699.1 819.7,697.7C827.0,696.3 834.3,686.1 841.5,686.1C848.8,686.1 856.1,686.1 863.3,686.1C870.6,686.1 877.9,686.1 885.1,686.1C892.4,686.1 899.7,686.1 907.0,686.1C914.2,686.1 921.5,686.1 928.8,686.1C936.0,686.1 943.3,686.1 950.6,686.1C957.8,686.1 965.1,686.1 972.4,686.1C979.7,686.1 986.9,686.1 994.2,686.1C1001.5,686.1 1008.7,686.1 1016.0,686.1" fill="none" stroke="url(#ls-6)" stroke-width="3.5" stroke-linecap="round"/>
<circle cx="1016" cy="686.1" r="9" fill="#f472b6" fill-opacity="0.22"/>
<circle cx="1016" cy="686.1" r="4.5" fill="#f472b6"/>
<path d="M100.0,776.0C107.3,776.0 114.5,776.0 121.8,776.0C129.1,776.0 136.3,771.4 143.6,767.3C150.9,763.2 158.2,751.4 165.4,751.4C172.7,751.4 180.0,751.4 187.2,751.4C194.5,751.4 201.8,749.9 209.0,749.9C216.3,749.9 223.6,749.9 230.9,749.9C238.1,749.9 245.4,749.9 252.7,749.9C259.9,749.9 267.2,749.9 274.5,749.9C281.7,749.9 289.0,742.6 296.3,742.6C303.6,742.6 310.8,742.6 318.1,742.6C325.4,742.6 332.6,700.6 339.9,697.7C347.2,694.8 354.4,694.8 361.7,694.8C369.0,694.8 376.3,694.8 383.5,694.8C390.8,694.8 398.1,694.8 405.3,694.8C412.6,694.8 419.9,694.8 427.1,694.8C434.4,694.8 441.7,694.8 449.0,694.8C456.2,694.8 463.5,694.8 470.8,694.8C478.0,694.8 485.3,694.8 492.6,694.8C499.8,694.8 507.1,694.8 514.4,694.8C521.7,694.8 528.9,694.8 536.2,694.8C543.5,694.8 550.7,694.8 558.0,694.8C565.3,694.8 572.5,694.8 579.8,694.8C587.1,694.8 594.3,694.8 601.6,694.8C608.9,694.8 616.2,694.8 623.4,694.8C630.7,694.8 638.0,694.8 645.2,694.8C652.5,694.8 659.8,694.8 667.0,694.8C674.3,694.8 681.6,694.8 688.9,694.8C696.1,694.8 703.4,694.8 710.7,694.8C717.9,694.8 725.2,694.8 732.5,694.8C739.7,694.8 747.0,694.8 754.3,694.8C761.6,694.8 768.8,694.8 776.1,694.8C783.4,694.8 790.6,694.8 797.9,694.8C805.2,694.8 812.4,694.8 819.7,694.8C827.0,694.8 834.3,694.1 841.5,689.0C848.8,683.9 856.1,664.4 863.3,664.4C870.6,664.4 877.9,664.4 885.1,664.4C892.4,664.4 899.7,664.4 907.0,664.4C914.2,664.4 921.5,664.4 928.8,664.4C936.0,664.4 943.3,664.4 950.6,664.4C957.8,664.4 965.1,664.4 972.4,664.4C979.7,664.4 986.9,664.4 994.2,664.4C1001.5,664.4 1008.7,664.4 1016.0,664.4" fill="none" stroke="url(#ls-5)" stroke-width="3.5" stroke-linecap="round"/>
<circle cx="1016" cy="664.35" r="9" fill="#22d3ee" fill-opacity="0.22"/>
<circle cx="1016" cy="664.35" r="4.5" fill="#22d3ee"/>
<path d="M100.0,776.0C107.3,776.0 114.5,776.0 121.8,776.0C129.1,776.0 136.3,759.1 143.6,752.8C150.9,746.5 158.2,738.3 165.4,738.3C172.7,738.3 180.0,738.3 187.2,738.3C194.5,738.3 201.8,734.4 209.0,732.5C216.3,730.6 223.6,728.2 230.9,726.7C238.1,725.3 245.4,723.8 252.7,723.8C259.9,723.8 267.2,723.8 274.5,723.8C281.7,723.8 289.0,712.9 296.3,709.3C303.6,705.7 310.8,702.0 318.1,702.0C325.4,702.0 332.6,702.0 339.9,702.0C347.2,702.0 354.4,702.0 361.7,702.0C369.0,702.0 376.3,702.0 383.5,702.0C390.8,702.0 398.1,699.1 405.3,699.1C412.6,699.1 419.9,699.1 427.1,699.1C434.4,699.1 441.7,681.8 449.0,681.8C456.2,681.8 463.5,681.8 470.8,681.8C478.0,681.8 485.3,680.3 492.6,680.3C499.8,680.3 507.1,680.3 514.4,680.3C521.7,680.3 528.9,676.7 536.2,674.5C543.5,672.3 550.7,667.3 558.0,667.3C565.3,667.3 572.5,667.3 579.8,667.3C587.1,667.3 594.3,667.3 601.6,667.3C608.9,667.3 616.2,667.3 623.4,667.3C630.7,667.3 638.0,667.3 645.2,667.3C652.5,667.3 659.8,667.3 667.0,667.3C674.3,667.3 681.6,667.3 688.9,667.3C696.1,667.3 703.4,664.4 710.7,664.4C717.9,664.4 725.2,664.4 732.5,664.4C739.7,664.4 747.0,664.4 754.3,664.4C761.6,664.4 768.8,664.4 776.1,664.4C783.4,664.4 790.6,664.4 797.9,664.4C805.2,664.4 812.4,664.4 819.7,664.4C827.0,664.4 834.3,664.4 841.5,664.4C848.8,664.4 856.1,664.4 863.3,664.4C870.6,664.4 877.9,664.4 885.1,664.4C892.4,664.4 899.7,664.4 907.0,664.4C914.2,664.4 921.5,664.4 928.8,664.4C936.0,664.4 943.3,664.4 950.6,664.4C957.8,664.4 965.1,664.4 972.4,664.4C979.7,664.4 986.9,664.4 994.2,664.4C1001.5,664.4 1008.7,664.4 1016.0,664.4" fill="none" stroke="url(#ls-4)" stroke-width="3.5" stroke-linecap="round"/>
<circle cx="1016" cy="664.35" r="9" fill="#a78bfa" fill-opacity="0.22"/>
<circle cx="1016" cy="664.35" r="4.5" fill="#a78bfa"/>
<path d="M100.0,776.0C107.3,776.0 114.5,776.0 121.8,776.0C129.1,776.0 136.3,776.0 143.6,776.0C150.9,776.0 158.2,776.0 165.4,776.0C172.7,776.0 180.0,736.8 187.2,726.7C194.5,716.6 201.8,722.6 209.0,712.2C216.3,701.8 223.6,661.5 230.9,661.5C238.1,661.5 245.4,661.5 252.7,661.5C259.9,661.5 267.2,661.5 274.5,661.5C281.7,661.5 289.0,661.5 296.3,661.5C303.6,661.5 310.8,661.5 318.1,661.5C325.4,661.5 332.6,657.8 339.9,657.1C347.2,656.4 354.4,656.9 361.7,655.6C369.0,654.4 376.3,647.0 383.5,647.0C390.8,647.0 398.1,647.0 405.3,647.0C412.6,647.0 419.9,647.0 427.1,647.0C434.4,647.0 441.7,647.0 449.0,647.0C456.2,647.0 463.5,647.0 470.8,647.0C478.0,647.0 485.3,647.0 492.6,647.0C499.8,647.0 507.1,647.0 514.4,647.0C521.7,647.0 528.9,647.0 536.2,647.0C543.5,647.0 550.7,647.0 558.0,647.0C565.3,647.0 572.5,647.0 579.8,647.0C587.1,647.0 594.3,647.0 601.6,647.0C608.9,647.0 616.2,647.0 623.4,647.0C630.7,647.0 638.0,647.0 645.2,647.0C652.5,647.0 659.8,647.0 667.0,647.0C674.3,647.0 681.6,647.0 688.9,647.0C696.1,647.0 703.4,647.0 710.7,647.0C717.9,647.0 725.2,647.0 732.5,647.0C739.7,647.0 747.0,647.0 754.3,647.0C761.6,647.0 768.8,647.0 776.1,647.0C783.4,647.0 790.6,647.0 797.9,647.0C805.2,647.0 812.4,647.0 819.7,647.0C827.0,647.0 834.3,647.0 841.5,647.0C848.8,647.0 856.1,647.0 863.3,647.0C870.6,647.0 877.9,647.0 885.1,647.0C892.4,647.0 899.7,647.0 907.0,647.0C914.2,647.0 921.5,647.0 928.8,647.0C936.0,647.0 943.3,647.0 950.6,647.0C957.8,647.0 965.1,647.0 972.4,647.0C979.7,647.0 986.9,647.0 994.2,647.0C1001.5,647.0 1008.7,647.0 1016.0,647.0" fill="none" stroke="url(#ls-3)" stroke-width="3.5" stroke-linecap="round"/>
<circle cx="1016" cy="646.95" r="9" fill="#fbbf24" fill-opacity="0.22"/>
<circle cx="1016" cy="646.95" r="4.5" fill="#fbbf24"/>
<path d="M100.0,776.0C107.3,776.0 114.5,776.0 121.8,776.0C129.1,776.0 136.3,776.0 143.6,776.0C150.9,776.0 158.2,776.0 165.4,776.0C172.7,776.0 180.0,776.0 187.2,776.0C194.5,776.0 201.8,776.0 209.0,776.0C216.3,776.0 223.6,776.0 230.9,776.0C238.1,776.0 245.4,776.0 252.7,776.0C259.9,776.0 267.2,776.0 274.5,776.0C281.7,776.0 289.0,776.0 296.3,776.0C303.6,776.0 310.8,776.0 318.1,776.0C325.4,776.0 332.6,776.0 339.9,776.0C347.2,776.0 354.4,776.0 361.7,776.0C369.0,776.0 376.3,776.0 383.5,776.0C390.8,776.0 398.1,776.0 405.3,776.0C412.6,776.0 419.9,776.0 427.1,776.0C434.4,776.0 441.7,776.0 449.0,776.0C456.2,776.0 463.5,776.0 470.8,776.0C478.0,776.0 485.3,776.0 492.6,776.0C499.8,776.0 507.1,776.0 514.4,776.0C521.7,776.0 528.9,776.0 536.2,776.0C543.5,776.0 550.7,776.0 558.0,776.0C565.3,776.0 572.5,732.3 579.8,718.0C587.1,703.7 594.3,698.2 601.6,690.5C608.9,682.7 616.2,677.2 623.4,671.6C630.7,666.0 638.0,657.1 645.2,657.1C652.5,657.1 659.8,657.1 667.0,657.1C674.3,657.1 681.6,657.1 688.9,657.1C696.1,657.1 703.4,655.6 710.7,655.6C717.9,655.6 725.2,655.6 732.5,655.6C739.7,655.6 747.0,655.6 754.3,655.6C761.6,655.6 768.8,655.6 776.1,655.6C783.4,655.6 790.6,655.6 797.9,655.6C805.2,655.6 812.4,655.6 819.7,655.6C827.0,655.6 834.3,655.6 841.5,655.6C848.8,655.6 856.1,655.6 863.3,655.6C870.6,655.6 877.9,655.6 885.1,655.6C892.4,655.6 899.7,652.8 907.0,651.3C914.2,649.8 921.5,648.2 928.8,647.0C936.0,645.7 943.3,644.0 950.6,644.0C957.8,644.0 965.1,644.0 972.4,644.0C979.7,644.0 986.9,644.0 994.2,644.0C1001.5,644.0 1008.7,644.0 1016.0,644.0" fill="none" stroke="url(#ls-2)" stroke-width="3.5" stroke-linecap="round"/>
<circle cx="1016" cy="644.05" r="9" fill="#34d399" fill-opacity="0.22"/>
<circle cx="1016" cy="644.05" r="4.5" fill="#34d399"/>
<path d="M100.0,776.0C107.3,776.0 114.5,776.0 121.8,776.0C129.1,776.0 136.3,776.0 143.6,776.0C150.9,776.0 158.2,776.0 165.4,776.0C172.7,776.0 180.0,776.0 187.2,776.0C194.5,776.0 201.8,776.0 209.0,776.0C216.3,776.0 223.6,776.0 230.9,776.0C238.1,776.0 245.4,776.0 252.7,776.0C259.9,776.0 267.2,776.0 274.5,776.0C281.7,776.0 289.0,776.0 296.3,776.0C303.6,776.0 310.8,776.0 318.1,776.0C325.4,776.0 332.6,776.0 339.9,776.0C347.2,776.0 354.4,776.0 361.7,776.0C369.0,776.0 376.3,776.0 383.5,776.0C390.8,776.0 398.1,773.3 405.3,760.0C412.6,746.8 419.9,709.3 427.1,696.3C434.4,683.2 441.7,685.4 449.0,681.8C456.2,678.1 463.5,676.2 470.8,674.5C478.0,672.8 485.3,671.8 492.6,671.6C499.8,671.4 507.1,671.6 514.4,670.1C521.7,668.7 528.9,644.1 536.2,639.7C543.5,635.4 550.7,635.4 558.0,635.4C565.3,635.4 572.5,635.4 579.8,635.4C587.1,635.4 594.3,628.1 601.6,628.1C608.9,628.1 616.2,628.1 623.4,628.1C630.7,628.1 638.0,628.1 645.2,628.1C652.5,628.1 659.8,628.1 667.0,628.1C674.3,628.1 681.6,628.1 688.9,628.1C696.1,628.1 703.4,628.1 710.7,628.1C717.9,628.1 725.2,628.1 732.5,628.1C739.7,628.1 747.0,628.1 754.3,628.1C761.6,628.1 768.8,628.1 776.1,628.1C783.4,628.1 790.6,628.1 797.9,628.1C805.2,628.1 812.4,628.1 819.7,628.1C827.0,628.1 834.3,628.1 841.5,628.1C848.8,628.1 856.1,628.1 863.3,628.1C870.6,628.1 877.9,628.1 885.1,628.1C892.4,628.1 899.7,628.1 907.0,628.1C914.2,628.1 921.5,613.6 928.8,613.6C936.0,613.6 943.3,613.6 950.6,613.6C957.8,613.6 965.1,612.1 972.4,612.1C979.7,612.1 986.9,612.1 994.2,612.1C1001.5,612.1 1008.7,612.1 1016.0,612.1" fill="none" stroke="url(#ls-1)" stroke-width="3.5" stroke-linecap="round"/>
<circle cx="1016" cy="612.15" r="9" fill="#60a5fa" fill-opacity="0.22"/>
<circle cx="1016" cy="612.15" r="4.5" fill="#60a5fa"/>
<path d="M100.0,776.0C107.3,776.0 114.5,776.0 121.8,776.0C129.1,776.0 136.3,776.0 143.6,776.0C150.9,776.0 158.2,776.0 165.4,776.0C172.7,776.0 180.0,776.0 187.2,776.0C194.5,776.0 201.8,776.0 209.0,776.0C216.3,776.0 223.6,776.0 230.9,776.0C238.1,776.0 245.4,776.0 252.7,774.5C259.9,773.1 267.2,764.4 274.5,764.4C281.7,764.4 289.0,764.4 296.3,764.4C303.6,764.4 310.8,764.4 318.1,764.4C325.4,764.4 332.6,764.4 339.9,764.4C347.2,764.4 354.4,764.4 361.7,764.4C369.0,764.4 376.3,764.4 383.5,764.4C390.8,764.4 398.1,763.0 405.3,763.0C412.6,763.0 419.9,763.0 427.1,763.0C434.4,763.0 441.7,763.0 449.0,763.0C456.2,763.0 463.5,763.0 470.8,763.0C478.0,763.0 485.3,763.0 492.6,763.0C499.8,763.0 507.1,763.0 514.4,763.0C521.7,763.0 528.9,763.0 536.2,763.0C543.5,763.0 550.7,763.0 558.0,763.0C565.3,763.0 572.5,761.5 579.8,761.5C587.1,761.5 594.3,761.5 601.6,761.5C608.9,761.5 616.2,761.5 623.4,760.0C630.7,758.6 638.0,752.6 645.2,748.5C652.5,744.3 659.8,742.4 667.0,735.4C674.3,728.4 681.6,716.8 688.9,706.4C696.1,696.0 703.4,684.9 710.7,673.0C717.9,661.2 725.2,648.9 732.5,635.4C739.7,621.8 747.0,596.1 754.3,591.9C761.6,587.6 768.8,590.7 776.1,583.1C783.4,575.6 790.6,520.6 797.9,499.1C805.2,477.5 812.4,459.7 819.7,454.1C827.0,448.5 834.3,451.5 841.5,446.9C848.8,442.2 856.1,421.5 863.3,410.6C870.6,399.7 877.9,388.8 885.1,381.6C892.4,374.3 899.7,372.7 907.0,367.1C914.2,361.5 921.5,354.8 928.8,348.3C936.0,341.7 943.3,333.5 950.6,328.0C957.8,322.4 965.1,320.0 972.4,314.9C979.7,309.8 986.9,297.5 994.2,297.5C1001.5,297.5 1008.7,297.5 1016.0,297.5" fill="none" stroke="url(#ls-0)" stroke-width="3.5" stroke-linecap="round"/>
<circle cx="1016" cy="297.5" r="9" fill="#fb7185" fill-opacity="0.22"/>
<circle cx="1016" cy="297.5" r="4.5" fill="#fb7185"/>
<text x="1088" y="180" font-family="-apple-system,BlinkMacSystemFont,&quot;Segoe UI&quot;,&quot;Noto Sans CJK SC&quot;,&quot;PingFang SC&quot;,&quot;Microsoft YaHei&quot;,Helvetica,Arial,sans-serif" font-size="20" font-weight="600" fill="#8b949e">排名</text>
<text x="1112" y="228" font-family="-apple-system,BlinkMacSystemFont,&quot;Segoe UI&quot;,&quot;Noto Sans CJK SC&quot;,&quot;PingFang SC&quot;,&quot;Microsoft YaHei&quot;,Helvetica,Arial,sans-serif" font-size="20" font-weight="700" fill="#fbbf24" text-anchor="end">1</text>
<circle cx="1144" cy="222" r="7" fill="#fb7185"/>
<text x="1166" y="229" font-family="-apple-system,BlinkMacSystemFont,&quot;Segoe UI&quot;,&quot;Noto Sans CJK SC&quot;,&quot;PingFang SC&quot;,&quot;Microsoft YaHei&quot;,Helvetica,Arial,sans-serif" font-size="21" fill="#c9d1d9">10router</text>
<text x="1520" y="230" font-family="-apple-system,BlinkMacSystemFont,&quot;Segoe UI&quot;,&quot;Noto Sans CJK SC&quot;,&quot;PingFang SC&quot;,&quot;Microsoft YaHei&quot;,Helvetica,Arial,sans-serif" font-size="23" font-weight="700" fill="#fb7185" text-anchor="end">330</text>
<line x1="1088" y1="248" x2="1528" y2="248" stroke="#21262d" stroke-width="1"/>
<text x="1112" y="284" font-family="-apple-system,BlinkMacSystemFont,&quot;Segoe UI&quot;,&quot;Noto Sans CJK SC&quot;,&quot;PingFang SC&quot;,&quot;Microsoft YaHei&quot;,Helvetica,Arial,sans-serif" font-size="20" font-weight="700" fill="#9aa7b4" text-anchor="end">2</text>
<circle cx="1144" cy="278" r="7" fill="#60a5fa"/>
<text x="1166" y="285" font-family="-apple-system,BlinkMacSystemFont,&quot;Segoe UI&quot;,&quot;Noto Sans CJK SC&quot;,&quot;PingFang SC&quot;,&quot;Microsoft YaHei&quot;,Helvetica,Arial,sans-serif" font-size="21" fill="#c9d1d9">deepseek-harness-fnos</text>
<text x="1520" y="286" font-family="-apple-system,BlinkMacSystemFont,&quot;Segoe UI&quot;,&quot;Noto Sans CJK SC&quot;,&quot;PingFang SC&quot;,&quot;Microsoft YaHei&quot;,Helvetica,Arial,sans-serif" font-size="23" font-weight="700" fill="#60a5fa" text-anchor="end">113</text>
<line x1="1088" y1="304" x2="1528" y2="304" stroke="#21262d" stroke-width="1"/>
<text x="1112" y="340" font-family="-apple-system,BlinkMacSystemFont,&quot;Segoe UI&quot;,&quot;Noto Sans CJK SC&quot;,&quot;PingFang SC&quot;,&quot;Microsoft YaHei&quot;,Helvetica,Arial,sans-serif" font-size="20" font-weight="700" fill="#d08a4e" text-anchor="end">3</text>
<circle cx="1144" cy="334" r="7" fill="#34d399"/>
<text x="1166" y="341" font-family="-apple-system,BlinkMacSystemFont,&quot;Segoe UI&quot;,&quot;Noto Sans CJK SC&quot;,&quot;PingFang SC&quot;,&quot;Microsoft YaHei&quot;,Helvetica,Arial,sans-serif" font-size="21" fill="#c9d1d9">hermes-fry-cards</text>
<text x="1520" y="342" font-family="-apple-system,BlinkMacSystemFont,&quot;Segoe UI&quot;,&quot;Noto Sans CJK SC&quot;,&quot;PingFang SC&quot;,&quot;Microsoft YaHei&quot;,Helvetica,Arial,sans-serif" font-size="23" font-weight="700" fill="#34d399" text-anchor="end">91</text>
<line x1="1088" y1="360" x2="1528" y2="360" stroke="#21262d" stroke-width="1"/>
<text x="1112" y="396" font-family="-apple-system,BlinkMacSystemFont,&quot;Segoe UI&quot;,&quot;Noto Sans CJK SC&quot;,&quot;PingFang SC&quot;,&quot;Microsoft YaHei&quot;,Helvetica,Arial,sans-serif" font-size="20" font-weight="400" fill="#8b949e" text-anchor="end">4</text>
<circle cx="1144" cy="390" r="7" fill="#fbbf24"/>
<text x="1166" y="397" font-family="-apple-system,BlinkMacSystemFont,&quot;Segoe UI&quot;,&quot;Noto Sans CJK SC&quot;,&quot;PingFang SC&quot;,&quot;Microsoft YaHei&quot;,Helvetica,Arial,sans-serif" font-size="21" fill="#c9d1d9">hermes-core-fnos</text>
<text x="1520" y="398" font-family="-apple-system,BlinkMacSystemFont,&quot;Segoe UI&quot;,&quot;Noto Sans CJK SC&quot;,&quot;PingFang SC&quot;,&quot;Microsoft YaHei&quot;,Helvetica,Arial,sans-serif" font-size="23" font-weight="700" fill="#fbbf24" text-anchor="end">89</text>
<line x1="1088" y1="416" x2="1528" y2="416" stroke="#21262d" stroke-width="1"/>
<text x="1112" y="452" font-family="-apple-system,BlinkMacSystemFont,&quot;Segoe UI&quot;,&quot;Noto Sans CJK SC&quot;,&quot;PingFang SC&quot;,&quot;Microsoft YaHei&quot;,Helvetica,Arial,sans-serif" font-size="20" font-weight="400" fill="#8b949e" text-anchor="end">5</text>
<circle cx="1144" cy="446" r="7" fill="#a78bfa"/>
<text x="1166" y="453" font-family="-apple-system,BlinkMacSystemFont,&quot;Segoe UI&quot;,&quot;Noto Sans CJK SC&quot;,&quot;PingFang SC&quot;,&quot;Microsoft YaHei&quot;,Helvetica,Arial,sans-serif" font-size="21" fill="#c9d1d9">9router-fnos</text>
<text x="1520" y="454" font-family="-apple-system,BlinkMacSystemFont,&quot;Segoe UI&quot;,&quot;Noto Sans CJK SC&quot;,&quot;PingFang SC&quot;,&quot;Microsoft YaHei&quot;,Helvetica,Arial,sans-serif" font-size="23" font-weight="700" fill="#a78bfa" text-anchor="end">77</text>
<line x1="1088" y1="472" x2="1528" y2="472" stroke="#21262d" stroke-width="1"/>
<text x="1112" y="508" font-family="-apple-system,BlinkMacSystemFont,&quot;Segoe UI&quot;,&quot;Noto Sans CJK SC&quot;,&quot;PingFang SC&quot;,&quot;Microsoft YaHei&quot;,Helvetica,Arial,sans-serif" font-size="20" font-weight="400" fill="#8b949e" text-anchor="end">6</text>
<circle cx="1144" cy="502" r="7" fill="#22d3ee"/>
<text x="1166" y="509" font-family="-apple-system,BlinkMacSystemFont,&quot;Segoe UI&quot;,&quot;Noto Sans CJK SC&quot;,&quot;PingFang SC&quot;,&quot;Microsoft YaHei&quot;,Helvetica,Arial,sans-serif" font-size="21" fill="#c9d1d9">strava-panel</text>
<text x="1520" y="510" font-family="-apple-system,BlinkMacSystemFont,&quot;Segoe UI&quot;,&quot;Noto Sans CJK SC&quot;,&quot;PingFang SC&quot;,&quot;Microsoft YaHei&quot;,Helvetica,Arial,sans-serif" font-size="23" font-weight="700" fill="#22d3ee" text-anchor="end">77</text>
<line x1="1088" y1="528" x2="1528" y2="528" stroke="#21262d" stroke-width="1"/>
<text x="1112" y="564" font-family="-apple-system,BlinkMacSystemFont,&quot;Segoe UI&quot;,&quot;Noto Sans CJK SC&quot;,&quot;PingFang SC&quot;,&quot;Microsoft YaHei&quot;,Helvetica,Arial,sans-serif" font-size="20" font-weight="400" fill="#8b949e" text-anchor="end">7</text>
<circle cx="1144" cy="558" r="7" fill="#f472b6"/>
<text x="1166" y="565" font-family="-apple-system,BlinkMacSystemFont,&quot;Segoe UI&quot;,&quot;Noto Sans CJK SC&quot;,&quot;PingFang SC&quot;,&quot;Microsoft YaHei&quot;,Helvetica,Arial,sans-serif" font-size="21" fill="#c9d1d9">mihomo-core-fnos</text>
<text x="1520" y="566" font-family="-apple-system,BlinkMacSystemFont,&quot;Segoe UI&quot;,&quot;Noto Sans CJK SC&quot;,&quot;PingFang SC&quot;,&quot;Microsoft YaHei&quot;,Helvetica,Arial,sans-serif" font-size="23" font-weight="700" fill="#f472b6" text-anchor="end">62</text>
<line x1="1088" y1="584" x2="1528" y2="584" stroke="#21262d" stroke-width="1"/>
<text x="1112" y="620" font-family="-apple-system,BlinkMacSystemFont,&quot;Segoe UI&quot;,&quot;Noto Sans CJK SC&quot;,&quot;PingFang SC&quot;,&quot;Microsoft YaHei&quot;,Helvetica,Arial,sans-serif" font-size="20" font-weight="400" fill="#8b949e" text-anchor="end">8</text>
<circle cx="1144" cy="614" r="7" fill="#fb923c"/>
<text x="1166" y="621" font-family="-apple-system,BlinkMacSystemFont,&quot;Segoe UI&quot;,&quot;Noto Sans CJK SC&quot;,&quot;PingFang SC&quot;,&quot;Microsoft YaHei&quot;,Helvetica,Arial,sans-serif" font-size="21" fill="#c9d1d9">hermes-webui-fnos</text>
<text x="1520" y="622" font-family="-apple-system,BlinkMacSystemFont,&quot;Segoe UI&quot;,&quot;Noto Sans CJK SC&quot;,&quot;PingFang SC&quot;,&quot;Microsoft YaHei&quot;,Helvetica,Arial,sans-serif" font-size="23" font-weight="700" fill="#fb923c" text-anchor="end">56</text>
<line x1="1088" y1="640" x2="1528" y2="640" stroke="#21262d" stroke-width="1"/>
<text x="1112" y="676" font-family="-apple-system,BlinkMacSystemFont,&quot;Segoe UI&quot;,&quot;Noto Sans CJK SC&quot;,&quot;PingFang SC&quot;,&quot;Microsoft YaHei&quot;,Helvetica,Arial,sans-serif" font-size="20" font-weight="400" fill="#8b949e" text-anchor="end">9</text>
<circle cx="1144" cy="670" r="7" fill="#818cf8"/>
<text x="1166" y="677" font-family="-apple-system,BlinkMacSystemFont,&quot;Segoe UI&quot;,&quot;Noto Sans CJK SC&quot;,&quot;PingFang SC&quot;,&quot;Microsoft YaHei&quot;,Helvetica,Arial,sans-serif" font-size="21" fill="#c9d1d9">yangyu-hermes-skills</text>
<text x="1520" y="678" font-family="-apple-system,BlinkMacSystemFont,&quot;Segoe UI&quot;,&quot;Noto Sans CJK SC&quot;,&quot;PingFang SC&quot;,&quot;Microsoft YaHei&quot;,Helvetica,Arial,sans-serif" font-size="23" font-weight="700" fill="#818cf8" text-anchor="end">51</text>
<line x1="1088" y1="696" x2="1528" y2="696" stroke="#21262d" stroke-width="1"/>
<text x="1112" y="732" font-family="-apple-system,BlinkMacSystemFont,&quot;Segoe UI&quot;,&quot;Noto Sans CJK SC&quot;,&quot;PingFang SC&quot;,&quot;Microsoft YaHei&quot;,Helvetica,Arial,sans-serif" font-size="20" font-weight="400" fill="#8b949e" text-anchor="end">10</text>
<circle cx="1144" cy="726" r="7" fill="#94a3b8"/>
<text x="1166" y="733" font-family="-apple-system,BlinkMacSystemFont,&quot;Segoe UI&quot;,&quot;Noto Sans CJK SC&quot;,&quot;PingFang SC&quot;,&quot;Microsoft YaHei&quot;,Helvetica,Arial,sans-serif" font-size="21" fill="#c9d1d9">hugo-blog-fnos</text>
<text x="1520" y="734" font-family="-apple-system,BlinkMacSystemFont,&quot;Segoe UI&quot;,&quot;Noto Sans CJK SC&quot;,&quot;PingFang SC&quot;,&quot;Microsoft YaHei&quot;,Helvetica,Arial,sans-serif" font-size="23" font-weight="700" fill="#94a3b8" text-anchor="end">50</text>
<text x="800" y="866" font-family="-apple-system,BlinkMacSystemFont,&quot;Segoe UI&quot;,&quot;Noto Sans CJK SC&quot;,&quot;PingFang SC&quot;,&quot;Microsoft YaHei&quot;,Helvetica,Arial,sans-serif" font-size="16" fill="#8b949e" text-anchor="middle">数据来自 GitHub API · 仅统计公开仓库 · 每日自动更新</text>
</svg>