<svg xmlns="http://www.w3.org/2000/svg" width="1600" height="900" viewBox="0 0 1600 900" role="img" aria-label="Commit Top 10, last 42 days">
<defs><linearGradient id="cardbg" x1="0" y1="0" x2="0" y2="1"><stop offset="0" stop-color="#ffffff"/><stop offset="1" stop-color="#f8fafc"/></linearGradient><linearGradient id="ls-0" x1="0" y1="0" x2="1" y2="0"><stop offset="0" stop-color="#e11d48" stop-opacity="0.25"/><stop offset="0.55" stop-color="#e11d48" stop-opacity="0.7"/><stop offset="1" stop-color="#e11d48"/></linearGradient><linearGradient id="as-0" x1="0" y1="0" x2="0" y2="1"><stop offset="0" stop-color="#e11d48" stop-opacity="0.1"/><stop offset="1" stop-color="#e11d48" stop-opacity="0"/></linearGradient><linearGradient id="ls-1" x1="0" y1="0" x2="1" y2="0"><stop offset="0" stop-color="#2563eb" stop-opacity="0.25"/><stop offset="0.55" stop-color="#2563eb" stop-opacity="0.7"/><stop offset="1" stop-color="#2563eb"/></linearGradient><linearGradient id="as-1" x1="0" y1="0" x2="0" y2="1"><stop offset="0" stop-color="#2563eb" stop-opacity="0.1"/><stop offset="1" stop-color="#2563eb" stop-opacity="0"/></linearGradient><linearGradient id="ls-2" x1="0" y1="0" x2="1" y2="0"><stop offset="0" stop-color="#059669" stop-opacity="0.25"/><stop offset="0.55" stop-color="#059669" stop-opacity="0.7"/><stop offset="1" stop-color="#059669"/></linearGradient><linearGradient id="as-2" x1="0" y1="0" x2="0" y2="1"><stop offset="0" stop-color="#059669" stop-opacity="0.1"/><stop offset="1" stop-color="#059669" stop-opacity="0"/></linearGradient><linearGradient id="ls-3" x1="0" y1="0" x2="1" y2="0"><stop offset="0" stop-color="#d97706" stop-opacity="0.25"/><stop offset="0.55" stop-color="#d97706" stop-opacity="0.7"/><stop offset="1" stop-color="#d97706"/></linearGradient><linearGradient id="as-3" x1="0" y1="0" x2="0" y2="1"><stop offset="0" stop-color="#d97706" stop-opacity="0.1"/><stop offset="1" stop-color="#d97706" stop-opacity="0"/></linearGradient><linearGradient id="ls-4" x1="0" y1="0" x2="1" y2="0"><stop offset="0" stop-color="#7c3aed" stop-opacity="0.25"/><stop offset="0.55" stop-color="#7c3aed" stop-opacity="0.7"/><stop offset="1" stop-color="#7c3aed"/></linearGradient><linearGradient id="as-4" x1="0" y1="0" x2="0" y2="1"><stop offset="0" stop-color="#7c3aed" stop-opacity="0.1"/><stop offset="1" stop-color="#7c3aed" stop-opacity="0"/></linearGradient><linearGradient id="ls-5" x1="0" y1="0" x2="1" y2="0"><stop offset="0" stop-color="#0891b2" stop-opacity="0.25"/><stop offset="0.55" stop-color="#0891b2" stop-opacity="0.7"/><stop offset="1" stop-color="#0891b2"/></linearGradient><linearGradient id="as-5" x1="0" y1="0" x2="0" y2="1"><stop offset="0" stop-color="#0891b2" stop-opacity="0.1"/><stop offset="1" stop-color="#0891b2" stop-opacity="0"/></linearGradient><linearGradient id="ls-6" x1="0" y1="0" x2="1" y2="0"><stop offset="0" stop-color="#db2777" stop-opacity="0.25"/><stop offset="0.55" stop-color="#db2777" stop-opacity="0.7"/><stop offset="1" stop-color="#db2777"/></linearGradient><linearGradient id="as-6" x1="0" y1="0" x2="0" y2="1"><stop offset="0" stop-color="#db2777" stop-opacity="0.1"/><stop offset="1" stop-color="#db2777" stop-opacity="0"/></linearGradient><linearGradient id="ls-7" x1="0" y1="0" x2="1" y2="0"><stop offset="0" stop-color="#ea580c" stop-opacity="0.25"/><stop offset="0.55" stop-color="#ea580c" stop-opacity="0.7"/><stop offset="1" stop-color="#ea580c"/></linearGradient><linearGradient id="as-7" x1="0" y1="0" x2="0" y2="1"><stop offset="0" stop-color="#ea580c" stop-opacity="0.1"/><stop offset="1" stop-color="#ea580c" stop-opacity="0"/></linearGradient><linearGradient id="ls-8" x1="0" y1="0" x2="1" y2="0"><stop offset="0" stop-color="#4f46e5" stop-opacity="0.25"/><stop offset="0.55" stop-color="#4f46e5" stop-opacity="0.7"/><stop offset="1" stop-color="#4f46e5"/></linearGradient><linearGradient id="as-8" x1="0" y1="0" x2="0" y2="1"><stop offset="0" stop-color="#4f46e5" stop-opacity="0.1"/><stop offset="1" stop-color="#4f46e5" stop-opacity="0"/></linearGradient><linearGradient id="ls-9" x1="0" y1="0" x2="1" y2="0"><stop offset="0" stop-color="#64748b" stop-opacity="0.25"/><stop offset="0.55" stop-color="#64748b" stop-opacity="0.7"/><stop offset="1" stop-color="#64748b"/></linearGradient><linearGradient id="as-9" x1="0" y1="0" x2="0" y2="1"><stop offset="0" stop-color="#64748b" stop-opacity="0.1"/><stop offset="1" stop-color="#64748b" stop-opacity="0"/></linearGradient></defs>
<rect width="1600" height="900" rx="16" fill="url(#cardbg)"/>
<rect x="0.75" y="0.75" width="1598.5" height="898.5" rx="16" fill="none" stroke="#e2e8f0" stroke-width="1.5"/>
<g stroke="#7c3aed" stroke-width="4" fill="none"><line x1="68" y1="76" x2="100" y2="76"/><circle cx="68" cy="76" r="7.5"/><circle cx="100" cy="76" r="7.5"/></g>
<text x="118" y="90" font-family="-apple-system,BlinkMacSystemFont,&quot;Segoe UI&quot;,&quot;Noto Sans CJK SC&quot;,&quot;PingFang SC&quot;,&quot;Microsoft YaHei&quot;,Helvetica,Arial,sans-serif" font-size="38" font-weight="700" fill="#0f172a">Commit Top 10</text>
<text x="118" y="128" font-family="-apple-system,BlinkMacSystemFont,&quot;Segoe UI&quot;,&quot;Noto Sans CJK SC&quot;,&quot;PingFang SC&quot;,&quot;Microsoft YaHei&quot;,Helvetica,Arial,sans-serif" font-size="21" fill="#64748b">2026.8.3 – 2026.9.14 · @techysy · 最近 42 天</text>
<text x="1536" y="90" font-family="-apple-system,BlinkMacSystemFont,&quot;Segoe UI&quot;,&quot;Noto Sans CJK SC&quot;,&quot;PingFang SC&quot;,&quot;Microsoft YaHei&quot;,Helvetica,Arial,sans-serif" font-size="18" fill="#64748b" text-anchor="end">生成于 2026-09-14</text>
<line x1="64" y1="152" x2="1536" y2="152" stroke="#f1f5f9" stroke-width="1.5"/>
<line x1="100" y1="776" x2="1016" y2="776" stroke="#cbd5e1" stroke-width="1.6"/>
<text x="84" y="782" font-family="-apple-system,BlinkMacSystemFont,&quot;Segoe UI&quot;,&quot;Noto Sans CJK SC&quot;,&quot;PingFang SC&quot;,&quot;Microsoft YaHei&quot;,Helvetica,Arial,sans-serif" font-size="19" fill="#64748b" text-anchor="end">0</text>
<line x1="100" y1="631" x2="1016" y2="631" stroke="#eef2f7" stroke-width="1"/>
<text x="84" y="637" font-family="-apple-system,BlinkMacSystemFont,&quot;Segoe UI&quot;,&quot;Noto Sans CJK SC&quot;,&quot;PingFang SC&quot;,&quot;Microsoft YaHei&quot;,Helvetica,Arial,sans-serif" font-size="19" fill="#64748b" text-anchor="end">200</text>
<line x1="100" y1="486" x2="1016" y2="486" stroke="#eef2f7" stroke-width="1"/>
<text x="84" y="492" font-family="-apple-system,BlinkMacSystemFont,&quot;Segoe UI&quot;,&quot;Noto Sans CJK SC&quot;,&quot;PingFang SC&quot;,&quot;Microsoft YaHei&quot;,Helvetica,Arial,sans-serif" font-size="19" fill="#64748b" text-anchor="end">400</text>
<line x1="100" y1="341" x2="1016" y2="341" stroke="#eef2f7" stroke-width="1"/>
<text x="84" y="347" font-family="-apple-system,BlinkMacSystemFont,&quot;Segoe UI&quot;,&quot;Noto Sans CJK SC&quot;,&quot;PingFang SC&quot;,&quot;Microsoft YaHei&quot;,Helvetica,Arial,sans-serif" font-size="19" fill="#64748b" text-anchor="end">600</text>
<line x1="100" y1="196" x2="1016" y2="196" stroke="#eef2f7" stroke-width="1"/>
<text x="84" y="202" font-family="-apple-system,BlinkMacSystemFont,&quot;Segoe UI&quot;,&quot;Noto Sans CJK SC&quot;,&quot;PingFang SC&quot;,&quot;Microsoft YaHei&quot;,Helvetica,Arial,sans-serif" font-size="19" fill="#64748b" text-anchor="end">800</text>
<text x="100" y="180" font-family="-apple-system,BlinkMacSystemFont,&quot;Segoe UI&quot;,&quot;Noto Sans CJK SC&quot;,&quot;PingFang SC&quot;,&quot;Microsoft YaHei&quot;,Helvetica,Arial,sans-serif" font-size="18" fill="#64748b">Commits</text>
<text x="100" y="808" font-family="-apple-system,BlinkMacSystemFont,&quot;Segoe UI&quot;,&quot;Noto Sans CJK SC&quot;,&quot;PingFang SC&quot;,&quot;Microsoft YaHei&quot;,Helvetica,Arial,sans-serif" font-size="19" fill="#64748b" text-anchor="middle">8.3</text>
<text x="252.66666666666666" y="808" font-family="-apple-system,BlinkMacSystemFont,&quot;Segoe UI&quot;,&quot;Noto Sans CJK SC&quot;,&quot;PingFang SC&quot;,&quot;Microsoft YaHei&quot;,Helvetica,Arial,sans-serif" font-size="19" fill="#64748b" text-anchor="middle">8.10</text>
<text x="405.3333333333333" y="808" font-family="-apple-system,BlinkMacSystemFont,&quot;Segoe UI&quot;,&quot;Noto Sans CJK SC&quot;,&quot;PingFang SC&quot;,&quot;Microsoft YaHei&quot;,Helvetica,Arial,sans-serif" font-size="19" fill="#64748b" text-anchor="middle">8.17</text>
<text x="558" y="808" font-family="-apple-system,BlinkMacSystemFont,&quot;Segoe UI&quot;,&quot;Noto Sans CJK SC&quot;,&quot;PingFang SC&quot;,&quot;Microsoft YaHei&quot;,Helvetica,Arial,sans-serif" font-size="19" fill="#64748b" text-anchor="middle">8.24</text>
<text x="710.6666666666666" y="808" font-family="-apple-system,BlinkMacSystemFont,&quot;Segoe UI&quot;,&quot;Noto Sans CJK SC&quot;,&quot;PingFang SC&quot;,&quot;Microsoft YaHei&quot;,Helvetica,Arial,sans-serif" font-size="19" fill="#64748b" text-anchor="middle">8.31</text>
<text x="863.3333333333334" y="808" font-family="-apple-system,BlinkMacSystemFont,&quot;Segoe UI&quot;,&quot;Noto Sans CJK SC&quot;,&quot;PingFang SC&quot;,&quot;Microsoft YaHei&quot;,Helvetica,Arial,sans-serif" font-size="19" fill="#64748b" text-anchor="middle">9.7</text>
<text x="1016" y="808" font-family="-apple-system,BlinkMacSystemFont,&quot;Segoe UI&quot;,&quot;Noto Sans CJK SC&quot;,&quot;PingFang SC&quot;,&quot;Microsoft YaHei&quot;,Helvetica,Arial,sans-serif" font-size="19" fill="#64748b" text-anchor="middle">9.14</text>
<path d="M100.0,776.0C107.3,776.0 114.5,776.0 121.8,776.0C129.1,776.0 136.3,776.0 143.6,776.0C150.9,776.0 158.2,776.0 165.4,776.0C172.7,776.0 180.0,776.0 187.2,776.0C194.5,776.0 201.8,776.0 209.0,776.0C216.3,776.0 223.6,776.0 230.9,776.0C238.1,776.0 245.4,776.0 252.7,776.0C259.9,776.0 267.2,776.0 274.5,776.0C281.7,776.0 289.0,776.0 296.3,776.0C303.6,776.0 310.8,776.0 318.1,776.0C325.4,776.0 332.6,776.0 339.9,776.0C347.2,776.0 354.4,776.0 361.7,776.0C369.0,776.0 376.3,762.2 383.5,762.2C390.8,762.2 398.1,762.2 405.3,762.2C412.6,762.2 419.9,762.2 427.1,762.2C434.4,762.2 441.7,762.2 449.0,762.2C456.2,762.2 463.5,762.2 470.8,762.2C478.0,762.2 485.3,761.7 492.6,761.5C499.8,761.3 507.1,760.8 514.4,760.8C521.7,760.8 528.9,760.8 536.2,760.8C543.5,760.8 550.7,759.3 558.0,759.3C565.3,759.3 572.5,759.3 579.8,759.3C587.1,759.3 594.3,759.3 601.6,759.3C608.9,759.3 616.2,758.6 623.4,758.6C630.7,758.6 638.0,758.6 645.2,758.6C652.5,758.6 659.8,758.6 667.0,758.6C674.3,758.6 681.6,758.6 688.9,758.6C696.1,758.6 703.4,758.6 710.7,758.6C717.9,758.6 725.2,758.6 732.5,758.6C739.7,758.6 747.0,755.7 754.3,755.7C761.6,755.7 768.8,755.7 776.1,755.7C783.4,755.7 790.6,755.7 797.9,755.7C805.2,755.7 812.4,754.7 819.7,754.3C827.0,753.8 834.3,752.8 841.5,752.8C848.8,752.8 856.1,752.8 863.3,752.8C870.6,752.8 877.9,750.6 885.1,749.9C892.4,749.2 899.7,748.5 907.0,748.5C914.2,748.5 921.5,748.5 928.8,748.5C936.0,748.5 943.3,748.5 950.6,748.5C957.8,748.5 965.1,741.2 972.4,741.2C979.7,741.2 986.9,741.2 994.2,741.2C1001.5,741.2 1008.7,740.7 1016.0,740.5L1016.0,776 L100.0,776 Z" fill="url(#as-9)" stroke="none"/>
<path d="M100.0,776.0C107.3,776.0 114.5,776.0 121.8,776.0C129.1,776.0 136.3,776.0 143.6,776.0C150.9,776.0 158.2,776.0 165.4,776.0C172.7,776.0 180.0,776.0 187.2,776.0C194.5,776.0 201.8,776.0 209.0,772.4C216.3,768.8 223.6,742.6 230.9,741.9C238.1,741.2 245.4,741.2 252.7,741.2C259.9,741.2 267.2,741.2 274.5,741.2C281.7,741.2 289.0,741.2 296.3,741.2C303.6,741.2 310.8,741.2 318.1,741.2C325.4,741.2 332.6,741.2 339.9,741.2C347.2,741.2 354.4,741.2 361.7,741.2C369.0,741.2 376.3,739.8 383.5,739.8C390.8,739.8 398.1,739.8 405.3,739.8C412.6,739.8 419.9,739.8 427.1,739.8C434.4,739.8 441.7,739.8 449.0,739.8C456.2,739.8 463.5,739.8 470.8,739.8C478.0,739.8 485.3,739.8 492.6,739.8C499.8,739.8 507.1,739.8 514.4,739.8C521.7,739.8 528.9,739.8 536.2,739.8C543.5,739.8 550.7,739.8 558.0,739.8C565.3,739.8 572.5,739.8 579.8,739.8C587.1,739.8 594.3,739.8 601.6,739.8C608.9,739.8 616.2,739.8 623.4,739.8C630.7,739.8 638.0,739.8 645.2,739.8C652.5,739.8 659.8,739.8 667.0,739.8C674.3,739.8 681.6,739.8 688.9,739.8C696.1,739.8 703.4,739.8 710.7,739.8C717.9,739.8 725.2,739.8 732.5,739.8C739.7,739.8 747.0,739.8 754.3,739.8C761.6,739.8 768.8,739.8 776.1,739.8C783.4,739.8 790.6,739.8 797.9,739.8C805.2,739.8 812.4,739.8 819.7,739.8C827.0,739.8 834.3,739.8 841.5,739.8C848.8,739.8 856.1,739.8 863.3,739.8C870.6,739.8 877.9,739.8 885.1,739.8C892.4,739.8 899.7,739.8 907.0,739.8C914.2,739.8 921.5,739.8 928.8,739.8C936.0,739.8 943.3,739.8 950.6,739.8C957.8,739.8 965.1,739.8 972.4,739.8C979.7,739.8 986.9,739.8 994.2,739.8C1001.5,739.8 1008.7,739.8 1016.0,739.8L1016.0,776 L100.0,776 Z" fill="url(#as-8)" stroke="none"/>
<path d="M100.0,776.0C107.3,775.0 114.5,774.1 121.8,773.1C129.1,772.1 136.3,770.9 143.6,770.2C150.9,769.5 158.2,768.8 165.4,768.8C172.7,768.8 180.0,768.8 187.2,768.8C194.5,768.8 201.8,763.3 209.0,761.5C216.3,759.7 223.6,757.9 230.9,757.9C238.1,757.9 245.4,757.9 252.7,757.9C259.9,757.9 267.2,757.9 274.5,757.9C281.7,757.9 289.0,757.9 296.3,757.9C303.6,757.9 310.8,756.4 318.1,756.4C325.4,756.4 332.6,756.4 339.9,756.4C347.2,756.4 354.4,747.7 361.7,747.7C369.0,747.7 376.3,747.7 383.5,747.7C390.8,747.7 398.1,747.0 405.3,747.0C412.6,747.0 419.9,747.0 427.1,747.0C434.4,747.0 441.7,745.2 449.0,744.1C456.2,743.0 463.5,740.5 470.8,740.5C478.0,740.5 485.3,740.5 492.6,740.5C499.8,740.5 507.1,740.5 514.4,740.5C521.7,740.5 528.9,740.5 536.2,740.5C543.5,740.5 550.7,740.5 558.0,740.5C565.3,740.5 572.5,740.5 579.8,740.5C587.1,740.5 594.3,740.5 601.6,740.5C608.9,740.5 616.2,739.0 623.4,739.0C630.7,739.0 638.0,739.0 645.2,739.0C652.5,739.0 659.8,739.0 667.0,739.0C674.3,739.0 681.6,739.0 688.9,739.0C696.1,739.0 703.4,739.0 710.7,739.0C717.9,739.0 725.2,739.0 732.5,739.0C739.7,739.0 747.0,739.0 754.3,739.0C761.6,739.0 768.8,739.0 776.1,739.0C783.4,739.0 790.6,739.0 797.9,739.0C805.2,739.0 812.4,739.0 819.7,739.0C827.0,739.0 834.3,739.0 841.5,739.0C848.8,739.0 856.1,739.0 863.3,739.0C870.6,739.0 877.9,739.0 885.1,739.0C892.4,739.0 899.7,739.0 907.0,739.0C914.2,739.0 921.5,739.0 928.8,739.0C936.0,739.0 943.3,739.0 950.6,739.0C957.8,739.0 965.1,739.0 972.4,739.0C979.7,739.0 986.9,739.0 994.2,739.0C1001.5,739.0 1008.7,739.0 1016.0,739.0L1016.0,776 L100.0,776 Z" fill="url(#as-7)" stroke="none"/>
<path d="M100.0,776.0C107.3,775.8 114.5,775.3 121.8,775.3C129.1,775.3 136.3,775.3 143.6,775.3C150.9,775.3 158.2,775.3 165.4,775.3C172.7,775.3 180.0,775.3 187.2,775.3C194.5,775.3 201.8,771.6 209.0,771.6C216.3,771.6 223.6,771.6 230.9,771.6C238.1,771.6 245.4,750.6 252.7,749.2C259.9,747.7 267.2,747.7 274.5,747.7C281.7,747.7 289.0,747.7 296.3,747.7C303.6,747.7 310.8,747.7 318.1,747.7C325.4,747.7 332.6,747.7 339.9,747.7C347.2,747.7 354.4,747.7 361.7,747.7C369.0,747.7 376.3,747.7 383.5,747.7C390.8,747.7 398.1,747.7 405.3,747.7C412.6,747.7 419.9,747.7 427.1,747.7C434.4,747.7 441.7,747.7 449.0,747.7C456.2,747.7 463.5,747.7 470.8,747.7C478.0,747.7 485.3,747.7 492.6,747.7C499.8,747.7 507.1,747.7 514.4,747.7C521.7,747.7 528.9,747.7 536.2,747.7C543.5,747.7 550.7,747.7 558.0,747.7C565.3,747.7 572.5,747.7 579.8,747.7C587.1,747.7 594.3,747.7 601.6,747.7C608.9,747.7 616.2,747.7 623.4,747.7C630.7,747.7 638.0,747.7 645.2,747.7C652.5,747.7 659.8,747.7 667.0,747.7C674.3,747.7 681.6,747.7 688.9,747.7C696.1,747.7 703.4,747.7 710.7,747.7C717.9,747.7 725.2,747.7 732.5,747.7C739.7,747.7 747.0,747.4 754.3,744.8C761.6,742.3 768.8,732.5 776.1,732.5C783.4,732.5 790.6,732.5 797.9,732.5C805.2,732.5 812.4,732.5 819.7,732.5C827.0,732.5 834.3,732.5 841.5,732.5C848.8,732.5 856.1,732.5 863.3,732.5C870.6,732.5 877.9,732.5 885.1,732.5C892.4,732.5 899.7,732.5 907.0,732.5C914.2,732.5 921.5,732.5 928.8,732.5C936.0,732.5 943.3,732.5 950.6,732.5C957.8,732.5 965.1,732.5 972.4,732.5C979.7,732.5 986.9,732.5 994.2,732.5C1001.5,732.5 1008.7,732.5 1016.0,732.5L1016.0,776 L100.0,776 Z" fill="url(#as-6)" stroke="none"/>
<path d="M100.0,776.0C107.3,776.0 114.5,776.0 121.8,776.0C129.1,776.0 136.3,776.0 143.6,776.0C150.9,776.0 158.2,776.0 165.4,776.0C172.7,776.0 180.0,776.0 187.2,776.0C194.5,776.0 201.8,776.0 209.0,776.0C216.3,776.0 223.6,776.0 230.9,776.0C238.1,776.0 245.4,776.0 252.7,776.0C259.9,776.0 267.2,753.5 274.5,752.8C281.7,752.1 289.0,752.1 296.3,752.1C303.6,752.0 310.8,751.4 318.1,751.4C325.4,751.4 332.6,751.4 339.9,751.4C347.2,751.4 354.4,751.4 361.7,751.4C369.0,751.4 376.3,751.4 383.5,751.4C390.8,751.4 398.1,751.4 405.3,749.9C412.6,748.4 419.9,741.9 427.1,741.9C434.4,741.9 441.7,741.9 449.0,741.9C456.2,741.9 463.5,741.9 470.8,741.9C478.0,741.9 485.3,741.9 492.6,741.9C499.8,741.9 507.1,741.9 514.4,741.9C521.7,741.9 528.9,741.9 536.2,741.9C543.5,741.9 550.7,741.9 558.0,741.9C565.3,741.9 572.5,737.6 579.8,737.6C587.1,737.6 594.3,737.6 601.6,737.6C608.9,737.6 616.2,737.6 623.4,737.6C630.7,737.6 638.0,737.6 645.2,737.6C652.5,737.6 659.8,737.6 667.0,737.6C674.3,737.6 681.6,737.6 688.9,737.6C696.1,737.6 703.4,737.6 710.7,737.6C717.9,737.6 725.2,737.6 732.5,736.9C739.7,736.1 747.0,731.0 754.3,731.0C761.6,731.0 768.8,731.0 776.1,731.0C783.4,731.0 790.6,731.0 797.9,731.0C805.2,731.0 812.4,731.0 819.7,731.0C827.0,731.0 834.3,731.0 841.5,731.0C848.8,731.0 856.1,731.0 863.3,731.0C870.6,731.0 877.9,731.0 885.1,731.0C892.4,731.0 899.7,731.0 907.0,731.0C914.2,731.0 921.5,731.0 928.8,731.0C936.0,731.0 943.3,731.0 950.6,731.0C957.8,731.0 965.1,731.0 972.4,731.0C979.7,731.0 986.9,731.0 994.2,731.0C1001.5,731.0 1008.7,731.0 1016.0,731.0L1016.0,776 L100.0,776 Z" fill="url(#as-5)" stroke="none"/>
<path d="M100.0,751.4C107.3,748.9 114.5,749.5 121.8,744.1C129.1,738.7 136.3,718.7 143.6,718.7C150.9,718.7 158.2,718.7 165.4,718.7C172.7,718.7 180.0,718.7 187.2,718.7C194.5,718.7 201.8,718.7 209.0,718.7C216.3,718.7 223.6,718.7 230.9,718.7C238.1,718.7 245.4,716.9 252.7,716.5C259.9,716.2 267.2,716.5 274.5,715.8C281.7,715.2 289.0,711.5 296.3,711.5C303.6,711.5 310.8,711.5 318.1,711.5C325.4,711.5 332.6,711.5 339.9,711.5C347.2,711.5 354.4,711.5 361.7,711.5C369.0,711.5 376.3,711.5 383.5,711.5C390.8,711.5 398.1,711.5 405.3,711.5C412.6,711.5 419.9,711.5 427.1,711.5C434.4,711.5 441.7,711.5 449.0,711.5C456.2,711.5 463.5,711.5 470.8,711.5C478.0,711.5 485.3,711.5 492.6,711.5C499.8,711.5 507.1,711.5 514.4,711.5C521.7,711.5 528.9,711.5 536.2,711.5C543.5,711.5 550.7,711.5 558.0,711.5C565.3,711.5 572.5,711.5 579.8,711.5C587.1,711.5 594.3,711.5 601.6,711.5C608.9,711.5 616.2,711.5 623.4,711.5C630.7,711.5 638.0,711.5 645.2,711.5C652.5,711.5 659.8,711.5 667.0,711.5C674.3,711.5 681.6,711.5 688.9,711.5C696.1,711.5 703.4,711.5 710.7,711.5C717.9,711.5 725.2,711.5 732.5,711.5C739.7,711.5 747.0,711.5 754.3,711.5C761.6,711.5 768.8,711.5 776.1,711.5C783.4,711.5 790.6,711.5 797.9,711.5C805.2,711.5 812.4,711.5 819.7,711.5C827.0,711.5 834.3,711.5 841.5,711.5C848.8,711.5 856.1,711.5 863.3,711.5C870.6,711.5 877.9,711.5 885.1,711.5C892.4,711.5 899.7,711.5 907.0,711.5C914.2,711.5 921.5,711.5 928.8,711.5C936.0,711.5 943.3,711.5 950.6,711.5C957.8,711.5 965.1,711.5 972.4,711.5C979.7,711.5 986.9,711.5 994.2,711.5C1001.5,711.5 1008.7,711.5 1016.0,711.5L1016.0,776 L100.0,776 Z" fill="url(#as-4)" stroke="none"/>
<path d="M100.0,776.0C107.3,776.0 114.5,776.0 121.8,776.0C129.1,776.0 136.3,776.0 143.6,776.0C150.9,776.0 158.2,776.0 165.4,776.0C172.7,776.0 180.0,776.0 187.2,776.0C194.5,776.0 201.8,776.0 209.0,776.0C216.3,776.0 223.6,776.0 230.9,776.0C238.1,776.0 245.4,776.0 252.7,776.0C259.9,776.0 267.2,776.0 274.5,776.0C281.7,776.0 289.0,776.0 296.3,776.0C303.6,776.0 310.8,776.0 318.1,776.0C325.4,776.0 332.6,776.0 339.9,776.0C347.2,776.0 354.4,776.0 361.7,776.0C369.0,776.0 376.3,776.0 383.5,776.0C390.8,776.0 398.1,776.0 405.3,776.0C412.6,776.0 419.9,776.0 427.1,776.0C434.4,776.0 441.7,776.0 449.0,776.0C456.2,776.0 463.5,776.0 470.8,776.0C478.0,776.0 485.3,776.0 492.6,776.0C499.8,776.0 507.1,776.0 514.4,776.0C521.7,776.0 528.9,776.0 536.2,776.0C543.5,776.0 550.7,776.0 558.0,776.0C565.3,776.0 572.5,776.0 579.8,776.0C587.1,776.0 594.3,776.0 601.6,776.0C608.9,776.0 616.2,776.0 623.4,776.0C630.7,776.0 638.0,776.0 645.2,776.0C652.5,776.0 659.8,776.0 667.0,776.0C674.3,776.0 681.6,776.0 688.9,776.0C696.1,776.0 703.4,776.0 710.7,776.0C717.9,776.0 725.2,776.0 732.5,776.0C739.7,776.0 747.0,776.0 754.3,776.0C761.6,776.0 768.8,776.0 776.1,776.0C783.4,776.0 790.6,776.0 797.9,776.0C805.2,776.0 812.4,776.0 819.7,776.0C827.0,776.0 834.3,763.7 841.5,760.0C848.8,756.4 856.1,754.3 863.3,754.3C870.6,754.3 877.9,754.3 885.1,754.3C892.4,754.3 899.7,754.3 907.0,754.3C914.2,754.3 921.5,754.3 928.8,754.3C936.0,754.3 943.3,754.3 950.6,754.3C957.8,754.3 965.1,748.6 972.4,741.2C979.7,733.8 986.9,710.7 994.2,710.0C1001.5,709.3 1008.7,709.3 1016.0,709.3L1016.0,776 L100.0,776 Z" fill="url(#as-3)" stroke="none"/>
<path d="M100.0,776.0C107.3,776.0 114.5,776.0 121.8,776.0C129.1,776.0 136.3,776.0 143.6,776.0C150.9,776.0 158.2,776.0 165.4,776.0C172.7,776.0 180.0,776.0 187.2,776.0C194.5,776.0 201.8,776.0 209.0,776.0C216.3,776.0 223.6,776.0 230.9,776.0C238.1,776.0 245.4,776.0 252.7,776.0C259.9,776.0 267.2,776.0 274.5,776.0C281.7,776.0 289.0,776.0 296.3,776.0C303.6,776.0 310.8,776.0 318.1,776.0C325.4,776.0 332.6,776.0 339.9,776.0C347.2,776.0 354.4,776.0 361.7,776.0C369.0,776.0 376.3,776.0 383.5,776.0C390.8,776.0 398.1,776.0 405.3,776.0C412.6,776.0 419.9,776.0 427.1,776.0C434.4,776.0 441.7,776.0 449.0,776.0C456.2,776.0 463.5,776.0 470.8,776.0C478.0,776.0 485.3,754.1 492.6,747.0C499.8,739.9 507.1,737.1 514.4,733.2C521.7,729.4 528.9,726.6 536.2,723.8C543.5,721.0 550.7,716.5 558.0,716.5C565.3,716.5 572.5,716.5 579.8,716.5C587.1,716.5 594.3,716.5 601.6,716.5C608.9,716.5 616.2,715.8 623.4,715.8C630.7,715.8 638.0,715.8 645.2,715.8C652.5,715.8 659.8,715.8 667.0,715.8C674.3,715.8 681.6,715.8 688.9,715.8C696.1,715.8 703.4,715.8 710.7,715.8C717.9,715.8 725.2,715.8 732.5,715.8C739.7,715.8 747.0,715.8 754.3,715.8C761.6,715.8 768.8,715.8 776.1,715.8C783.4,715.8 790.6,715.8 797.9,715.8C805.2,715.8 812.4,714.4 819.7,713.6C827.0,712.9 834.3,712.1 841.5,711.5C848.8,710.9 856.1,710.0 863.3,710.0C870.6,710.0 877.9,710.0 885.1,710.0C892.4,710.0 899.7,710.0 907.0,710.0C914.2,710.0 921.5,710.0 928.8,710.0C936.0,710.0 943.3,708.8 950.6,707.9C957.8,706.9 965.1,704.2 972.4,704.2C979.7,704.2 986.9,704.2 994.2,704.2C1001.5,704.2 1008.7,704.2 1016.0,704.2L1016.0,776 L100.0,776 Z" fill="url(#as-2)" stroke="none"/>
<path d="M100.0,776.0C107.3,776.0 114.5,776.0 121.8,776.0C129.1,776.0 136.3,776.0 143.6,776.0C150.9,776.0 158.2,776.0 165.4,776.0C172.7,776.0 180.0,776.0 187.2,776.0C194.5,776.0 201.8,776.0 209.0,776.0C216.3,776.0 223.6,776.0 230.9,776.0C238.1,776.0 245.4,776.0 252.7,776.0C259.9,776.0 267.2,776.0 274.5,776.0C281.7,776.0 289.0,776.0 296.3,776.0C303.6,776.0 310.8,774.7 318.1,768.0C325.4,761.4 332.6,742.6 339.9,736.1C347.2,729.6 354.4,730.7 361.7,728.9C369.0,727.1 376.3,726.1 383.5,725.3C390.8,724.4 398.1,723.9 405.3,723.8C412.6,723.7 419.9,723.8 427.1,723.1C434.4,722.4 441.7,710.0 449.0,707.9C456.2,705.7 463.5,705.7 470.8,705.7C478.0,705.7 485.3,705.7 492.6,705.7C499.8,705.7 507.1,702.0 514.4,702.0C521.7,702.0 528.9,702.0 536.2,702.0C543.5,702.0 550.7,702.0 558.0,702.0C565.3,702.0 572.5,702.0 579.8,702.0C587.1,702.0 594.3,702.0 601.6,702.0C608.9,702.0 616.2,702.0 623.4,702.0C630.7,702.0 638.0,702.0 645.2,702.0C652.5,702.0 659.8,702.0 667.0,702.0C674.3,702.0 681.6,702.0 688.9,702.0C696.1,702.0 703.4,702.0 710.7,702.0C717.9,702.0 725.2,702.0 732.5,702.0C739.7,702.0 747.0,702.0 754.3,702.0C761.6,702.0 768.8,702.0 776.1,702.0C783.4,702.0 790.6,702.0 797.9,702.0C805.2,702.0 812.4,702.0 819.7,702.0C827.0,702.0 834.3,694.8 841.5,694.8C848.8,694.8 856.1,694.8 863.3,694.8C870.6,694.8 877.9,694.1 885.1,694.1C892.4,694.1 899.7,694.1 907.0,694.1C914.2,694.1 921.5,694.1 928.8,693.4C936.0,692.6 943.3,689.7 950.6,688.3C957.8,686.8 965.1,684.6 972.4,684.6C979.7,684.6 986.9,684.6 994.2,684.6C1001.5,684.6 1008.7,683.7 1016.0,683.2L1016.0,776 L100.0,776 Z" fill="url(#as-1)" stroke="none"/>
<path d="M100.0,776.0C107.3,776.0 114.5,776.0 121.8,776.0C129.1,776.0 136.3,776.0 143.6,776.0C150.9,776.0 158.2,776.0 165.4,775.3C172.7,774.5 180.0,770.2 187.2,770.2C194.5,770.2 201.8,770.2 209.0,770.2C216.3,770.2 223.6,770.2 230.9,770.2C238.1,770.2 245.4,770.2 252.7,770.2C259.9,770.2 267.2,770.2 274.5,770.2C281.7,770.2 289.0,770.2 296.3,770.2C303.6,770.2 310.8,769.5 318.1,769.5C325.4,769.5 332.6,769.5 339.9,769.5C347.2,769.5 354.4,769.5 361.7,769.5C369.0,769.5 376.3,769.5 383.5,769.5C390.8,769.5 398.1,769.5 405.3,769.5C412.6,769.5 419.9,769.5 427.1,769.5C434.4,769.5 441.7,769.5 449.0,769.5C456.2,769.5 463.5,769.5 470.8,769.5C478.0,769.5 485.3,768.8 492.6,768.8C499.8,768.8 507.1,768.8 514.4,768.8C521.7,768.8 528.9,768.8 536.2,768.0C543.5,767.3 550.7,764.3 558.0,762.2C565.3,760.2 572.5,759.2 579.8,755.7C587.1,752.2 594.3,746.4 601.6,741.2C608.9,736.0 616.2,730.4 623.4,724.5C630.7,718.6 638.0,712.4 645.2,705.7C652.5,698.9 659.8,686.1 667.0,683.9C674.3,681.8 681.6,683.4 688.9,679.6C696.1,675.8 703.4,648.3 710.7,637.5C717.9,626.8 725.2,617.8 732.5,615.0C739.7,612.3 747.0,613.7 754.3,611.4C761.6,609.1 768.8,598.7 776.1,593.3C783.4,587.9 790.6,582.4 797.9,578.8C805.2,575.2 812.4,574.3 819.7,571.5C827.0,568.8 834.3,565.4 841.5,562.1C848.8,558.9 856.1,554.8 863.3,552.0C870.6,549.2 877.9,548.0 885.1,545.5C892.4,542.9 899.7,541.7 907.0,536.8C914.2,531.8 921.5,526.6 928.8,515.7C936.0,504.9 943.3,485.2 950.6,471.5C957.8,457.8 965.1,443.5 972.4,433.8C979.7,424.1 986.9,416.3 994.2,413.5C1001.5,410.7 1008.7,411.3 1016.0,410.6L1016.0,776 L100.0,776 Z" fill="url(#as-0)" stroke="none"/>
<path d="M100.0,776.0C107.3,776.0 114.5,776.0 121.8,776.0C129.1,776.0 136.3,776.0 143.6,776.0C150.9,776.0 158.2,776.0 165.4,776.0C172.7,776.0 180.0,776.0 187.2,776.0C194.5,776.0 201.8,776.0 209.0,776.0C216.3,776.0 223.6,776.0 230.9,776.0C238.1,776.0 245.4,776.0 252.7,776.0C259.9,776.0 267.2,776.0 274.5,776.0C281.7,776.0 289.0,776.0 296.3,776.0C303.6,776.0 310.8,776.0 318.1,776.0C325.4,776.0 332.6,776.0 339.9,776.0C347.2,776.0 354.4,776.0 361.7,776.0C369.0,776.0 376.3,762.2 383.5,762.2C390.8,762.2 398.1,762.2 405.3,762.2C412.6,762.2 419.9,762.2 427.1,762.2C434.4,762.2 441.7,762.2 449.0,762.2C456.2,762.2 463.5,762.2 470.8,762.2C478.0,762.2 485.3,761.7 492.6,761.5C499.8,761.3 507.1,760.8 514.4,760.8C521.7,760.8 528.9,760.8 536.2,760.8C543.5,760.8 550.7,759.3 558.0,759.3C565.3,759.3 572.5,759.3 579.8,759.3C587.1,759.3 594.3,759.3 601.6,759.3C608.9,759.3 616.2,758.6 623.4,758.6C630.7,758.6 638.0,758.6 645.2,758.6C652.5,758.6 659.8,758.6 667.0,758.6C674.3,758.6 681.6,758.6 688.9,758.6C696.1,758.6 703.4,758.6 710.7,758.6C717.9,758.6 725.2,758.6 732.5,758.6C739.7,758.6 747.0,755.7 754.3,755.7C761.6,755.7 768.8,755.7 776.1,755.7C783.4,755.7 790.6,755.7 797.9,755.7C805.2,755.7 812.4,754.7 819.7,754.3C827.0,753.8 834.3,752.8 841.5,752.8C848.8,752.8 856.1,752.8 863.3,752.8C870.6,752.8 877.9,750.6 885.1,749.9C892.4,749.2 899.7,748.5 907.0,748.5C914.2,748.5 921.5,748.5 928.8,748.5C936.0,748.5 943.3,748.5 950.6,748.5C957.8,748.5 965.1,741.2 972.4,741.2C979.7,741.2 986.9,741.2 994.2,741.2C1001.5,741.2 1008.7,740.7 1016.0,740.5" fill="none" stroke="url(#ls-9)" stroke-width="3.5" stroke-linecap="round"/>
<circle cx="1016" cy="740.475" r="9" fill="#64748b" fill-opacity="0.22"/>
<circle cx="1016" cy="740.475" r="4.5" fill="#64748b"/>
<path d="M100.0,776.0C107.3,776.0 114.5,776.0 121.8,776.0C129.1,776.0 136.3,776.0 143.6,776.0C150.9,776.0 158.2,776.0 165.4,776.0C172.7,776.0 180.0,776.0 187.2,776.0C194.5,776.0 201.8,776.0 209.0,772.4C216.3,768.8 223.6,742.6 230.9,741.9C238.1,741.2 245.4,741.2 252.7,741.2C259.9,741.2 267.2,741.2 274.5,741.2C281.7,741.2 289.0,741.2 296.3,741.2C303.6,741.2 310.8,741.2 318.1,741.2C325.4,741.2 332.6,741.2 339.9,741.2C347.2,741.2 354.4,741.2 361.7,741.2C369.0,741.2 376.3,739.8 383.5,739.8C390.8,739.8 398.1,739.8 405.3,739.8C412.6,739.8 419.9,739.8 427.1,739.8C434.4,739.8 441.7,739.8 449.0,739.8C456.2,739.8 463.5,739.8 470.8,739.8C478.0,739.8 485.3,739.8 492.6,739.8C499.8,739.8 507.1,739.8 514.4,739.8C521.7,739.8 528.9,739.8 536.2,739.8C543.5,739.8 550.7,739.8 558.0,739.8C565.3,739.8 572.5,739.8 579.8,739.8C587.1,739.8 594.3,739.8 601.6,739.8C608.9,739.8 616.2,739.8 623.4,739.8C630.7,739.8 638.0,739.8 645.2,739.8C652.5,739.8 659.8,739.8 667.0,739.8C674.3,739.8 681.6,739.8 688.9,739.8C696.1,739.8 703.4,739.8 710.7,739.8C717.9,739.8 725.2,739.8 732.5,739.8C739.7,739.8 747.0,739.8 754.3,739.8C761.6,739.8 768.8,739.8 776.1,739.8C783.4,739.8 790.6,739.8 797.9,739.8C805.2,739.8 812.4,739.8 819.7,739.8C827.0,739.8 834.3,739.8 841.5,739.8C848.8,739.8 856.1,739.8 863.3,739.8C870.6,739.8 877.9,739.8 885.1,739.8C892.4,739.8 899.7,739.8 907.0,739.8C914.2,739.8 921.5,739.8 928.8,739.8C936.0,739.8 943.3,739.8 950.6,739.8C957.8,739.8 965.1,739.8 972.4,739.8C979.7,739.8 986.9,739.8 994.2,739.8C1001.5,739.8 1008.7,739.8 1016.0,739.8" fill="none" stroke="url(#ls-8)" stroke-width="3.5" stroke-linecap="round"/>
<circle cx="1016" cy="739.75" r="9" fill="#4f46e5" fill-opacity="0.22"/>
<circle cx="1016" cy="739.75" r="4.5" fill="#4f46e5"/>
<path d="M100.0,776.0C107.3,775.0 114.5,774.1 121.8,773.1C129.1,772.1 136.3,770.9 143.6,770.2C150.9,769.5 158.2,768.8 165.4,768.8C172.7,768.8 180.0,768.8 187.2,768.8C194.5,768.8 201.8,763.3 209.0,761.5C216.3,759.7 223.6,757.9 230.9,757.9C238.1,757.9 245.4,757.9 252.7,757.9C259.9,757.9 267.2,757.9 274.5,757.9C281.7,757.9 289.0,757.9 296.3,757.9C303.6,757.9 310.8,756.4 318.1,756.4C325.4,756.4 332.6,756.4 339.9,756.4C347.2,756.4 354.4,747.7 361.7,747.7C369.0,747.7 376.3,747.7 383.5,747.7C390.8,747.7 398.1,747.0 405.3,747.0C412.6,747.0 419.9,747.0 427.1,747.0C434.4,747.0 441.7,745.2 449.0,744.1C456.2,743.0 463.5,740.5 470.8,740.5C478.0,740.5 485.3,740.5 492.6,740.5C499.8,740.5 507.1,740.5 514.4,740.5C521.7,740.5 528.9,740.5 536.2,740.5C543.5,740.5 550.7,740.5 558.0,740.5C565.3,740.5 572.5,740.5 579.8,740.5C587.1,740.5 594.3,740.5 601.6,740.5C608.9,740.5 616.2,739.0 623.4,739.0C630.7,739.0 638.0,739.0 645.2,739.0C652.5,739.0 659.8,739.0 667.0,739.0C674.3,739.0 681.6,739.0 688.9,739.0C696.1,739.0 703.4,739.0 710.7,739.0C717.9,739.0 725.2,739.0 732.5,739.0C739.7,739.0 747.0,739.0 754.3,739.0C761.6,739.0 768.8,739.0 776.1,739.0C783.4,739.0 790.6,739.0 797.9,739.0C805.2,739.0 812.4,739.0 819.7,739.0C827.0,739.0 834.3,739.0 841.5,739.0C848.8,739.0 856.1,739.0 863.3,739.0C870.6,739.0 877.9,739.0 885.1,739.0C892.4,739.0 899.7,739.0 907.0,739.0C914.2,739.0 921.5,739.0 928.8,739.0C936.0,739.0 943.3,739.0 950.6,739.0C957.8,739.0 965.1,739.0 972.4,739.0C979.7,739.0 986.9,739.0 994.2,739.0C1001.5,739.0 1008.7,739.0 1016.0,739.0" fill="none" stroke="url(#ls-7)" stroke-width="3.5" stroke-linecap="round"/>
<circle cx="1016" cy="739.025" r="9" fill="#ea580c" fill-opacity="0.22"/>
<circle cx="1016" cy="739.025" r="4.5" fill="#ea580c"/>
<path d="M100.0,776.0C107.3,775.8 114.5,775.3 121.8,775.3C129.1,775.3 136.3,775.3 143.6,775.3C150.9,775.3 158.2,775.3 165.4,775.3C172.7,775.3 180.0,775.3 187.2,775.3C194.5,775.3 201.8,771.6 209.0,771.6C216.3,771.6 223.6,771.6 230.9,771.6C238.1,771.6 245.4,750.6 252.7,749.2C259.9,747.7 267.2,747.7 274.5,747.7C281.7,747.7 289.0,747.7 296.3,747.7C303.6,747.7 310.8,747.7 318.1,747.7C325.4,747.7 332.6,747.7 339.9,747.7C347.2,747.7 354.4,747.7 361.7,747.7C369.0,747.7 376.3,747.7 383.5,747.7C390.8,747.7 398.1,747.7 405.3,747.7C412.6,747.7 419.9,747.7 427.1,747.7C434.4,747.7 441.7,747.7 449.0,747.7C456.2,747.7 463.5,747.7 470.8,747.7C478.0,747.7 485.3,747.7 492.6,747.7C499.8,747.7 507.1,747.7 514.4,747.7C521.7,747.7 528.9,747.7 536.2,747.7C543.5,747.7 550.7,747.7 558.0,747.7C565.3,747.7 572.5,747.7 579.8,747.7C587.1,747.7 594.3,747.7 601.6,747.7C608.9,747.7 616.2,747.7 623.4,747.7C630.7,747.7 638.0,747.7 645.2,747.7C652.5,747.7 659.8,747.7 667.0,747.7C674.3,747.7 681.6,747.7 688.9,747.7C696.1,747.7 703.4,747.7 710.7,747.7C717.9,747.7 725.2,747.7 732.5,747.7C739.7,747.7 747.0,747.4 754.3,744.8C761.6,742.3 768.8,732.5 776.1,732.5C783.4,732.5 790.6,732.5 797.9,732.5C805.2,732.5 812.4,732.5 819.7,732.5C827.0,732.5 834.3,732.5 841.5,732.5C848.8,732.5 856.1,732.5 863.3,732.5C870.6,732.5 877.9,732.5 885.1,732.5C892.4,732.5 899.7,732.5 907.0,732.5C914.2,732.5 921.5,732.5 928.8,732.5C936.0,732.5 943.3,732.5 950.6,732.5C957.8,732.5 965.1,732.5 972.4,732.5C979.7,732.5 986.9,732.5 994.2,732.5C1001.5,732.5 1008.7,732.5 1016.0,732.5" fill="none" stroke="url(#ls-6)" stroke-width="3.5" stroke-linecap="round"/>
<circle cx="1016" cy="732.5" r="9" fill="#db2777" fill-opacity="0.22"/>
<circle cx="1016" cy="732.5" r="4.5" fill="#db2777"/>
<path d="M100.0,776.0C107.3,776.0 114.5,776.0 121.8,776.0C129.1,776.0 136.3,776.0 143.6,776.0C150.9,776.0 158.2,776.0 165.4,776.0C172.7,776.0 180.0,776.0 187.2,776.0C194.5,776.0 201.8,776.0 209.0,776.0C216.3,776.0 223.6,776.0 230.9,776.0C238.1,776.0 245.4,776.0 252.7,776.0C259.9,776.0 267.2,753.5 274.5,752.8C281.7,752.1 289.0,752.1 296.3,752.1C303.6,752.0 310.8,751.4 318.1,751.4C325.4,751.4 332.6,751.4 339.9,751.4C347.2,751.4 354.4,751.4 361.7,751.4C369.0,751.4 376.3,751.4 383.5,751.4C390.8,751.4 398.1,751.4 405.3,749.9C412.6,748.4 419.9,741.9 427.1,741.9C434.4,741.9 441.7,741.9 449.0,741.9C456.2,741.9 463.5,741.9 470.8,741.9C478.0,741.9 485.3,741.9 492.6,741.9C499.8,741.9 507.1,741.9 514.4,741.9C521.7,741.9 528.9,741.9 536.2,741.9C543.5,741.9 550.7,741.9 558.0,741.9C565.3,741.9 572.5,737.6 579.8,737.6C587.1,737.6 594.3,737.6 601.6,737.6C608.9,737.6 616.2,737.6 623.4,737.6C630.7,737.6 638.0,737.6 645.2,737.6C652.5,737.6 659.8,737.6 667.0,737.6C674.3,737.6 681.6,737.6 688.9,737.6C696.1,737.6 703.4,737.6 710.7,737.6C717.9,737.6 725.2,737.6 732.5,736.9C739.7,736.1 747.0,731.0 754.3,731.0C761.6,731.0 768.8,731.0 776.1,731.0C783.4,731.0 790.6,731.0 797.9,731.0C805.2,731.0 812.4,731.0 819.7,731.0C827.0,731.0 834.3,731.0 841.5,731.0C848.8,731.0 856.1,731.0 863.3,731.0C870.6,731.0 877.9,731.0 885.1,731.0C892.4,731.0 899.7,731.0 907.0,731.0C914.2,731.0 921.5,731.0 928.8,731.0C936.0,731.0 943.3,731.0 950.6,731.0C957.8,731.0 965.1,731.0 972.4,731.0C979.7,731.0 986.9,731.0 994.2,731.0C1001.5,731.0 1008.7,731.0 1016.0,731.0" fill="none" stroke="url(#ls-5)" stroke-width="3.5" stroke-linecap="round"/>
<circle cx="1016" cy="731.05" r="9" fill="#0891b2" fill-opacity="0.22"/>
<circle cx="1016" cy="731.05" r="4.5" fill="#0891b2"/>
<path d="M100.0,751.4C107.3,748.9 114.5,749.5 121.8,744.1C129.1,738.7 136.3,718.7 143.6,718.7C150.9,718.7 158.2,718.7 165.4,718.7C172.7,718.7 180.0,718.7 187.2,718.7C194.5,718.7 201.8,718.7 209.0,718.7C216.3,718.7 223.6,718.7 230.9,718.7C238.1,718.7 245.4,716.9 252.7,716.5C259.9,716.2 267.2,716.5 274.5,715.8C281.7,715.2 289.0,711.5 296.3,711.5C303.6,711.5 310.8,711.5 318.1,711.5C325.4,711.5 332.6,711.5 339.9,711.5C347.2,711.5 354.4,711.5 361.7,711.5C369.0,711.5 376.3,711.5 383.5,711.5C390.8,711.5 398.1,711.5 405.3,711.5C412.6,711.5 419.9,711.5 427.1,711.5C434.4,711.5 441.7,711.5 449.0,711.5C456.2,711.5 463.5,711.5 470.8,711.5C478.0,711.5 485.3,711.5 492.6,711.5C499.8,711.5 507.1,711.5 514.4,711.5C521.7,711.5 528.9,711.5 536.2,711.5C543.5,711.5 550.7,711.5 558.0,711.5C565.3,711.5 572.5,711.5 579.8,711.5C587.1,711.5 594.3,711.5 601.6,711.5C608.9,711.5 616.2,711.5 623.4,711.5C630.7,711.5 638.0,711.5 645.2,711.5C652.5,711.5 659.8,711.5 667.0,711.5C674.3,711.5 681.6,711.5 688.9,711.5C696.1,711.5 703.4,711.5 710.7,711.5C717.9,711.5 725.2,711.5 732.5,711.5C739.7,711.5 747.0,711.5 754.3,711.5C761.6,711.5 768.8,711.5 776.1,711.5C783.4,711.5 790.6,711.5 797.9,711.5C805.2,711.5 812.4,711.5 819.7,711.5C827.0,711.5 834.3,711.5 841.5,711.5C848.8,711.5 856.1,711.5 863.3,711.5C870.6,711.5 877.9,711.5 885.1,711.5C892.4,711.5 899.7,711.5 907.0,711.5C914.2,711.5 921.5,711.5 928.8,711.5C936.0,711.5 943.3,711.5 950.6,711.5C957.8,711.5 965.1,711.5 972.4,711.5C979.7,711.5 986.9,711.5 994.2,711.5C1001.5,711.5 1008.7,711.5 1016.0,711.5" fill="none" stroke="url(#ls-4)" stroke-width="3.5" stroke-linecap="round"/>
<circle cx="1016" cy="711.475" r="9" fill="#7c3aed" fill-opacity="0.22"/>
<circle cx="1016" cy="711.475" r="4.5" fill="#7c3aed"/>
<path d="M100.0,776.0C107.3,776.0 114.5,776.0 121.8,776.0C129.1,776.0 136.3,776.0 143.6,776.0C150.9,776.0 158.2,776.0 165.4,776.0C172.7,776.0 180.0,776.0 187.2,776.0C194.5,776.0 201.8,776.0 209.0,776.0C216.3,776.0 223.6,776.0 230.9,776.0C238.1,776.0 245.4,776.0 252.7,776.0C259.9,776.0 267.2,776.0 274.5,776.0C281.7,776.0 289.0,776.0 296.3,776.0C303.6,776.0 310.8,776.0 318.1,776.0C325.4,776.0 332.6,776.0 339.9,776.0C347.2,776.0 354.4,776.0 361.7,776.0C369.0,776.0 376.3,776.0 383.5,776.0C390.8,776.0 398.1,776.0 405.3,776.0C412.6,776.0 419.9,776.0 427.1,776.0C434.4,776.0 441.7,776.0 449.0,776.0C456.2,776.0 463.5,776.0 470.8,776.0C478.0,776.0 485.3,776.0 492.6,776.0C499.8,776.0 507.1,776.0 514.4,776.0C521.7,776.0 528.9,776.0 536.2,776.0C543.5,776.0 550.7,776.0 558.0,776.0C565.3,776.0 572.5,776.0 579.8,776.0C587.1,776.0 594.3,776.0 601.6,776.0C608.9,776.0 616.2,776.0 623.4,776.0C630.7,776.0 638.0,776.0 645.2,776.0C652.5,776.0 659.8,776.0 667.0,776.0C674.3,776.0 681.6,776.0 688.9,776.0C696.1,776.0 703.4,776.0 710.7,776.0C717.9,776.0 725.2,776.0 732.5,776.0C739.7,776.0 747.0,776.0 754.3,776.0C761.6,776.0 768.8,776.0 776.1,776.0C783.4,776.0 790.6,776.0 797.9,776.0C805.2,776.0 812.4,776.0 819.7,776.0C827.0,776.0 834.3,763.7 841.5,760.0C848.8,756.4 856.1,754.3 863.3,754.3C870.6,754.3 877.9,754.3 885.1,754.3C892.4,754.3 899.7,754.3 907.0,754.3C914.2,754.3 921.5,754.3 928.8,754.3C936.0,754.3 943.3,754.3 950.6,754.3C957.8,754.3 965.1,748.6 972.4,741.2C979.7,733.8 986.9,710.7 994.2,710.0C1001.5,709.3 1008.7,709.3 1016.0,709.3" fill="none" stroke="url(#ls-3)" stroke-width="3.5" stroke-linecap="round"/>
<circle cx="1016" cy="709.3" r="9" fill="#d97706" fill-opacity="0.22"/>
<circle cx="1016" cy="709.3" r="4.5" fill="#d97706"/>
<path d="M100.0,776.0C107.3,776.0 114.5,776.0 121.8,776.0C129.1,776.0 136.3,776.0 143.6,776.0C150.9,776.0 158.2,776.0 165.4,776.0C172.7,776.0 180.0,776.0 187.2,776.0C194.5,776.0 201.8,776.0 209.0,776.0C216.3,776.0 223.6,776.0 230.9,776.0C238.1,776.0 245.4,776.0 252.7,776.0C259.9,776.0 267.2,776.0 274.5,776.0C281.7,776.0 289.0,776.0 296.3,776.0C303.6,776.0 310.8,776.0 318.1,776.0C325.4,776.0 332.6,776.0 339.9,776.0C347.2,776.0 354.4,776.0 361.7,776.0C369.0,776.0 376.3,776.0 383.5,776.0C390.8,776.0 398.1,776.0 405.3,776.0C412.6,776.0 419.9,776.0 427.1,776.0C434.4,776.0 441.7,776.0 449.0,776.0C456.2,776.0 463.5,776.0 470.8,776.0C478.0,776.0 485.3,754.1 492.6,747.0C499.8,739.9 507.1,737.1 514.4,733.2C521.7,729.4 528.9,726.6 536.2,723.8C543.5,721.0 550.7,716.5 558.0,716.5C565.3,716.5 572.5,716.5 579.8,716.5C587.1,716.5 594.3,716.5 601.6,716.5C608.9,716.5 616.2,715.8 623.4,715.8C630.7,715.8 638.0,715.8 645.2,715.8C652.5,715.8 659.8,715.8 667.0,715.8C674.3,715.8 681.6,715.8 688.9,715.8C696.1,715.8 703.4,715.8 710.7,715.8C717.9,715.8 725.2,715.8 732.5,715.8C739.7,715.8 747.0,715.8 754.3,715.8C761.6,715.8 768.8,715.8 776.1,715.8C783.4,715.8 790.6,715.8 797.9,715.8C805.2,715.8 812.4,714.4 819.7,713.6C827.0,712.9 834.3,712.1 841.5,711.5C848.8,710.9 856.1,710.0 863.3,710.0C870.6,710.0 877.9,710.0 885.1,710.0C892.4,710.0 899.7,710.0 907.0,710.0C914.2,710.0 921.5,710.0 928.8,710.0C936.0,710.0 943.3,708.8 950.6,707.9C957.8,706.9 965.1,704.2 972.4,704.2C979.7,704.2 986.9,704.2 994.2,704.2C1001.5,704.2 1008.7,704.2 1016.0,704.2" fill="none" stroke="url(#ls-2)" stroke-width="3.5" stroke-linecap="round"/>
<circle cx="1016" cy="704.225" r="9" fill="#059669" fill-opacity="0.22"/>
<circle cx="1016" cy="704.225" r="4.5" fill="#059669"/>
<path d="M100.0,776.0C107.3,776.0 114.5,776.0 121.8,776.0C129.1,776.0 136.3,776.0 143.6,776.0C150.9,776.0 158.2,776.0 165.4,776.0C172.7,776.0 180.0,776.0 187.2,776.0C194.5,776.0 201.8,776.0 209.0,776.0C216.3,776.0 223.6,776.0 230.9,776.0C238.1,776.0 245.4,776.0 252.7,776.0C259.9,776.0 267.2,776.0 274.5,776.0C281.7,776.0 289.0,776.0 296.3,776.0C303.6,776.0 310.8,774.7 318.1,768.0C325.4,761.4 332.6,742.6 339.9,736.1C347.2,729.6 354.4,730.7 361.7,728.9C369.0,727.1 376.3,726.1 383.5,725.3C390.8,724.4 398.1,723.9 405.3,723.8C412.6,723.7 419.9,723.8 427.1,723.1C434.4,722.4 441.7,710.0 449.0,707.9C456.2,705.7 463.5,705.7 470.8,705.7C478.0,705.7 485.3,705.7 492.6,705.7C499.8,705.7 507.1,702.0 514.4,702.0C521.7,702.0 528.9,702.0 536.2,702.0C543.5,702.0 550.7,702.0 558.0,702.0C565.3,702.0 572.5,702.0 579.8,702.0C587.1,702.0 594.3,702.0 601.6,702.0C608.9,702.0 616.2,702.0 623.4,702.0C630.7,702.0 638.0,702.0 645.2,702.0C652.5,702.0 659.8,702.0 667.0,702.0C674.3,702.0 681.6,702.0 688.9,702.0C696.1,702.0 703.4,702.0 710.7,702.0C717.9,702.0 725.2,702.0 732.5,702.0C739.7,702.0 747.0,702.0 754.3,702.0C761.6,702.0 768.8,702.0 776.1,702.0C783.4,702.0 790.6,702.0 797.9,702.0C805.2,702.0 812.4,702.0 819.7,702.0C827.0,702.0 834.3,694.8 841.5,694.8C848.8,694.8 856.1,694.8 863.3,694.8C870.6,694.8 877.9,694.1 885.1,694.1C892.4,694.1 899.7,694.1 907.0,694.1C914.2,694.1 921.5,694.1 928.8,693.4C936.0,692.6 943.3,689.7 950.6,688.3C957.8,686.8 965.1,684.6 972.4,684.6C979.7,684.6 986.9,684.6 994.2,684.6C1001.5,684.6 1008.7,683.7 1016.0,683.2" fill="none" stroke="url(#ls-1)" stroke-width="3.5" stroke-linecap="round"/>
<circle cx="1016" cy="683.2" r="9" fill="#2563eb" fill-opacity="0.22"/>
<circle cx="1016" cy="683.2" r="4.5" fill="#2563eb"/>
<path d="M100.0,776.0C107.3,776.0 114.5,776.0 121.8,776.0C129.1,776.0 136.3,776.0 143.6,776.0C150.9,776.0 158.2,776.0 165.4,775.3C172.7,774.5 180.0,770.2 187.2,770.2C194.5,770.2 201.8,770.2 209.0,770.2C216.3,770.2 223.6,770.2 230.9,770.2C238.1,770.2 245.4,770.2 252.7,770.2C259.9,770.2 267.2,770.2 274.5,770.2C281.7,770.2 289.0,770.2 296.3,770.2C303.6,770.2 310.8,769.5 318.1,769.5C325.4,769.5 332.6,769.5 339.9,769.5C347.2,769.5 354.4,769.5 361.7,769.5C369.0,769.5 376.3,769.5 383.5,769.5C390.8,769.5 398.1,769.5 405.3,769.5C412.6,769.5 419.9,769.5 427.1,769.5C434.4,769.5 441.7,769.5 449.0,769.5C456.2,769.5 463.5,769.5 470.8,769.5C478.0,769.5 485.3,768.8 492.6,768.8C499.8,768.8 507.1,768.8 514.4,768.8C521.7,768.8 528.9,768.8 536.2,768.0C543.5,767.3 550.7,764.3 558.0,762.2C565.3,760.2 572.5,759.2 579.8,755.7C587.1,752.2 594.3,746.4 601.6,741.2C608.9,736.0 616.2,730.4 623.4,724.5C630.7,718.6 638.0,712.4 645.2,705.7C652.5,698.9 659.8,686.1 667.0,683.9C674.3,681.8 681.6,683.4 688.9,679.6C696.1,675.8 703.4,648.3 710.7,637.5C717.9,626.8 725.2,617.8 732.5,615.0C739.7,612.3 747.0,613.7 754.3,611.4C761.6,609.1 768.8,598.7 776.1,593.3C783.4,587.9 790.6,582.4 797.9,578.8C805.2,575.2 812.4,574.3 819.7,571.5C827.0,568.8 834.3,565.4 841.5,562.1C848.8,558.9 856.1,554.8 863.3,552.0C870.6,549.2 877.9,548.0 885.1,545.5C892.4,542.9 899.7,541.7 907.0,536.8C914.2,531.8 921.5,526.6 928.8,515.7C936.0,504.9 943.3,485.2 950.6,471.5C957.8,457.8 965.1,443.5 972.4,433.8C979.7,424.1 986.9,416.3 994.2,413.5C1001.5,410.7 1008.7,411.3 1016.0,410.6" fill="none" stroke="url(#ls-0)" stroke-width="3.5" stroke-linecap="round"/>
<circle cx="1016" cy="410.6" r="9" fill="#e11d48" fill-opacity="0.22"/>
<circle cx="1016" cy="410.6" r="4.5" fill="#e11d48"/>
<text x="1088" y="180" font-family="-apple-system,BlinkMacSystemFont,&quot;Segoe UI&quot;,&quot;Noto Sans CJK SC&quot;,&quot;PingFang SC&quot;,&quot;Microsoft YaHei&quot;,Helvetica,Arial,sans-serif" font-size="20" font-weight="600" fill="#64748b">排名</text>
<text x="1112" y="228" font-family="-apple-system,BlinkMacSystemFont,&quot;Segoe UI&quot;,&quot;Noto Sans CJK SC&quot;,&quot;PingFang SC&quot;,&quot;Microsoft YaHei&quot;,Helvetica,Arial,sans-serif" font-size="20" font-weight="700" fill="#d97706" text-anchor="end">1</text>
<circle cx="1144" cy="222" r="7" fill="#e11d48"/>
<text x="1166" y="229" font-family="-apple-system,BlinkMacSystemFont,&quot;Segoe UI&quot;,&quot;Noto Sans CJK SC&quot;,&quot;PingFang SC&quot;,&quot;Microsoft YaHei&quot;,Helvetica,Arial,sans-serif" font-size="21" fill="#1e293b">10router</text>
<text x="1520" y="230" font-family="-apple-system,BlinkMacSystemFont,&quot;Segoe UI&quot;,&quot;Noto Sans CJK SC&quot;,&quot;PingFang SC&quot;,&quot;Microsoft YaHei&quot;,Helvetica,Arial,sans-serif" font-size="23" font-weight="700" fill="#e11d48" text-anchor="end">504</text>
<line x1="1088" y1="248" x2="1528" y2="248" stroke="#f1f5f9" stroke-width="1"/>
<text x="1112" y="284" font-family="-apple-system,BlinkMacSystemFont,&quot;Segoe UI&quot;,&quot;Noto Sans CJK SC&quot;,&quot;PingFang SC&quot;,&quot;Microsoft YaHei&quot;,Helvetica,Arial,sans-serif" font-size="20" font-weight="700" fill="#94a3b8" text-anchor="end">2</text>
<circle cx="1144" cy="278" r="7" fill="#2563eb"/>
<text x="1166" y="285" font-family="-apple-system,BlinkMacSystemFont,&quot;Segoe UI&quot;,&quot;Noto Sans CJK SC&quot;,&quot;PingFang SC&quot;,&quot;Microsoft YaHei&quot;,Helvetica,Arial,sans-serif" font-size="21" fill="#1e293b">deepseek-harness-fnos</text>
<text x="1520" y="286" font-family="-apple-system,BlinkMacSystemFont,&quot;Segoe UI&quot;,&quot;Noto Sans CJK SC&quot;,&quot;PingFang SC&quot;,&quot;Microsoft YaHei&quot;,Helvetica,Arial,sans-serif" font-size="23" font-weight="700" fill="#2563eb" text-anchor="end">128</text>
<line x1="1088" y1="304" x2="1528" y2="304" stroke="#f1f5f9" stroke-width="1"/>
<text x="1112" y="340" font-family="-apple-system,BlinkMacSystemFont,&quot;Segoe UI&quot;,&quot;Noto Sans CJK SC&quot;,&quot;PingFang SC&quot;,&quot;Microsoft YaHei&quot;,Helvetica,Arial,sans-serif" font-size="20" font-weight="700" fill="#b45309" text-anchor="end">3</text>
<circle cx="1144" cy="334" r="7" fill="#059669"/>
<text x="1166" y="341" font-family="-apple-system,BlinkMacSystemFont,&quot;Segoe UI&quot;,&quot;Noto Sans CJK SC&quot;,&quot;PingFang SC&quot;,&quot;Microsoft YaHei&quot;,Helvetica,Arial,sans-serif" font-size="21" fill="#1e293b">hermes-fry-cards</text>
<text x="1520" y="342" font-family="-apple-system,BlinkMacSystemFont,&quot;Segoe UI&quot;,&quot;Noto Sans CJK SC&quot;,&quot;PingFang SC&quot;,&quot;Microsoft YaHei&quot;,Helvetica,Arial,sans-serif" font-size="23" font-weight="700" fill="#059669" text-anchor="end">99</text>
<line x1="1088" y1="360" x2="1528" y2="360" stroke="#f1f5f9" stroke-width="1"/>
<text x="1112" y="396" font-family="-apple-system,BlinkMacSystemFont,&quot;Segoe UI&quot;,&quot;Noto Sans CJK SC&quot;,&quot;PingFang SC&quot;,&quot;Microsoft YaHei&quot;,Helvetica,Arial,sans-serif" font-size="20" font-weight="400" fill="#64748b" text-anchor="end">4</text>
<circle cx="1144" cy="390" r="7" fill="#d97706"/>
<text x="1166" y="397" font-family="-apple-system,BlinkMacSystemFont,&quot;Segoe UI&quot;,&quot;Noto Sans CJK SC&quot;,&quot;PingFang SC&quot;,&quot;Microsoft YaHei&quot;,Helvetica,Arial,sans-serif" font-size="21" fill="#1e293b">claw-fry-cards</text>
<text x="1520" y="398" font-family="-apple-system,BlinkMacSystemFont,&quot;Segoe UI&quot;,&quot;Noto Sans CJK SC&quot;,&quot;PingFang SC&quot;,&quot;Microsoft YaHei&quot;,Helvetica,Arial,sans-serif" font-size="23" font-weight="700" fill="#d97706" text-anchor="end">92</text>
<line x1="1088" y1="416" x2="1528" y2="416" stroke="#f1f5f9" stroke-width="1"/>
<text x="1112" y="452" font-family="-apple-system,BlinkMacSystemFont,&quot;Segoe UI&quot;,&quot;Noto Sans CJK SC&quot;,&quot;PingFang SC&quot;,&quot;Microsoft YaHei&quot;,Helvetica,Arial,sans-serif" font-size="20" font-weight="400" fill="#64748b" text-anchor="end">5</text>
<circle cx="1144" cy="446" r="7" fill="#7c3aed"/>
<text x="1166" y="453" font-family="-apple-system,BlinkMacSystemFont,&quot;Segoe UI&quot;,&quot;Noto Sans CJK SC&quot;,&quot;PingFang SC&quot;,&quot;Microsoft YaHei&quot;,Helvetica,Arial,sans-serif" font-size="21" fill="#1e293b">hermes-core-fnos</text>
<text x="1520" y="454" font-family="-apple-system,BlinkMacSystemFont,&quot;Segoe UI&quot;,&quot;Noto Sans CJK SC&quot;,&quot;PingFang SC&quot;,&quot;Microsoft YaHei&quot;,Helvetica,Arial,sans-serif" font-size="23" font-weight="700" fill="#7c3aed" text-anchor="end">89</text>
<line x1="1088" y1="472" x2="1528" y2="472" stroke="#f1f5f9" stroke-width="1"/>
<text x="1112" y="508" font-family="-apple-system,BlinkMacSystemFont,&quot;Segoe UI&quot;,&quot;Noto Sans CJK SC&quot;,&quot;PingFang SC&quot;,&quot;Microsoft YaHei&quot;,Helvetica,Arial,sans-serif" font-size="20" font-weight="400" fill="#64748b" text-anchor="end">6</text>
<circle cx="1144" cy="502" r="7" fill="#0891b2"/>
<text x="1166" y="509" font-family="-apple-system,BlinkMacSystemFont,&quot;Segoe UI&quot;,&quot;Noto Sans CJK SC&quot;,&quot;PingFang SC&quot;,&quot;Microsoft YaHei&quot;,Helvetica,Arial,sans-serif" font-size="21" fill="#1e293b">mihomo-core-fnos</text>
<text x="1520" y="510" font-family="-apple-system,BlinkMacSystemFont,&quot;Segoe UI&quot;,&quot;Noto Sans CJK SC&quot;,&quot;PingFang SC&quot;,&quot;Microsoft YaHei&quot;,Helvetica,Arial,sans-serif" font-size="23" font-weight="700" fill="#0891b2" text-anchor="end">62</text>
<line x1="1088" y1="528" x2="1528" y2="528" stroke="#f1f5f9" stroke-width="1"/>
<text x="1112" y="564" font-family="-apple-system,BlinkMacSystemFont,&quot;Segoe UI&quot;,&quot;Noto Sans CJK SC&quot;,&quot;PingFang SC&quot;,&quot;Microsoft YaHei&quot;,Helvetica,Arial,sans-serif" font-size="20" font-weight="400" fill="#64748b" text-anchor="end">7</text>
<circle cx="1144" cy="558" r="7" fill="#db2777"/>
<text x="1166" y="565" font-family="-apple-system,BlinkMacSystemFont,&quot;Segoe UI&quot;,&quot;Noto Sans CJK SC&quot;,&quot;PingFang SC&quot;,&quot;Microsoft YaHei&quot;,Helvetica,Arial,sans-serif" font-size="21" fill="#1e293b">strava-panel</text>
<text x="1520" y="566" font-family="-apple-system,BlinkMacSystemFont,&quot;Segoe UI&quot;,&quot;Noto Sans CJK SC&quot;,&quot;PingFang SC&quot;,&quot;Microsoft YaHei&quot;,Helvetica,Arial,sans-serif" font-size="23" font-weight="700" fill="#db2777" text-anchor="end">60</text>
<line x1="1088" y1="584" x2="1528" y2="584" stroke="#f1f5f9" stroke-width="1"/>
<text x="1112" y="620" font-family="-apple-system,BlinkMacSystemFont,&quot;Segoe UI&quot;,&quot;Noto Sans CJK SC&quot;,&quot;PingFang SC&quot;,&quot;Microsoft YaHei&quot;,Helvetica,Arial,sans-serif" font-size="20" font-weight="400" fill="#64748b" text-anchor="end">8</text>
<circle cx="1144" cy="614" r="7" fill="#ea580c"/>
<text x="1166" y="621" font-family="-apple-system,BlinkMacSystemFont,&quot;Segoe UI&quot;,&quot;Noto Sans CJK SC&quot;,&quot;PingFang SC&quot;,&quot;Microsoft YaHei&quot;,Helvetica,Arial,sans-serif" font-size="21" fill="#1e293b">9router-fnos</text>
<text x="1520" y="622" font-family="-apple-system,BlinkMacSystemFont,&quot;Segoe UI&quot;,&quot;Noto Sans CJK SC&quot;,&quot;PingFang SC&quot;,&quot;Microsoft YaHei&quot;,Helvetica,Arial,sans-serif" font-size="23" font-weight="700" fill="#ea580c" text-anchor="end">51</text>
<line x1="1088" y1="640" x2="1528" y2="640" stroke="#f1f5f9" stroke-width="1"/>
<text x="1112" y="676" font-family="-apple-system,BlinkMacSystemFont,&quot;Segoe UI&quot;,&quot;Noto Sans CJK SC&quot;,&quot;PingFang SC&quot;,&quot;Microsoft YaHei&quot;,Helvetica,Arial,sans-serif" font-size="20" font-weight="400" fill="#64748b" text-anchor="end">9</text>
<circle cx="1144" cy="670" r="7" fill="#4f46e5"/>
<text x="1166" y="677" font-family="-apple-system,BlinkMacSystemFont,&quot;Segoe UI&quot;,&quot;Noto Sans CJK SC&quot;,&quot;PingFang SC&quot;,&quot;Microsoft YaHei&quot;,Helvetica,Arial,sans-serif" font-size="21" fill="#1e293b">hugo-blog-fnos</text>
<text x="1520" y="678" font-family="-apple-system,BlinkMacSystemFont,&quot;Segoe UI&quot;,&quot;Noto Sans CJK SC&quot;,&quot;PingFang SC&quot;,&quot;Microsoft YaHei&quot;,Helvetica,Arial,sans-serif" font-size="23" font-weight="700" fill="#4f46e5" text-anchor="end">50</text>
<line x1="1088" y1="696" x2="1528" y2="696" stroke="#f1f5f9" stroke-width="1"/>
<text x="1112" y="732" font-family="-apple-system,BlinkMacSystemFont,&quot;Segoe UI&quot;,&quot;Noto Sans CJK SC&quot;,&quot;PingFang SC&quot;,&quot;Microsoft YaHei&quot;,Helvetica,Arial,sans-serif" font-size="20" font-weight="400" fill="#64748b" text-anchor="end">10</text>
<circle cx="1144" cy="726" r="7" fill="#64748b"/>
<text x="1166" y="733" font-family="-apple-system,BlinkMacSystemFont,&quot;Segoe UI&quot;,&quot;Noto Sans CJK SC&quot;,&quot;PingFang SC&quot;,&quot;Microsoft YaHei&quot;,Helvetica,Arial,sans-serif" font-size="21" fill="#1e293b">techysy</text>
<text x="1520" y="734" font-family="-apple-system,BlinkMacSystemFont,&quot;Segoe UI&quot;,&quot;Noto Sans CJK SC&quot;,&quot;PingFang SC&quot;,&quot;Microsoft YaHei&quot;,Helvetica,Arial,sans-serif" font-size="23" font-weight="700" fill="#64748b" text-anchor="end">49</text>
<text x="800" y="866" font-family="-apple-system,BlinkMacSystemFont,&quot;Segoe UI&quot;,&quot;Noto Sans CJK SC&quot;,&quot;PingFang SC&quot;,&quot;Microsoft YaHei&quot;,Helvetica,Arial,sans-serif" font-size="16" fill="#64748b" text-anchor="middle">数据来自 GitHub API · 仅统计公开仓库 · 每日自动更新</text>
</svg>