<svg xmlns="http://www.w3.org/2000/svg" width="1600" height="900" viewBox="0 0 1600 900" role="img" aria-label="Star Top 10, last 42 days">
<defs><linearGradient id="cardbg" x1="0" y1="0" x2="0" y2="1"><stop offset="0" stop-color="#ffffff"/><stop offset="1" stop-color="#f8fafc"/></linearGradient><linearGradient id="ls-0" x1="0" y1="0" x2="1" y2="0"><stop offset="0" stop-color="#e11d48" stop-opacity="0.25"/><stop offset="0.55" stop-color="#e11d48" stop-opacity="0.7"/><stop offset="1" stop-color="#e11d48"/></linearGradient><linearGradient id="as-0" x1="0" y1="0" x2="0" y2="1"><stop offset="0" stop-color="#e11d48" stop-opacity="0.1"/><stop offset="1" stop-color="#e11d48" stop-opacity="0"/></linearGradient><linearGradient id="ls-1" x1="0" y1="0" x2="1" y2="0"><stop offset="0" stop-color="#2563eb" stop-opacity="0.25"/><stop offset="0.55" stop-color="#2563eb" stop-opacity="0.7"/><stop offset="1" stop-color="#2563eb"/></linearGradient><linearGradient id="as-1" x1="0" y1="0" x2="0" y2="1"><stop offset="0" stop-color="#2563eb" stop-opacity="0.1"/><stop offset="1" stop-color="#2563eb" stop-opacity="0"/></linearGradient><linearGradient id="ls-2" x1="0" y1="0" x2="1" y2="0"><stop offset="0" stop-color="#059669" stop-opacity="0.25"/><stop offset="0.55" stop-color="#059669" stop-opacity="0.7"/><stop offset="1" stop-color="#059669"/></linearGradient><linearGradient id="as-2" x1="0" y1="0" x2="0" y2="1"><stop offset="0" stop-color="#059669" stop-opacity="0.1"/><stop offset="1" stop-color="#059669" stop-opacity="0"/></linearGradient><linearGradient id="ls-3" x1="0" y1="0" x2="1" y2="0"><stop offset="0" stop-color="#d97706" stop-opacity="0.25"/><stop offset="0.55" stop-color="#d97706" stop-opacity="0.7"/><stop offset="1" stop-color="#d97706"/></linearGradient><linearGradient id="as-3" x1="0" y1="0" x2="0" y2="1"><stop offset="0" stop-color="#d97706" stop-opacity="0.1"/><stop offset="1" stop-color="#d97706" stop-opacity="0"/></linearGradient><linearGradient id="ls-4" x1="0" y1="0" x2="1" y2="0"><stop offset="0" stop-color="#7c3aed" stop-opacity="0.25"/><stop offset="0.55" stop-color="#7c3aed" stop-opacity="0.7"/><stop offset="1" stop-color="#7c3aed"/></linearGradient><linearGradient id="as-4" x1="0" y1="0" x2="0" y2="1"><stop offset="0" stop-color="#7c3aed" stop-opacity="0.1"/><stop offset="1" stop-color="#7c3aed" stop-opacity="0"/></linearGradient><linearGradient id="ls-5" x1="0" y1="0" x2="1" y2="0"><stop offset="0" stop-color="#0891b2" stop-opacity="0.25"/><stop offset="0.55" stop-color="#0891b2" stop-opacity="0.7"/><stop offset="1" stop-color="#0891b2"/></linearGradient><linearGradient id="as-5" x1="0" y1="0" x2="0" y2="1"><stop offset="0" stop-color="#0891b2" stop-opacity="0.1"/><stop offset="1" stop-color="#0891b2" stop-opacity="0"/></linearGradient><linearGradient id="ls-6" x1="0" y1="0" x2="1" y2="0"><stop offset="0" stop-color="#db2777" stop-opacity="0.25"/><stop offset="0.55" stop-color="#db2777" stop-opacity="0.7"/><stop offset="1" stop-color="#db2777"/></linearGradient><linearGradient id="as-6" x1="0" y1="0" x2="0" y2="1"><stop offset="0" stop-color="#db2777" stop-opacity="0.1"/><stop offset="1" stop-color="#db2777" stop-opacity="0"/></linearGradient><linearGradient id="ls-7" x1="0" y1="0" x2="1" y2="0"><stop offset="0" stop-color="#ea580c" stop-opacity="0.25"/><stop offset="0.55" stop-color="#ea580c" stop-opacity="0.7"/><stop offset="1" stop-color="#ea580c"/></linearGradient><linearGradient id="as-7" x1="0" y1="0" x2="0" y2="1"><stop offset="0" stop-color="#ea580c" stop-opacity="0.1"/><stop offset="1" stop-color="#ea580c" stop-opacity="0"/></linearGradient><linearGradient id="ls-8" x1="0" y1="0" x2="1" y2="0"><stop offset="0" stop-color="#4f46e5" stop-opacity="0.25"/><stop offset="0.55" stop-color="#4f46e5" stop-opacity="0.7"/><stop offset="1" stop-color="#4f46e5"/></linearGradient><linearGradient id="as-8" x1="0" y1="0" x2="0" y2="1"><stop offset="0" stop-color="#4f46e5" stop-opacity="0.1"/><stop offset="1" stop-color="#4f46e5" stop-opacity="0"/></linearGradient><linearGradient id="ls-9" x1="0" y1="0" x2="1" y2="0"><stop offset="0" stop-color="#64748b" stop-opacity="0.25"/><stop offset="0.55" stop-color="#64748b" stop-opacity="0.7"/><stop offset="1" stop-color="#64748b"/></linearGradient><linearGradient id="as-9" x1="0" y1="0" x2="0" y2="1"><stop offset="0" stop-color="#64748b" stop-opacity="0.1"/><stop offset="1" stop-color="#64748b" stop-opacity="0"/></linearGradient></defs>
<rect width="1600" height="900" rx="16" fill="url(#cardbg)"/>
<rect x="0.75" y="0.75" width="1598.5" height="898.5" rx="16" fill="none" stroke="#e2e8f0" stroke-width="1.5"/>
<polygon points="84.0,57.0 88.7,69.5 102.1,70.1 91.6,78.5 95.2,91.4 84.0,84.0 72.8,91.4 76.4,78.5 65.9,70.1 79.3,69.5" fill="#f59e0b"/>
<text x="118" y="90" font-family="-apple-system,BlinkMacSystemFont,&quot;Segoe UI&quot;,&quot;Noto Sans CJK SC&quot;,&quot;PingFang SC&quot;,&quot;Microsoft YaHei&quot;,Helvetica,Arial,sans-serif" font-size="38" font-weight="700" fill="#0f172a">Star Top 10</text>
<text x="118" y="128" font-family="-apple-system,BlinkMacSystemFont,&quot;Segoe UI&quot;,&quot;Noto Sans CJK SC&quot;,&quot;PingFang SC&quot;,&quot;Microsoft YaHei&quot;,Helvetica,Arial,sans-serif" font-size="21" fill="#64748b">2026.7.30 – 2026.9.10 · @techysy · 最近 42 天</text>
<text x="1536" y="90" font-family="-apple-system,BlinkMacSystemFont,&quot;Segoe UI&quot;,&quot;Noto Sans CJK SC&quot;,&quot;PingFang SC&quot;,&quot;Microsoft YaHei&quot;,Helvetica,Arial,sans-serif" font-size="18" fill="#64748b" text-anchor="end">生成于 2026-09-10</text>
<line x1="64" y1="152" x2="1536" y2="152" stroke="#f1f5f9" stroke-width="1.5"/>
<line x1="100" y1="776" x2="1016" y2="776" stroke="#cbd5e1" stroke-width="1.6"/>
<text x="84" y="782" font-family="-apple-system,BlinkMacSystemFont,&quot;Segoe UI&quot;,&quot;Noto Sans CJK SC&quot;,&quot;PingFang SC&quot;,&quot;Microsoft YaHei&quot;,Helvetica,Arial,sans-serif" font-size="19" fill="#64748b" text-anchor="end">0</text>
<line x1="100" y1="631" x2="1016" y2="631" stroke="#eef2f7" stroke-width="1"/>
<text x="84" y="637" font-family="-apple-system,BlinkMacSystemFont,&quot;Segoe UI&quot;,&quot;Noto Sans CJK SC&quot;,&quot;PingFang SC&quot;,&quot;Microsoft YaHei&quot;,Helvetica,Arial,sans-serif" font-size="19" fill="#64748b" text-anchor="end">10</text>
<line x1="100" y1="486" x2="1016" y2="486" stroke="#eef2f7" stroke-width="1"/>
<text x="84" y="492" font-family="-apple-system,BlinkMacSystemFont,&quot;Segoe UI&quot;,&quot;Noto Sans CJK SC&quot;,&quot;PingFang SC&quot;,&quot;Microsoft YaHei&quot;,Helvetica,Arial,sans-serif" font-size="19" fill="#64748b" text-anchor="end">20</text>
<line x1="100" y1="341" x2="1016" y2="341" stroke="#eef2f7" stroke-width="1"/>
<text x="84" y="347" font-family="-apple-system,BlinkMacSystemFont,&quot;Segoe UI&quot;,&quot;Noto Sans CJK SC&quot;,&quot;PingFang SC&quot;,&quot;Microsoft YaHei&quot;,Helvetica,Arial,sans-serif" font-size="19" fill="#64748b" text-anchor="end">30</text>
<line x1="100" y1="196" x2="1016" y2="196" stroke="#eef2f7" stroke-width="1"/>
<text x="84" y="202" font-family="-apple-system,BlinkMacSystemFont,&quot;Segoe UI&quot;,&quot;Noto Sans CJK SC&quot;,&quot;PingFang SC&quot;,&quot;Microsoft YaHei&quot;,Helvetica,Arial,sans-serif" font-size="19" fill="#64748b" text-anchor="end">40</text>
<text x="100" y="180" font-family="-apple-system,BlinkMacSystemFont,&quot;Segoe UI&quot;,&quot;Noto Sans CJK SC&quot;,&quot;PingFang SC&quot;,&quot;Microsoft YaHei&quot;,Helvetica,Arial,sans-serif" font-size="18" fill="#64748b">Stars</text>
<text x="100" y="808" font-family="-apple-system,BlinkMacSystemFont,&quot;Segoe UI&quot;,&quot;Noto Sans CJK SC&quot;,&quot;PingFang SC&quot;,&quot;Microsoft YaHei&quot;,Helvetica,Arial,sans-serif" font-size="19" fill="#64748b" text-anchor="middle">7.30</text>
<text x="252.66666666666666" y="808" font-family="-apple-system,BlinkMacSystemFont,&quot;Segoe UI&quot;,&quot;Noto Sans CJK SC&quot;,&quot;PingFang SC&quot;,&quot;Microsoft YaHei&quot;,Helvetica,Arial,sans-serif" font-size="19" fill="#64748b" text-anchor="middle">8.6</text>
<text x="405.3333333333333" y="808" font-family="-apple-system,BlinkMacSystemFont,&quot;Segoe UI&quot;,&quot;Noto Sans CJK SC&quot;,&quot;PingFang SC&quot;,&quot;Microsoft YaHei&quot;,Helvetica,Arial,sans-serif" font-size="19" fill="#64748b" text-anchor="middle">8.13</text>
<text x="558" y="808" font-family="-apple-system,BlinkMacSystemFont,&quot;Segoe UI&quot;,&quot;Noto Sans CJK SC&quot;,&quot;PingFang SC&quot;,&quot;Microsoft YaHei&quot;,Helvetica,Arial,sans-serif" font-size="19" fill="#64748b" text-anchor="middle">8.20</text>
<text x="710.6666666666666" y="808" font-family="-apple-system,BlinkMacSystemFont,&quot;Segoe UI&quot;,&quot;Noto Sans CJK SC&quot;,&quot;PingFang SC&quot;,&quot;Microsoft YaHei&quot;,Helvetica,Arial,sans-serif" font-size="19" fill="#64748b" text-anchor="middle">8.27</text>
<text x="863.3333333333334" y="808" font-family="-apple-system,BlinkMacSystemFont,&quot;Segoe UI&quot;,&quot;Noto Sans CJK SC&quot;,&quot;PingFang SC&quot;,&quot;Microsoft YaHei&quot;,Helvetica,Arial,sans-serif" font-size="19" fill="#64748b" text-anchor="middle">9.3</text>
<text x="1016" y="808" font-family="-apple-system,BlinkMacSystemFont,&quot;Segoe UI&quot;,&quot;Noto Sans CJK SC&quot;,&quot;PingFang SC&quot;,&quot;Microsoft YaHei&quot;,Helvetica,Arial,sans-serif" font-size="19" fill="#64748b" text-anchor="middle">9.10</text>
<path d="M100.0,776.0C107.3,776.0 114.5,776.0 121.8,776.0C129.1,776.0 136.3,776.0 143.6,776.0C150.9,776.0 158.2,761.5 165.4,761.5C172.7,761.5 180.0,761.5 187.2,761.5C194.5,761.5 201.8,747.0 209.0,747.0C216.3,747.0 223.6,747.0 230.9,747.0C238.1,747.0 245.4,732.5 252.7,732.5C259.9,732.5 267.2,732.5 274.5,732.5C281.7,732.5 289.0,732.5 296.3,732.5C303.6,732.5 310.8,732.5 318.1,732.5C325.4,732.5 332.6,732.5 339.9,732.5C347.2,732.5 354.4,732.5 361.7,732.5C369.0,732.5 376.3,732.5 383.5,732.5C390.8,732.5 398.1,732.5 405.3,732.5C412.6,732.5 419.9,732.5 427.1,732.5C434.4,732.5 441.7,732.5 449.0,732.5C456.2,732.5 463.5,732.5 470.8,732.5C478.0,732.5 485.3,732.5 492.6,732.5C499.8,732.5 507.1,732.5 514.4,732.5C521.7,732.5 528.9,732.5 536.2,732.5C543.5,732.5 550.7,732.5 558.0,732.5C565.3,732.5 572.5,732.5 579.8,732.5C587.1,732.5 594.3,732.5 601.6,732.5C608.9,732.5 616.2,732.5 623.4,732.5C630.7,732.5 638.0,732.5 645.2,732.5C652.5,732.5 659.8,732.5 667.0,732.5C674.3,732.5 681.6,732.5 688.9,732.5C696.1,732.5 703.4,732.5 710.7,732.5C717.9,732.5 725.2,732.5 732.5,732.5C739.7,732.5 747.0,732.5 754.3,732.5C761.6,732.5 768.8,732.5 776.1,732.5C783.4,732.5 790.6,732.5 797.9,732.5C805.2,732.5 812.4,732.5 819.7,732.5C827.0,732.5 834.3,732.5 841.5,732.5C848.8,732.5 856.1,732.5 863.3,732.5C870.6,732.5 877.9,732.5 885.1,732.5C892.4,732.5 899.7,732.5 907.0,732.5C914.2,732.5 921.5,732.5 928.8,732.5C936.0,732.5 943.3,732.5 950.6,732.5C957.8,732.5 965.1,732.5 972.4,732.5C979.7,732.5 986.9,732.5 994.2,732.5C1001.5,732.5 1008.7,732.5 1016.0,732.5L1016.0,776 L100.0,776 Z" fill="url(#as-9)" stroke="none"/>
<path d="M100.0,776.0C107.3,776.0 114.5,776.0 121.8,776.0C129.1,776.0 136.3,776.0 143.6,776.0C150.9,776.0 158.2,776.0 165.4,776.0C172.7,776.0 180.0,776.0 187.2,776.0C194.5,776.0 201.8,776.0 209.0,776.0C216.3,776.0 223.6,776.0 230.9,776.0C238.1,776.0 245.4,776.0 252.7,776.0C259.9,776.0 267.2,776.0 274.5,776.0C281.7,776.0 289.0,776.0 296.3,776.0C303.6,776.0 310.8,776.0 318.1,776.0C325.4,776.0 332.6,776.0 339.9,776.0C347.2,776.0 354.4,761.5 361.7,761.5C369.0,761.5 376.3,761.5 383.5,761.5C390.8,761.5 398.1,761.5 405.3,761.5C412.6,761.5 419.9,761.5 427.1,761.5C434.4,761.5 441.7,761.5 449.0,761.5C456.2,761.5 463.5,761.5 470.8,761.5C478.0,761.5 485.3,761.5 492.6,761.5C499.8,761.5 507.1,747.0 514.4,747.0C521.7,747.0 528.9,747.0 536.2,747.0C543.5,747.0 550.7,747.0 558.0,747.0C565.3,747.0 572.5,747.0 579.8,747.0C587.1,747.0 594.3,747.0 601.6,747.0C608.9,747.0 616.2,747.0 623.4,747.0C630.7,747.0 638.0,747.0 645.2,747.0C652.5,747.0 659.8,747.0 667.0,747.0C674.3,747.0 681.6,747.0 688.9,747.0C696.1,747.0 703.4,747.0 710.7,747.0C717.9,747.0 725.2,747.0 732.5,747.0C739.7,747.0 747.0,747.0 754.3,747.0C761.6,747.0 768.8,747.0 776.1,747.0C783.4,747.0 790.6,747.0 797.9,747.0C805.2,747.0 812.4,747.0 819.7,747.0C827.0,747.0 834.3,747.0 841.5,747.0C848.8,747.0 856.1,747.0 863.3,747.0C870.6,747.0 877.9,732.5 885.1,732.5C892.4,732.5 899.7,732.5 907.0,732.5C914.2,732.5 921.5,732.5 928.8,732.5C936.0,732.5 943.3,718.0 950.6,718.0C957.8,718.0 965.1,718.0 972.4,718.0C979.7,718.0 986.9,718.0 994.2,718.0C1001.5,718.0 1008.7,718.0 1016.0,718.0L1016.0,776 L100.0,776 Z" fill="url(#as-8)" stroke="none"/>
<path d="M100.0,776.0C107.3,776.0 114.5,776.0 121.8,776.0C129.1,776.0 136.3,761.5 143.6,761.5C150.9,761.5 158.2,761.5 165.4,761.5C172.7,761.5 180.0,761.5 187.2,761.5C194.5,761.5 201.8,761.5 209.0,761.5C216.3,761.5 223.6,761.5 230.9,761.5C238.1,761.5 245.4,761.5 252.7,761.5C259.9,761.5 267.2,761.5 274.5,761.5C281.7,761.5 289.0,761.5 296.3,761.5C303.6,761.5 310.8,761.5 318.1,761.5C325.4,761.5 332.6,761.5 339.9,761.5C347.2,761.5 354.4,761.5 361.7,761.5C369.0,761.5 376.3,761.5 383.5,761.5C390.8,761.5 398.1,761.5 405.3,761.5C412.6,761.5 419.9,761.5 427.1,761.5C434.4,761.5 441.7,761.5 449.0,761.5C456.2,761.5 463.5,761.5 470.8,761.5C478.0,761.5 485.3,761.5 492.6,761.5C499.8,761.5 507.1,761.5 514.4,761.5C521.7,761.5 528.9,747.0 536.2,747.0C543.5,747.0 550.7,747.0 558.0,747.0C565.3,747.0 572.5,747.0 579.8,747.0C587.1,747.0 594.3,747.0 601.6,747.0C608.9,747.0 616.2,747.0 623.4,747.0C630.7,747.0 638.0,747.0 645.2,747.0C652.5,747.0 659.8,747.0 667.0,747.0C674.3,747.0 681.6,747.0 688.9,747.0C696.1,747.0 703.4,747.0 710.7,747.0C717.9,747.0 725.2,747.0 732.5,747.0C739.7,747.0 747.0,747.0 754.3,747.0C761.6,747.0 768.8,747.0 776.1,747.0C783.4,747.0 790.6,747.0 797.9,747.0C805.2,747.0 812.4,747.0 819.7,747.0C827.0,747.0 834.3,732.5 841.5,732.5C848.8,732.5 856.1,732.5 863.3,732.5C870.6,732.5 877.9,718.0 885.1,718.0C892.4,718.0 899.7,718.0 907.0,718.0C914.2,718.0 921.5,718.0 928.8,718.0C936.0,718.0 943.3,718.0 950.6,718.0C957.8,718.0 965.1,718.0 972.4,718.0C979.7,718.0 986.9,718.0 994.2,718.0C1001.5,718.0 1008.7,718.0 1016.0,718.0L1016.0,776 L100.0,776 Z" fill="url(#as-7)" stroke="none"/>
<path d="M100.0,776.0C107.3,776.0 114.5,776.0 121.8,776.0C129.1,776.0 136.3,776.0 143.6,776.0C150.9,776.0 158.2,776.0 165.4,776.0C172.7,776.0 180.0,776.0 187.2,776.0C194.5,776.0 201.8,776.0 209.0,776.0C216.3,776.0 223.6,776.0 230.9,776.0C238.1,776.0 245.4,776.0 252.7,776.0C259.9,776.0 267.2,776.0 274.5,776.0C281.7,776.0 289.0,776.0 296.3,776.0C303.6,776.0 310.8,776.0 318.1,776.0C325.4,776.0 332.6,776.0 339.9,776.0C347.2,776.0 354.4,776.0 361.7,776.0C369.0,776.0 376.3,776.0 383.5,776.0C390.8,776.0 398.1,776.0 405.3,776.0C412.6,776.0 419.9,776.0 427.1,776.0C434.4,776.0 441.7,761.5 449.0,761.5C456.2,761.5 463.5,761.5 470.8,761.5C478.0,761.5 485.3,761.5 492.6,761.5C499.8,761.5 507.1,761.5 514.4,761.5C521.7,761.5 528.9,761.5 536.2,761.5C543.5,761.5 550.7,747.0 558.0,747.0C565.3,747.0 572.5,747.0 579.8,747.0C587.1,747.0 594.3,737.3 601.6,732.5C608.9,727.7 616.2,718.0 623.4,718.0C630.7,718.0 638.0,718.0 645.2,718.0C652.5,718.0 659.8,718.0 667.0,718.0C674.3,718.0 681.6,718.0 688.9,718.0C696.1,718.0 703.4,718.0 710.7,718.0C717.9,718.0 725.2,718.0 732.5,718.0C739.7,718.0 747.0,718.0 754.3,718.0C761.6,718.0 768.8,718.0 776.1,718.0C783.4,718.0 790.6,718.0 797.9,718.0C805.2,718.0 812.4,718.0 819.7,718.0C827.0,718.0 834.3,718.0 841.5,718.0C848.8,718.0 856.1,718.0 863.3,718.0C870.6,718.0 877.9,718.0 885.1,718.0C892.4,718.0 899.7,718.0 907.0,718.0C914.2,718.0 921.5,718.0 928.8,718.0C936.0,718.0 943.3,718.0 950.6,718.0C957.8,718.0 965.1,718.0 972.4,718.0C979.7,718.0 986.9,718.0 994.2,718.0C1001.5,718.0 1008.7,718.0 1016.0,718.0L1016.0,776 L100.0,776 Z" fill="url(#as-6)" stroke="none"/>
<path d="M100.0,776.0C107.3,776.0 114.5,776.0 121.8,776.0C129.1,776.0 136.3,776.0 143.6,776.0C150.9,776.0 158.2,776.0 165.4,776.0C172.7,776.0 180.0,761.5 187.2,761.5C194.5,761.5 201.8,761.5 209.0,761.5C216.3,761.5 223.6,761.5 230.9,761.5C238.1,761.5 245.4,747.0 252.7,747.0C259.9,747.0 267.2,747.0 274.5,747.0C281.7,747.0 289.0,747.0 296.3,747.0C303.6,747.0 310.8,747.0 318.1,747.0C325.4,747.0 332.6,747.0 339.9,747.0C347.2,747.0 354.4,747.0 361.7,747.0C369.0,747.0 376.3,732.5 383.5,732.5C390.8,732.5 398.1,732.5 405.3,732.5C412.6,732.5 419.9,732.5 427.1,732.5C434.4,732.5 441.7,732.5 449.0,732.5C456.2,732.5 463.5,732.5 470.8,732.5C478.0,732.5 485.3,732.5 492.6,732.5C499.8,732.5 507.1,732.5 514.4,732.5C521.7,732.5 528.9,718.0 536.2,718.0C543.5,718.0 550.7,718.0 558.0,718.0C565.3,718.0 572.5,718.0 579.8,718.0C587.1,718.0 594.3,718.0 601.6,718.0C608.9,718.0 616.2,718.0 623.4,718.0C630.7,718.0 638.0,718.0 645.2,718.0C652.5,718.0 659.8,718.0 667.0,718.0C674.3,718.0 681.6,718.0 688.9,718.0C696.1,718.0 703.4,718.0 710.7,718.0C717.9,718.0 725.2,718.0 732.5,718.0C739.7,718.0 747.0,718.0 754.3,718.0C761.6,718.0 768.8,718.0 776.1,718.0C783.4,718.0 790.6,718.0 797.9,718.0C805.2,718.0 812.4,718.0 819.7,718.0C827.0,718.0 834.3,718.0 841.5,718.0C848.8,718.0 856.1,718.0 863.3,718.0C870.6,718.0 877.9,718.0 885.1,718.0C892.4,718.0 899.7,718.0 907.0,718.0C914.2,718.0 921.5,718.0 928.8,718.0C936.0,718.0 943.3,718.0 950.6,718.0C957.8,718.0 965.1,718.0 972.4,718.0C979.7,718.0 986.9,718.0 994.2,718.0C1001.5,718.0 1008.7,718.0 1016.0,718.0L1016.0,776 L100.0,776 Z" fill="url(#as-5)" stroke="none"/>
<path d="M100.0,776.0C107.3,776.0 114.5,776.0 121.8,776.0C129.1,776.0 136.3,776.0 143.6,776.0C150.9,776.0 158.2,776.0 165.4,776.0C172.7,776.0 180.0,776.0 187.2,776.0C194.5,776.0 201.8,776.0 209.0,776.0C216.3,776.0 223.6,776.0 230.9,776.0C238.1,776.0 245.4,776.0 252.7,776.0C259.9,776.0 267.2,776.0 274.5,776.0C281.7,776.0 289.0,776.0 296.3,776.0C303.6,776.0 310.8,776.0 318.1,776.0C325.4,776.0 332.6,776.0 339.9,776.0C347.2,776.0 354.4,776.0 361.7,776.0C369.0,776.0 376.3,776.0 383.5,776.0C390.8,776.0 398.1,776.0 405.3,776.0C412.6,776.0 419.9,776.0 427.1,776.0C434.4,776.0 441.7,776.0 449.0,776.0C456.2,776.0 463.5,776.0 470.8,776.0C478.0,776.0 485.3,776.0 492.6,776.0C499.8,776.0 507.1,776.0 514.4,776.0C521.7,776.0 528.9,776.0 536.2,776.0C543.5,776.0 550.7,776.0 558.0,776.0C565.3,776.0 572.5,761.5 579.8,761.5C587.1,761.5 594.3,761.5 601.6,761.5C608.9,761.5 616.2,761.5 623.4,761.5C630.7,761.5 638.0,732.5 645.2,732.5C652.5,732.5 659.8,732.5 667.0,732.5C674.3,732.5 681.6,732.5 688.9,732.5C696.1,732.5 703.4,718.0 710.7,718.0C717.9,718.0 725.2,718.0 732.5,718.0C739.7,718.0 747.0,718.0 754.3,718.0C761.6,718.0 768.8,718.0 776.1,718.0C783.4,718.0 790.6,718.0 797.9,718.0C805.2,718.0 812.4,703.5 819.7,703.5C827.0,703.5 834.3,703.5 841.5,703.5C848.8,703.5 856.1,703.5 863.3,703.5C870.6,703.5 877.9,703.5 885.1,703.5C892.4,703.5 899.7,703.5 907.0,703.5C914.2,703.5 921.5,703.5 928.8,703.5C936.0,703.5 943.3,703.5 950.6,703.5C957.8,703.5 965.1,703.5 972.4,703.5C979.7,703.5 986.9,703.5 994.2,703.5C1001.5,703.5 1008.7,703.5 1016.0,703.5L1016.0,776 L100.0,776 Z" fill="url(#as-4)" stroke="none"/>
<path d="M100.0,776.0C107.3,776.0 114.5,776.0 121.8,776.0C129.1,776.0 136.3,761.5 143.6,761.5C150.9,761.5 158.2,761.5 165.4,761.5C172.7,761.5 180.0,761.5 187.2,761.5C194.5,761.5 201.8,761.5 209.0,761.5C216.3,761.5 223.6,761.5 230.9,761.5C238.1,761.5 245.4,747.0 252.7,747.0C259.9,747.0 267.2,747.0 274.5,747.0C281.7,747.0 289.0,747.0 296.3,747.0C303.6,747.0 310.8,747.0 318.1,747.0C325.4,747.0 332.6,747.0 339.9,747.0C347.2,747.0 354.4,732.5 361.7,732.5C369.0,732.5 376.3,732.5 383.5,732.5C390.8,732.5 398.1,710.8 405.3,703.5C412.6,696.3 419.9,689.0 427.1,689.0C434.4,689.0 441.7,689.0 449.0,689.0C456.2,689.0 463.5,689.0 470.8,689.0C478.0,689.0 485.3,689.0 492.6,689.0C499.8,689.0 507.1,689.0 514.4,689.0C521.7,689.0 528.9,689.0 536.2,689.0C543.5,689.0 550.7,689.0 558.0,689.0C565.3,689.0 572.5,689.0 579.8,689.0C587.1,689.0 594.3,689.0 601.6,689.0C608.9,689.0 616.2,689.0 623.4,689.0C630.7,689.0 638.0,689.0 645.2,689.0C652.5,689.0 659.8,674.5 667.0,674.5C674.3,674.5 681.6,674.5 688.9,674.5C696.1,674.5 703.4,674.5 710.7,674.5C717.9,674.5 725.2,674.5 732.5,674.5C739.7,674.5 747.0,674.5 754.3,674.5C761.6,674.5 768.8,645.5 776.1,645.5C783.4,645.5 790.6,645.5 797.9,645.5C805.2,645.5 812.4,645.5 819.7,645.5C827.0,645.5 834.3,645.5 841.5,645.5C848.8,645.5 856.1,645.5 863.3,645.5C870.6,645.5 877.9,645.5 885.1,645.5C892.4,645.5 899.7,645.5 907.0,645.5C914.2,645.5 921.5,631.0 928.8,631.0C936.0,631.0 943.3,631.0 950.6,631.0C957.8,631.0 965.1,616.5 972.4,616.5C979.7,616.5 986.9,616.5 994.2,616.5C1001.5,616.5 1008.7,616.5 1016.0,616.5L1016.0,776 L100.0,776 Z" fill="url(#as-3)" stroke="none"/>
<path d="M100.0,776.0C107.3,776.0 114.5,776.0 121.8,776.0C129.1,776.0 136.3,761.5 143.6,761.5C150.9,761.5 158.2,761.5 165.4,761.5C172.7,761.5 180.0,761.5 187.2,761.5C194.5,761.5 201.8,761.5 209.0,761.5C216.3,761.5 223.6,761.5 230.9,761.5C238.1,761.5 245.4,747.0 252.7,747.0C259.9,747.0 267.2,747.0 274.5,747.0C281.7,747.0 289.0,747.0 296.3,747.0C303.6,747.0 310.8,739.8 318.1,732.5C325.4,725.3 332.6,703.5 339.9,703.5C347.2,703.5 354.4,703.5 361.7,703.5C369.0,703.5 376.3,703.5 383.5,703.5C390.8,703.5 398.1,703.5 405.3,703.5C412.6,703.5 419.9,698.7 427.1,689.0C434.4,679.3 441.7,645.5 449.0,645.5C456.2,645.5 463.5,645.5 470.8,645.5C478.0,645.5 485.3,635.8 492.6,631.0C499.8,626.2 507.1,616.5 514.4,616.5C521.7,616.5 528.9,616.5 536.2,616.5C543.5,616.5 550.7,616.5 558.0,616.5C565.3,616.5 572.5,616.5 579.8,616.5C587.1,616.5 594.3,616.5 601.6,616.5C608.9,616.5 616.2,616.5 623.4,616.5C630.7,616.5 638.0,616.5 645.2,616.5C652.5,616.5 659.8,616.5 667.0,616.5C674.3,616.5 681.6,616.5 688.9,616.5C696.1,616.5 703.4,616.5 710.7,616.5C717.9,616.5 725.2,616.5 732.5,616.5C739.7,616.5 747.0,616.5 754.3,616.5C761.6,616.5 768.8,602.0 776.1,602.0C783.4,602.0 790.6,602.0 797.9,602.0C805.2,602.0 812.4,602.0 819.7,602.0C827.0,602.0 834.3,602.0 841.5,602.0C848.8,602.0 856.1,602.0 863.3,602.0C870.6,602.0 877.9,602.0 885.1,602.0C892.4,602.0 899.7,602.0 907.0,602.0C914.2,602.0 921.5,602.0 928.8,602.0C936.0,602.0 943.3,587.5 950.6,587.5C957.8,587.5 965.1,587.5 972.4,587.5C979.7,587.5 986.9,587.5 994.2,587.5C1001.5,587.5 1008.7,587.5 1016.0,587.5L1016.0,776 L100.0,776 Z" fill="url(#as-2)" stroke="none"/>
<path d="M100.0,776.0C107.3,776.0 114.5,776.0 121.8,776.0C129.1,776.0 136.3,776.0 143.6,776.0C150.9,776.0 158.2,776.0 165.4,776.0C172.7,776.0 180.0,776.0 187.2,776.0C194.5,776.0 201.8,776.0 209.0,776.0C216.3,776.0 223.6,776.0 230.9,776.0C238.1,776.0 245.4,776.0 252.7,776.0C259.9,776.0 267.2,776.0 274.5,776.0C281.7,776.0 289.0,776.0 296.3,776.0C303.6,776.0 310.8,776.0 318.1,776.0C325.4,776.0 332.6,776.0 339.9,776.0C347.2,776.0 354.4,776.0 361.7,776.0C369.0,776.0 376.3,776.0 383.5,776.0C390.8,776.0 398.1,776.0 405.3,776.0C412.6,776.0 419.9,776.0 427.1,776.0C434.4,776.0 441.7,776.0 449.0,776.0C456.2,776.0 463.5,776.0 470.8,776.0C478.0,776.0 485.3,776.0 492.6,776.0C499.8,776.0 507.1,776.0 514.4,776.0C521.7,776.0 528.9,776.0 536.2,776.0C543.5,776.0 550.7,776.0 558.0,776.0C565.3,776.0 572.5,730.1 579.8,718.0C587.1,705.9 594.3,703.5 601.6,703.5C608.9,703.5 616.2,703.5 623.4,703.5C630.7,703.5 638.0,703.5 645.2,703.5C652.5,703.5 659.8,703.5 667.0,703.5C674.3,703.5 681.6,681.8 688.9,674.5C696.1,667.3 703.4,664.8 710.7,660.0C717.9,655.2 725.2,650.3 732.5,645.5C739.7,640.7 747.0,635.8 754.3,631.0C761.6,626.2 768.8,621.3 776.1,616.5C783.4,611.7 790.6,606.8 797.9,602.0C805.2,597.2 812.4,594.8 819.7,587.5C827.0,580.3 834.3,565.8 841.5,558.5C848.8,551.3 856.1,553.7 863.3,544.0C870.6,534.3 877.9,512.6 885.1,500.5C892.4,488.4 899.7,471.5 907.0,471.5C914.2,471.5 921.5,471.5 928.8,471.5C936.0,471.5 943.3,449.8 950.6,442.5C957.8,435.3 965.1,428.0 972.4,428.0C979.7,428.0 986.9,428.0 994.2,428.0C1001.5,428.0 1008.7,428.0 1016.0,428.0L1016.0,776 L100.0,776 Z" fill="url(#as-1)" stroke="none"/>
<path d="M100.0,776.0C107.3,776.0 114.5,776.0 121.8,776.0C129.1,776.0 136.3,776.0 143.6,776.0C150.9,776.0 158.2,776.0 165.4,776.0C172.7,776.0 180.0,776.0 187.2,776.0C194.5,776.0 201.8,776.0 209.0,776.0C216.3,776.0 223.6,776.0 230.9,776.0C238.1,776.0 245.4,776.0 252.7,776.0C259.9,776.0 267.2,776.0 274.5,776.0C281.7,776.0 289.0,776.0 296.3,776.0C303.6,776.0 310.8,776.0 318.1,776.0C325.4,776.0 332.6,776.0 339.9,776.0C347.2,776.0 354.4,776.0 361.7,776.0C369.0,776.0 376.3,776.0 383.5,776.0C390.8,776.0 398.1,776.0 405.3,776.0C412.6,776.0 419.9,749.4 427.1,732.5C434.4,715.6 441.7,685.8 449.0,674.5C456.2,663.2 463.5,669.1 470.8,660.0C478.0,650.9 485.3,628.6 492.6,616.5C499.8,604.4 507.1,597.2 514.4,587.5C521.7,577.8 528.9,568.2 536.2,558.5C543.5,548.8 550.7,529.5 558.0,529.5C565.3,529.5 572.5,529.5 579.8,529.5C587.1,529.5 594.3,519.8 601.6,515.0C608.9,510.2 616.2,507.8 623.4,500.5C630.7,493.3 638.0,478.8 645.2,471.5C652.5,464.3 659.8,464.3 667.0,457.0C674.3,449.8 681.6,428.0 688.9,428.0C696.1,428.0 703.4,428.0 710.7,428.0C717.9,428.0 725.2,428.0 732.5,428.0C739.7,428.0 747.0,428.0 754.3,428.0C761.6,428.0 768.8,413.5 776.1,413.5C783.4,413.5 790.6,413.5 797.9,413.5C805.2,413.5 812.4,413.5 819.7,413.5C827.0,413.5 834.3,413.5 841.5,413.5C848.8,413.5 856.1,399.0 863.3,399.0C870.6,399.0 877.9,399.0 885.1,399.0C892.4,399.0 899.7,370.0 907.0,370.0C914.2,370.0 921.5,370.0 928.8,370.0C936.0,370.0 943.3,336.2 950.6,326.5C957.8,316.8 965.1,312.0 972.4,312.0C979.7,312.0 986.9,312.0 994.2,312.0C1001.5,312.0 1008.7,312.0 1016.0,312.0L1016.0,776 L100.0,776 Z" fill="url(#as-0)" stroke="none"/>
<path d="M100.0,776.0C107.3,776.0 114.5,776.0 121.8,776.0C129.1,776.0 136.3,776.0 143.6,776.0C150.9,776.0 158.2,761.5 165.4,761.5C172.7,761.5 180.0,761.5 187.2,761.5C194.5,761.5 201.8,747.0 209.0,747.0C216.3,747.0 223.6,747.0 230.9,747.0C238.1,747.0 245.4,732.5 252.7,732.5C259.9,732.5 267.2,732.5 274.5,732.5C281.7,732.5 289.0,732.5 296.3,732.5C303.6,732.5 310.8,732.5 318.1,732.5C325.4,732.5 332.6,732.5 339.9,732.5C347.2,732.5 354.4,732.5 361.7,732.5C369.0,732.5 376.3,732.5 383.5,732.5C390.8,732.5 398.1,732.5 405.3,732.5C412.6,732.5 419.9,732.5 427.1,732.5C434.4,732.5 441.7,732.5 449.0,732.5C456.2,732.5 463.5,732.5 470.8,732.5C478.0,732.5 485.3,732.5 492.6,732.5C499.8,732.5 507.1,732.5 514.4,732.5C521.7,732.5 528.9,732.5 536.2,732.5C543.5,732.5 550.7,732.5 558.0,732.5C565.3,732.5 572.5,732.5 579.8,732.5C587.1,732.5 594.3,732.5 601.6,732.5C608.9,732.5 616.2,732.5 623.4,732.5C630.7,732.5 638.0,732.5 645.2,732.5C652.5,732.5 659.8,732.5 667.0,732.5C674.3,732.5 681.6,732.5 688.9,732.5C696.1,732.5 703.4,732.5 710.7,732.5C717.9,732.5 725.2,732.5 732.5,732.5C739.7,732.5 747.0,732.5 754.3,732.5C761.6,732.5 768.8,732.5 776.1,732.5C783.4,732.5 790.6,732.5 797.9,732.5C805.2,732.5 812.4,732.5 819.7,732.5C827.0,732.5 834.3,732.5 841.5,732.5C848.8,732.5 856.1,732.5 863.3,732.5C870.6,732.5 877.9,732.5 885.1,732.5C892.4,732.5 899.7,732.5 907.0,732.5C914.2,732.5 921.5,732.5 928.8,732.5C936.0,732.5 943.3,732.5 950.6,732.5C957.8,732.5 965.1,732.5 972.4,732.5C979.7,732.5 986.9,732.5 994.2,732.5C1001.5,732.5 1008.7,732.5 1016.0,732.5" fill="none" stroke="url(#ls-9)" stroke-width="3.5" stroke-linecap="round"/>
<circle cx="1016" cy="732.5" r="9" fill="#64748b" fill-opacity="0.22"/>
<circle cx="1016" cy="732.5" r="4.5" fill="#64748b"/>
<path d="M100.0,776.0C107.3,776.0 114.5,776.0 121.8,776.0C129.1,776.0 136.3,776.0 143.6,776.0C150.9,776.0 158.2,776.0 165.4,776.0C172.7,776.0 180.0,776.0 187.2,776.0C194.5,776.0 201.8,776.0 209.0,776.0C216.3,776.0 223.6,776.0 230.9,776.0C238.1,776.0 245.4,776.0 252.7,776.0C259.9,776.0 267.2,776.0 274.5,776.0C281.7,776.0 289.0,776.0 296.3,776.0C303.6,776.0 310.8,776.0 318.1,776.0C325.4,776.0 332.6,776.0 339.9,776.0C347.2,776.0 354.4,761.5 361.7,761.5C369.0,761.5 376.3,761.5 383.5,761.5C390.8,761.5 398.1,761.5 405.3,761.5C412.6,761.5 419.9,761.5 427.1,761.5C434.4,761.5 441.7,761.5 449.0,761.5C456.2,761.5 463.5,761.5 470.8,761.5C478.0,761.5 485.3,761.5 492.6,761.5C499.8,761.5 507.1,747.0 514.4,747.0C521.7,747.0 528.9,747.0 536.2,747.0C543.5,747.0 550.7,747.0 558.0,747.0C565.3,747.0 572.5,747.0 579.8,747.0C587.1,747.0 594.3,747.0 601.6,747.0C608.9,747.0 616.2,747.0 623.4,747.0C630.7,747.0 638.0,747.0 645.2,747.0C652.5,747.0 659.8,747.0 667.0,747.0C674.3,747.0 681.6,747.0 688.9,747.0C696.1,747.0 703.4,747.0 710.7,747.0C717.9,747.0 725.2,747.0 732.5,747.0C739.7,747.0 747.0,747.0 754.3,747.0C761.6,747.0 768.8,747.0 776.1,747.0C783.4,747.0 790.6,747.0 797.9,747.0C805.2,747.0 812.4,747.0 819.7,747.0C827.0,747.0 834.3,747.0 841.5,747.0C848.8,747.0 856.1,747.0 863.3,747.0C870.6,747.0 877.9,732.5 885.1,732.5C892.4,732.5 899.7,732.5 907.0,732.5C914.2,732.5 921.5,732.5 928.8,732.5C936.0,732.5 943.3,718.0 950.6,718.0C957.8,718.0 965.1,718.0 972.4,718.0C979.7,718.0 986.9,718.0 994.2,718.0C1001.5,718.0 1008.7,718.0 1016.0,718.0" fill="none" stroke="url(#ls-8)" stroke-width="3.5" stroke-linecap="round"/>
<circle cx="1016" cy="718" r="9" fill="#4f46e5" fill-opacity="0.22"/>
<circle cx="1016" cy="718" r="4.5" fill="#4f46e5"/>
<path d="M100.0,776.0C107.3,776.0 114.5,776.0 121.8,776.0C129.1,776.0 136.3,761.5 143.6,761.5C150.9,761.5 158.2,761.5 165.4,761.5C172.7,761.5 180.0,761.5 187.2,761.5C194.5,761.5 201.8,761.5 209.0,761.5C216.3,761.5 223.6,761.5 230.9,761.5C238.1,761.5 245.4,761.5 252.7,761.5C259.9,761.5 267.2,761.5 274.5,761.5C281.7,761.5 289.0,761.5 296.3,761.5C303.6,761.5 310.8,761.5 318.1,761.5C325.4,761.5 332.6,761.5 339.9,761.5C347.2,761.5 354.4,761.5 361.7,761.5C369.0,761.5 376.3,761.5 383.5,761.5C390.8,761.5 398.1,761.5 405.3,761.5C412.6,761.5 419.9,761.5 427.1,761.5C434.4,761.5 441.7,761.5 449.0,761.5C456.2,761.5 463.5,761.5 470.8,761.5C478.0,761.5 485.3,761.5 492.6,761.5C499.8,761.5 507.1,761.5 514.4,761.5C521.7,761.5 528.9,747.0 536.2,747.0C543.5,747.0 550.7,747.0 558.0,747.0C565.3,747.0 572.5,747.0 579.8,747.0C587.1,747.0 594.3,747.0 601.6,747.0C608.9,747.0 616.2,747.0 623.4,747.0C630.7,747.0 638.0,747.0 645.2,747.0C652.5,747.0 659.8,747.0 667.0,747.0C674.3,747.0 681.6,747.0 688.9,747.0C696.1,747.0 703.4,747.0 710.7,747.0C717.9,747.0 725.2,747.0 732.5,747.0C739.7,747.0 747.0,747.0 754.3,747.0C761.6,747.0 768.8,747.0 776.1,747.0C783.4,747.0 790.6,747.0 797.9,747.0C805.2,747.0 812.4,747.0 819.7,747.0C827.0,747.0 834.3,732.5 841.5,732.5C848.8,732.5 856.1,732.5 863.3,732.5C870.6,732.5 877.9,718.0 885.1,718.0C892.4,718.0 899.7,718.0 907.0,718.0C914.2,718.0 921.5,718.0 928.8,718.0C936.0,718.0 943.3,718.0 950.6,718.0C957.8,718.0 965.1,718.0 972.4,718.0C979.7,718.0 986.9,718.0 994.2,718.0C1001.5,718.0 1008.7,718.0 1016.0,718.0" fill="none" stroke="url(#ls-7)" stroke-width="3.5" stroke-linecap="round"/>
<circle cx="1016" cy="718" r="9" fill="#ea580c" fill-opacity="0.22"/>
<circle cx="1016" cy="718" r="4.5" fill="#ea580c"/>
<path d="M100.0,776.0C107.3,776.0 114.5,776.0 121.8,776.0C129.1,776.0 136.3,776.0 143.6,776.0C150.9,776.0 158.2,776.0 165.4,776.0C172.7,776.0 180.0,776.0 187.2,776.0C194.5,776.0 201.8,776.0 209.0,776.0C216.3,776.0 223.6,776.0 230.9,776.0C238.1,776.0 245.4,776.0 252.7,776.0C259.9,776.0 267.2,776.0 274.5,776.0C281.7,776.0 289.0,776.0 296.3,776.0C303.6,776.0 310.8,776.0 318.1,776.0C325.4,776.0 332.6,776.0 339.9,776.0C347.2,776.0 354.4,776.0 361.7,776.0C369.0,776.0 376.3,776.0 383.5,776.0C390.8,776.0 398.1,776.0 405.3,776.0C412.6,776.0 419.9,776.0 427.1,776.0C434.4,776.0 441.7,761.5 449.0,761.5C456.2,761.5 463.5,761.5 470.8,761.5C478.0,761.5 485.3,761.5 492.6,761.5C499.8,761.5 507.1,761.5 514.4,761.5C521.7,761.5 528.9,761.5 536.2,761.5C543.5,761.5 550.7,747.0 558.0,747.0C565.3,747.0 572.5,747.0 579.8,747.0C587.1,747.0 594.3,737.3 601.6,732.5C608.9,727.7 616.2,718.0 623.4,718.0C630.7,718.0 638.0,718.0 645.2,718.0C652.5,718.0 659.8,718.0 667.0,718.0C674.3,718.0 681.6,718.0 688.9,718.0C696.1,718.0 703.4,718.0 710.7,718.0C717.9,718.0 725.2,718.0 732.5,718.0C739.7,718.0 747.0,718.0 754.3,718.0C761.6,718.0 768.8,718.0 776.1,718.0C783.4,718.0 790.6,718.0 797.9,718.0C805.2,718.0 812.4,718.0 819.7,718.0C827.0,718.0 834.3,718.0 841.5,718.0C848.8,718.0 856.1,718.0 863.3,718.0C870.6,718.0 877.9,718.0 885.1,718.0C892.4,718.0 899.7,718.0 907.0,718.0C914.2,718.0 921.5,718.0 928.8,718.0C936.0,718.0 943.3,718.0 950.6,718.0C957.8,718.0 965.1,718.0 972.4,718.0C979.7,718.0 986.9,718.0 994.2,718.0C1001.5,718.0 1008.7,718.0 1016.0,718.0" fill="none" stroke="url(#ls-6)" stroke-width="3.5" stroke-linecap="round"/>
<circle cx="1016" cy="718" r="9" fill="#db2777" fill-opacity="0.22"/>
<circle cx="1016" cy="718" r="4.5" fill="#db2777"/>
<path d="M100.0,776.0C107.3,776.0 114.5,776.0 121.8,776.0C129.1,776.0 136.3,776.0 143.6,776.0C150.9,776.0 158.2,776.0 165.4,776.0C172.7,776.0 180.0,761.5 187.2,761.5C194.5,761.5 201.8,761.5 209.0,761.5C216.3,761.5 223.6,761.5 230.9,761.5C238.1,761.5 245.4,747.0 252.7,747.0C259.9,747.0 267.2,747.0 274.5,747.0C281.7,747.0 289.0,747.0 296.3,747.0C303.6,747.0 310.8,747.0 318.1,747.0C325.4,747.0 332.6,747.0 339.9,747.0C347.2,747.0 354.4,747.0 361.7,747.0C369.0,747.0 376.3,732.5 383.5,732.5C390.8,732.5 398.1,732.5 405.3,732.5C412.6,732.5 419.9,732.5 427.1,732.5C434.4,732.5 441.7,732.5 449.0,732.5C456.2,732.5 463.5,732.5 470.8,732.5C478.0,732.5 485.3,732.5 492.6,732.5C499.8,732.5 507.1,732.5 514.4,732.5C521.7,732.5 528.9,718.0 536.2,718.0C543.5,718.0 550.7,718.0 558.0,718.0C565.3,718.0 572.5,718.0 579.8,718.0C587.1,718.0 594.3,718.0 601.6,718.0C608.9,718.0 616.2,718.0 623.4,718.0C630.7,718.0 638.0,718.0 645.2,718.0C652.5,718.0 659.8,718.0 667.0,718.0C674.3,718.0 681.6,718.0 688.9,718.0C696.1,718.0 703.4,718.0 710.7,718.0C717.9,718.0 725.2,718.0 732.5,718.0C739.7,718.0 747.0,718.0 754.3,718.0C761.6,718.0 768.8,718.0 776.1,718.0C783.4,718.0 790.6,718.0 797.9,718.0C805.2,718.0 812.4,718.0 819.7,718.0C827.0,718.0 834.3,718.0 841.5,718.0C848.8,718.0 856.1,718.0 863.3,718.0C870.6,718.0 877.9,718.0 885.1,718.0C892.4,718.0 899.7,718.0 907.0,718.0C914.2,718.0 921.5,718.0 928.8,718.0C936.0,718.0 943.3,718.0 950.6,718.0C957.8,718.0 965.1,718.0 972.4,718.0C979.7,718.0 986.9,718.0 994.2,718.0C1001.5,718.0 1008.7,718.0 1016.0,718.0" fill="none" stroke="url(#ls-5)" stroke-width="3.5" stroke-linecap="round"/>
<circle cx="1016" cy="718" r="9" fill="#0891b2" fill-opacity="0.22"/>
<circle cx="1016" cy="718" r="4.5" fill="#0891b2"/>
<path d="M100.0,776.0C107.3,776.0 114.5,776.0 121.8,776.0C129.1,776.0 136.3,776.0 143.6,776.0C150.9,776.0 158.2,776.0 165.4,776.0C172.7,776.0 180.0,776.0 187.2,776.0C194.5,776.0 201.8,776.0 209.0,776.0C216.3,776.0 223.6,776.0 230.9,776.0C238.1,776.0 245.4,776.0 252.7,776.0C259.9,776.0 267.2,776.0 274.5,776.0C281.7,776.0 289.0,776.0 296.3,776.0C303.6,776.0 310.8,776.0 318.1,776.0C325.4,776.0 332.6,776.0 339.9,776.0C347.2,776.0 354.4,776.0 361.7,776.0C369.0,776.0 376.3,776.0 383.5,776.0C390.8,776.0 398.1,776.0 405.3,776.0C412.6,776.0 419.9,776.0 427.1,776.0C434.4,776.0 441.7,776.0 449.0,776.0C456.2,776.0 463.5,776.0 470.8,776.0C478.0,776.0 485.3,776.0 492.6,776.0C499.8,776.0 507.1,776.0 514.4,776.0C521.7,776.0 528.9,776.0 536.2,776.0C543.5,776.0 550.7,776.0 558.0,776.0C565.3,776.0 572.5,761.5 579.8,761.5C587.1,761.5 594.3,761.5 601.6,761.5C608.9,761.5 616.2,761.5 623.4,761.5C630.7,761.5 638.0,732.5 645.2,732.5C652.5,732.5 659.8,732.5 667.0,732.5C674.3,732.5 681.6,732.5 688.9,732.5C696.1,732.5 703.4,718.0 710.7,718.0C717.9,718.0 725.2,718.0 732.5,718.0C739.7,718.0 747.0,718.0 754.3,718.0C761.6,718.0 768.8,718.0 776.1,718.0C783.4,718.0 790.6,718.0 797.9,718.0C805.2,718.0 812.4,703.5 819.7,703.5C827.0,703.5 834.3,703.5 841.5,703.5C848.8,703.5 856.1,703.5 863.3,703.5C870.6,703.5 877.9,703.5 885.1,703.5C892.4,703.5 899.7,703.5 907.0,703.5C914.2,703.5 921.5,703.5 928.8,703.5C936.0,703.5 943.3,703.5 950.6,703.5C957.8,703.5 965.1,703.5 972.4,703.5C979.7,703.5 986.9,703.5 994.2,703.5C1001.5,703.5 1008.7,703.5 1016.0,703.5" fill="none" stroke="url(#ls-4)" stroke-width="3.5" stroke-linecap="round"/>
<circle cx="1016" cy="703.5" r="9" fill="#7c3aed" fill-opacity="0.22"/>
<circle cx="1016" cy="703.5" r="4.5" fill="#7c3aed"/>
<path d="M100.0,776.0C107.3,776.0 114.5,776.0 121.8,776.0C129.1,776.0 136.3,761.5 143.6,761.5C150.9,761.5 158.2,761.5 165.4,761.5C172.7,761.5 180.0,761.5 187.2,761.5C194.5,761.5 201.8,761.5 209.0,761.5C216.3,761.5 223.6,761.5 230.9,761.5C238.1,761.5 245.4,747.0 252.7,747.0C259.9,747.0 267.2,747.0 274.5,747.0C281.7,747.0 289.0,747.0 296.3,747.0C303.6,747.0 310.8,747.0 318.1,747.0C325.4,747.0 332.6,747.0 339.9,747.0C347.2,747.0 354.4,732.5 361.7,732.5C369.0,732.5 376.3,732.5 383.5,732.5C390.8,732.5 398.1,710.8 405.3,703.5C412.6,696.3 419.9,689.0 427.1,689.0C434.4,689.0 441.7,689.0 449.0,689.0C456.2,689.0 463.5,689.0 470.8,689.0C478.0,689.0 485.3,689.0 492.6,689.0C499.8,689.0 507.1,689.0 514.4,689.0C521.7,689.0 528.9,689.0 536.2,689.0C543.5,689.0 550.7,689.0 558.0,689.0C565.3,689.0 572.5,689.0 579.8,689.0C587.1,689.0 594.3,689.0 601.6,689.0C608.9,689.0 616.2,689.0 623.4,689.0C630.7,689.0 638.0,689.0 645.2,689.0C652.5,689.0 659.8,674.5 667.0,674.5C674.3,674.5 681.6,674.5 688.9,674.5C696.1,674.5 703.4,674.5 710.7,674.5C717.9,674.5 725.2,674.5 732.5,674.5C739.7,674.5 747.0,674.5 754.3,674.5C761.6,674.5 768.8,645.5 776.1,645.5C783.4,645.5 790.6,645.5 797.9,645.5C805.2,645.5 812.4,645.5 819.7,645.5C827.0,645.5 834.3,645.5 841.5,645.5C848.8,645.5 856.1,645.5 863.3,645.5C870.6,645.5 877.9,645.5 885.1,645.5C892.4,645.5 899.7,645.5 907.0,645.5C914.2,645.5 921.5,631.0 928.8,631.0C936.0,631.0 943.3,631.0 950.6,631.0C957.8,631.0 965.1,616.5 972.4,616.5C979.7,616.5 986.9,616.5 994.2,616.5C1001.5,616.5 1008.7,616.5 1016.0,616.5" fill="none" stroke="url(#ls-3)" stroke-width="3.5" stroke-linecap="round"/>
<circle cx="1016" cy="616.5" r="9" fill="#d97706" fill-opacity="0.22"/>
<circle cx="1016" cy="616.5" r="4.5" fill="#d97706"/>
<path d="M100.0,776.0C107.3,776.0 114.5,776.0 121.8,776.0C129.1,776.0 136.3,761.5 143.6,761.5C150.9,761.5 158.2,761.5 165.4,761.5C172.7,761.5 180.0,761.5 187.2,761.5C194.5,761.5 201.8,761.5 209.0,761.5C216.3,761.5 223.6,761.5 230.9,761.5C238.1,761.5 245.4,747.0 252.7,747.0C259.9,747.0 267.2,747.0 274.5,747.0C281.7,747.0 289.0,747.0 296.3,747.0C303.6,747.0 310.8,739.8 318.1,732.5C325.4,725.3 332.6,703.5 339.9,703.5C347.2,703.5 354.4,703.5 361.7,703.5C369.0,703.5 376.3,703.5 383.5,703.5C390.8,703.5 398.1,703.5 405.3,703.5C412.6,703.5 419.9,698.7 427.1,689.0C434.4,679.3 441.7,645.5 449.0,645.5C456.2,645.5 463.5,645.5 470.8,645.5C478.0,645.5 485.3,635.8 492.6,631.0C499.8,626.2 507.1,616.5 514.4,616.5C521.7,616.5 528.9,616.5 536.2,616.5C543.5,616.5 550.7,616.5 558.0,616.5C565.3,616.5 572.5,616.5 579.8,616.5C587.1,616.5 594.3,616.5 601.6,616.5C608.9,616.5 616.2,616.5 623.4,616.5C630.7,616.5 638.0,616.5 645.2,616.5C652.5,616.5 659.8,616.5 667.0,616.5C674.3,616.5 681.6,616.5 688.9,616.5C696.1,616.5 703.4,616.5 710.7,616.5C717.9,616.5 725.2,616.5 732.5,616.5C739.7,616.5 747.0,616.5 754.3,616.5C761.6,616.5 768.8,602.0 776.1,602.0C783.4,602.0 790.6,602.0 797.9,602.0C805.2,602.0 812.4,602.0 819.7,602.0C827.0,602.0 834.3,602.0 841.5,602.0C848.8,602.0 856.1,602.0 863.3,602.0C870.6,602.0 877.9,602.0 885.1,602.0C892.4,602.0 899.7,602.0 907.0,602.0C914.2,602.0 921.5,602.0 928.8,602.0C936.0,602.0 943.3,587.5 950.6,587.5C957.8,587.5 965.1,587.5 972.4,587.5C979.7,587.5 986.9,587.5 994.2,587.5C1001.5,587.5 1008.7,587.5 1016.0,587.5" fill="none" stroke="url(#ls-2)" stroke-width="3.5" stroke-linecap="round"/>
<circle cx="1016" cy="587.5" r="9" fill="#059669" fill-opacity="0.22"/>
<circle cx="1016" cy="587.5" r="4.5" fill="#059669"/>
<path d="M100.0,776.0C107.3,776.0 114.5,776.0 121.8,776.0C129.1,776.0 136.3,776.0 143.6,776.0C150.9,776.0 158.2,776.0 165.4,776.0C172.7,776.0 180.0,776.0 187.2,776.0C194.5,776.0 201.8,776.0 209.0,776.0C216.3,776.0 223.6,776.0 230.9,776.0C238.1,776.0 245.4,776.0 252.7,776.0C259.9,776.0 267.2,776.0 274.5,776.0C281.7,776.0 289.0,776.0 296.3,776.0C303.6,776.0 310.8,776.0 318.1,776.0C325.4,776.0 332.6,776.0 339.9,776.0C347.2,776.0 354.4,776.0 361.7,776.0C369.0,776.0 376.3,776.0 383.5,776.0C390.8,776.0 398.1,776.0 405.3,776.0C412.6,776.0 419.9,776.0 427.1,776.0C434.4,776.0 441.7,776.0 449.0,776.0C456.2,776.0 463.5,776.0 470.8,776.0C478.0,776.0 485.3,776.0 492.6,776.0C499.8,776.0 507.1,776.0 514.4,776.0C521.7,776.0 528.9,776.0 536.2,776.0C543.5,776.0 550.7,776.0 558.0,776.0C565.3,776.0 572.5,730.1 579.8,718.0C587.1,705.9 594.3,703.5 601.6,703.5C608.9,703.5 616.2,703.5 623.4,703.5C630.7,703.5 638.0,703.5 645.2,703.5C652.5,703.5 659.8,703.5 667.0,703.5C674.3,703.5 681.6,681.8 688.9,674.5C696.1,667.3 703.4,664.8 710.7,660.0C717.9,655.2 725.2,650.3 732.5,645.5C739.7,640.7 747.0,635.8 754.3,631.0C761.6,626.2 768.8,621.3 776.1,616.5C783.4,611.7 790.6,606.8 797.9,602.0C805.2,597.2 812.4,594.8 819.7,587.5C827.0,580.3 834.3,565.8 841.5,558.5C848.8,551.3 856.1,553.7 863.3,544.0C870.6,534.3 877.9,512.6 885.1,500.5C892.4,488.4 899.7,471.5 907.0,471.5C914.2,471.5 921.5,471.5 928.8,471.5C936.0,471.5 943.3,449.8 950.6,442.5C957.8,435.3 965.1,428.0 972.4,428.0C979.7,428.0 986.9,428.0 994.2,428.0C1001.5,428.0 1008.7,428.0 1016.0,428.0" fill="none" stroke="url(#ls-1)" stroke-width="3.5" stroke-linecap="round"/>
<circle cx="1016" cy="428" r="9" fill="#2563eb" fill-opacity="0.22"/>
<circle cx="1016" cy="428" r="4.5" fill="#2563eb"/>
<path d="M100.0,776.0C107.3,776.0 114.5,776.0 121.8,776.0C129.1,776.0 136.3,776.0 143.6,776.0C150.9,776.0 158.2,776.0 165.4,776.0C172.7,776.0 180.0,776.0 187.2,776.0C194.5,776.0 201.8,776.0 209.0,776.0C216.3,776.0 223.6,776.0 230.9,776.0C238.1,776.0 245.4,776.0 252.7,776.0C259.9,776.0 267.2,776.0 274.5,776.0C281.7,776.0 289.0,776.0 296.3,776.0C303.6,776.0 310.8,776.0 318.1,776.0C325.4,776.0 332.6,776.0 339.9,776.0C347.2,776.0 354.4,776.0 361.7,776.0C369.0,776.0 376.3,776.0 383.5,776.0C390.8,776.0 398.1,776.0 405.3,776.0C412.6,776.0 419.9,749.4 427.1,732.5C434.4,715.6 441.7,685.8 449.0,674.5C456.2,663.2 463.5,669.1 470.8,660.0C478.0,650.9 485.3,628.6 492.6,616.5C499.8,604.4 507.1,597.2 514.4,587.5C521.7,577.8 528.9,568.2 536.2,558.5C543.5,548.8 550.7,529.5 558.0,529.5C565.3,529.5 572.5,529.5 579.8,529.5C587.1,529.5 594.3,519.8 601.6,515.0C608.9,510.2 616.2,507.8 623.4,500.5C630.7,493.3 638.0,478.8 645.2,471.5C652.5,464.3 659.8,464.3 667.0,457.0C674.3,449.8 681.6,428.0 688.9,428.0C696.1,428.0 703.4,428.0 710.7,428.0C717.9,428.0 725.2,428.0 732.5,428.0C739.7,428.0 747.0,428.0 754.3,428.0C761.6,428.0 768.8,413.5 776.1,413.5C783.4,413.5 790.6,413.5 797.9,413.5C805.2,413.5 812.4,413.5 819.7,413.5C827.0,413.5 834.3,413.5 841.5,413.5C848.8,413.5 856.1,399.0 863.3,399.0C870.6,399.0 877.9,399.0 885.1,399.0C892.4,399.0 899.7,370.0 907.0,370.0C914.2,370.0 921.5,370.0 928.8,370.0C936.0,370.0 943.3,336.2 950.6,326.5C957.8,316.8 965.1,312.0 972.4,312.0C979.7,312.0 986.9,312.0 994.2,312.0C1001.5,312.0 1008.7,312.0 1016.0,312.0" fill="none" stroke="url(#ls-0)" stroke-width="3.5" stroke-linecap="round"/>
<circle cx="1016" cy="312" r="9" fill="#e11d48" fill-opacity="0.22"/>
<circle cx="1016" cy="312" r="4.5" fill="#e11d48"/>
<text x="1088" y="180" font-family="-apple-system,BlinkMacSystemFont,&quot;Segoe UI&quot;,&quot;Noto Sans CJK SC&quot;,&quot;PingFang SC&quot;,&quot;Microsoft YaHei&quot;,Helvetica,Arial,sans-serif" font-size="20" font-weight="600" fill="#64748b">排名</text>
<text x="1112" y="228" font-family="-apple-system,BlinkMacSystemFont,&quot;Segoe UI&quot;,&quot;Noto Sans CJK SC&quot;,&quot;PingFang SC&quot;,&quot;Microsoft YaHei&quot;,Helvetica,Arial,sans-serif" font-size="20" font-weight="700" fill="#d97706" text-anchor="end">1</text>
<circle cx="1144" cy="222" r="7" fill="#e11d48"/>
<text x="1166" y="229" font-family="-apple-system,BlinkMacSystemFont,&quot;Segoe UI&quot;,&quot;Noto Sans CJK SC&quot;,&quot;PingFang SC&quot;,&quot;Microsoft YaHei&quot;,Helvetica,Arial,sans-serif" font-size="21" fill="#1e293b">deepseek-harness-fnos</text>
<text x="1520" y="230" font-family="-apple-system,BlinkMacSystemFont,&quot;Segoe UI&quot;,&quot;Noto Sans CJK SC&quot;,&quot;PingFang SC&quot;,&quot;Microsoft YaHei&quot;,Helvetica,Arial,sans-serif" font-size="23" font-weight="700" fill="#e11d48" text-anchor="end">32</text>
<line x1="1088" y1="248" x2="1528" y2="248" stroke="#f1f5f9" stroke-width="1"/>
<text x="1112" y="284" font-family="-apple-system,BlinkMacSystemFont,&quot;Segoe UI&quot;,&quot;Noto Sans CJK SC&quot;,&quot;PingFang SC&quot;,&quot;Microsoft YaHei&quot;,Helvetica,Arial,sans-serif" font-size="20" font-weight="700" fill="#94a3b8" text-anchor="end">2</text>
<circle cx="1144" cy="278" r="7" fill="#2563eb"/>
<text x="1166" y="285" font-family="-apple-system,BlinkMacSystemFont,&quot;Segoe UI&quot;,&quot;Noto Sans CJK SC&quot;,&quot;PingFang SC&quot;,&quot;Microsoft YaHei&quot;,Helvetica,Arial,sans-serif" font-size="21" fill="#1e293b">10router</text>
<text x="1520" y="286" font-family="-apple-system,BlinkMacSystemFont,&quot;Segoe UI&quot;,&quot;Noto Sans CJK SC&quot;,&quot;PingFang SC&quot;,&quot;Microsoft YaHei&quot;,Helvetica,Arial,sans-serif" font-size="23" font-weight="700" fill="#2563eb" text-anchor="end">24</text>
<line x1="1088" y1="304" x2="1528" y2="304" stroke="#f1f5f9" stroke-width="1"/>
<text x="1112" y="340" font-family="-apple-system,BlinkMacSystemFont,&quot;Segoe UI&quot;,&quot;Noto Sans CJK SC&quot;,&quot;PingFang SC&quot;,&quot;Microsoft YaHei&quot;,Helvetica,Arial,sans-serif" font-size="20" font-weight="700" fill="#b45309" text-anchor="end">3</text>
<circle cx="1144" cy="334" r="7" fill="#059669"/>
<text x="1166" y="341" font-family="-apple-system,BlinkMacSystemFont,&quot;Segoe UI&quot;,&quot;Noto Sans CJK SC&quot;,&quot;PingFang SC&quot;,&quot;Microsoft YaHei&quot;,Helvetica,Arial,sans-serif" font-size="21" fill="#1e293b">9router-fnos</text>
<text x="1520" y="342" font-family="-apple-system,BlinkMacSystemFont,&quot;Segoe UI&quot;,&quot;Noto Sans CJK SC&quot;,&quot;PingFang SC&quot;,&quot;Microsoft YaHei&quot;,Helvetica,Arial,sans-serif" font-size="23" font-weight="700" fill="#059669" text-anchor="end">13</text>
<line x1="1088" y1="360" x2="1528" y2="360" stroke="#f1f5f9" stroke-width="1"/>
<text x="1112" y="396" font-family="-apple-system,BlinkMacSystemFont,&quot;Segoe UI&quot;,&quot;Noto Sans CJK SC&quot;,&quot;PingFang SC&quot;,&quot;Microsoft YaHei&quot;,Helvetica,Arial,sans-serif" font-size="20" font-weight="400" fill="#64748b" text-anchor="end">4</text>
<circle cx="1144" cy="390" r="7" fill="#d97706"/>
<text x="1166" y="397" font-family="-apple-system,BlinkMacSystemFont,&quot;Segoe UI&quot;,&quot;Noto Sans CJK SC&quot;,&quot;PingFang SC&quot;,&quot;Microsoft YaHei&quot;,Helvetica,Arial,sans-serif" font-size="21" fill="#1e293b">rEFInd</text>
<text x="1520" y="398" font-family="-apple-system,BlinkMacSystemFont,&quot;Segoe UI&quot;,&quot;Noto Sans CJK SC&quot;,&quot;PingFang SC&quot;,&quot;Microsoft YaHei&quot;,Helvetica,Arial,sans-serif" font-size="23" font-weight="700" fill="#d97706" text-anchor="end">11</text>
<line x1="1088" y1="416" x2="1528" y2="416" stroke="#f1f5f9" stroke-width="1"/>
<text x="1112" y="452" font-family="-apple-system,BlinkMacSystemFont,&quot;Segoe UI&quot;,&quot;Noto Sans CJK SC&quot;,&quot;PingFang SC&quot;,&quot;Microsoft YaHei&quot;,Helvetica,Arial,sans-serif" font-size="20" font-weight="400" fill="#64748b" text-anchor="end">5</text>
<circle cx="1144" cy="446" r="7" fill="#7c3aed"/>
<text x="1166" y="453" font-family="-apple-system,BlinkMacSystemFont,&quot;Segoe UI&quot;,&quot;Noto Sans CJK SC&quot;,&quot;PingFang SC&quot;,&quot;Microsoft YaHei&quot;,Helvetica,Arial,sans-serif" font-size="21" fill="#1e293b">hermes-fry-cards</text>
<text x="1520" y="454" font-family="-apple-system,BlinkMacSystemFont,&quot;Segoe UI&quot;,&quot;Noto Sans CJK SC&quot;,&quot;PingFang SC&quot;,&quot;Microsoft YaHei&quot;,Helvetica,Arial,sans-serif" font-size="23" font-weight="700" fill="#7c3aed" text-anchor="end">5</text>
<line x1="1088" y1="472" x2="1528" y2="472" stroke="#f1f5f9" stroke-width="1"/>
<text x="1112" y="508" font-family="-apple-system,BlinkMacSystemFont,&quot;Segoe UI&quot;,&quot;Noto Sans CJK SC&quot;,&quot;PingFang SC&quot;,&quot;Microsoft YaHei&quot;,Helvetica,Arial,sans-serif" font-size="20" font-weight="400" fill="#64748b" text-anchor="end">6</text>
<circle cx="1144" cy="502" r="7" fill="#0891b2"/>
<text x="1166" y="509" font-family="-apple-system,BlinkMacSystemFont,&quot;Segoe UI&quot;,&quot;Noto Sans CJK SC&quot;,&quot;PingFang SC&quot;,&quot;Microsoft YaHei&quot;,Helvetica,Arial,sans-serif" font-size="21" fill="#1e293b">hermes-core-fnos</text>
<text x="1520" y="510" font-family="-apple-system,BlinkMacSystemFont,&quot;Segoe UI&quot;,&quot;Noto Sans CJK SC&quot;,&quot;PingFang SC&quot;,&quot;Microsoft YaHei&quot;,Helvetica,Arial,sans-serif" font-size="23" font-weight="700" fill="#0891b2" text-anchor="end">4</text>
<line x1="1088" y1="528" x2="1528" y2="528" stroke="#f1f5f9" stroke-width="1"/>
<text x="1112" y="564" font-family="-apple-system,BlinkMacSystemFont,&quot;Segoe UI&quot;,&quot;Noto Sans CJK SC&quot;,&quot;PingFang SC&quot;,&quot;Microsoft YaHei&quot;,Helvetica,Arial,sans-serif" font-size="20" font-weight="400" fill="#64748b" text-anchor="end">7</text>
<circle cx="1144" cy="558" r="7" fill="#db2777"/>
<text x="1166" y="565" font-family="-apple-system,BlinkMacSystemFont,&quot;Segoe UI&quot;,&quot;Noto Sans CJK SC&quot;,&quot;PingFang SC&quot;,&quot;Microsoft YaHei&quot;,Helvetica,Arial,sans-serif" font-size="21" fill="#1e293b">hermes-dashboard-fnos</text>
<text x="1520" y="566" font-family="-apple-system,BlinkMacSystemFont,&quot;Segoe UI&quot;,&quot;Noto Sans CJK SC&quot;,&quot;PingFang SC&quot;,&quot;Microsoft YaHei&quot;,Helvetica,Arial,sans-serif" font-size="23" font-weight="700" fill="#db2777" text-anchor="end">4</text>
<line x1="1088" y1="584" x2="1528" y2="584" stroke="#f1f5f9" stroke-width="1"/>
<text x="1112" y="620" font-family="-apple-system,BlinkMacSystemFont,&quot;Segoe UI&quot;,&quot;Noto Sans CJK SC&quot;,&quot;PingFang SC&quot;,&quot;Microsoft YaHei&quot;,Helvetica,Arial,sans-serif" font-size="20" font-weight="400" fill="#64748b" text-anchor="end">8</text>
<circle cx="1144" cy="614" r="7" fill="#ea580c"/>
<text x="1166" y="621" font-family="-apple-system,BlinkMacSystemFont,&quot;Segoe UI&quot;,&quot;Noto Sans CJK SC&quot;,&quot;PingFang SC&quot;,&quot;Microsoft YaHei&quot;,Helvetica,Arial,sans-serif" font-size="21" fill="#1e293b">metacubexd-fnos</text>
<text x="1520" y="622" font-family="-apple-system,BlinkMacSystemFont,&quot;Segoe UI&quot;,&quot;Noto Sans CJK SC&quot;,&quot;PingFang SC&quot;,&quot;Microsoft YaHei&quot;,Helvetica,Arial,sans-serif" font-size="23" font-weight="700" fill="#ea580c" text-anchor="end">4</text>
<line x1="1088" y1="640" x2="1528" y2="640" stroke="#f1f5f9" stroke-width="1"/>
<text x="1112" y="676" font-family="-apple-system,BlinkMacSystemFont,&quot;Segoe UI&quot;,&quot;Noto Sans CJK SC&quot;,&quot;PingFang SC&quot;,&quot;Microsoft YaHei&quot;,Helvetica,Arial,sans-serif" font-size="20" font-weight="400" fill="#64748b" text-anchor="end">9</text>
<circle cx="1144" cy="670" r="7" fill="#4f46e5"/>
<text x="1166" y="677" font-family="-apple-system,BlinkMacSystemFont,&quot;Segoe UI&quot;,&quot;Noto Sans CJK SC&quot;,&quot;PingFang SC&quot;,&quot;Microsoft YaHei&quot;,Helvetica,Arial,sans-serif" font-size="21" fill="#1e293b">mihomo-core-fnos</text>
<text x="1520" y="678" font-family="-apple-system,BlinkMacSystemFont,&quot;Segoe UI&quot;,&quot;Noto Sans CJK SC&quot;,&quot;PingFang SC&quot;,&quot;Microsoft YaHei&quot;,Helvetica,Arial,sans-serif" font-size="23" font-weight="700" fill="#4f46e5" text-anchor="end">4</text>
<line x1="1088" y1="696" x2="1528" y2="696" stroke="#f1f5f9" stroke-width="1"/>
<text x="1112" y="732" font-family="-apple-system,BlinkMacSystemFont,&quot;Segoe UI&quot;,&quot;Noto Sans CJK SC&quot;,&quot;PingFang SC&quot;,&quot;Microsoft YaHei&quot;,Helvetica,Arial,sans-serif" font-size="20" font-weight="400" fill="#64748b" text-anchor="end">10</text>
<circle cx="1144" cy="726" r="7" fill="#64748b"/>
<text x="1166" y="733" font-family="-apple-system,BlinkMacSystemFont,&quot;Segoe UI&quot;,&quot;Noto Sans CJK SC&quot;,&quot;PingFang SC&quot;,&quot;Microsoft YaHei&quot;,Helvetica,Arial,sans-serif" font-size="21" fill="#1e293b">yangyu-hermes-skills</text>
<text x="1520" y="734" font-family="-apple-system,BlinkMacSystemFont,&quot;Segoe UI&quot;,&quot;Noto Sans CJK SC&quot;,&quot;PingFang SC&quot;,&quot;Microsoft YaHei&quot;,Helvetica,Arial,sans-serif" font-size="23" font-weight="700" fill="#64748b" text-anchor="end">3</text>
<text x="800" y="866" font-family="-apple-system,BlinkMacSystemFont,&quot;Segoe UI&quot;,&quot;Noto Sans CJK SC&quot;,&quot;PingFang SC&quot;,&quot;Microsoft YaHei&quot;,Helvetica,Arial,sans-serif" font-size="16" fill="#64748b" text-anchor="middle">数据来自 GitHub API · 仅统计公开仓库 · 每日自动更新</text>
</svg>