<svg xmlns="http://www.w3.org/2000/svg" width="1600" height="900" viewBox="0 0 1600 900" role="img" aria-label="Star Top 10, last 42 days">
<defs><linearGradient id="cardbg" x1="0" y1="0" x2="0" y2="1"><stop offset="0" stop-color="#ffffff"/><stop offset="1" stop-color="#f8fafc"/></linearGradient><linearGradient id="ls-0" x1="0" y1="0" x2="1" y2="0"><stop offset="0" stop-color="#e11d48" stop-opacity="0.25"/><stop offset="0.55" stop-color="#e11d48" stop-opacity="0.7"/><stop offset="1" stop-color="#e11d48"/></linearGradient><linearGradient id="as-0" x1="0" y1="0" x2="0" y2="1"><stop offset="0" stop-color="#e11d48" stop-opacity="0.1"/><stop offset="1" stop-color="#e11d48" stop-opacity="0"/></linearGradient><linearGradient id="ls-1" x1="0" y1="0" x2="1" y2="0"><stop offset="0" stop-color="#2563eb" stop-opacity="0.25"/><stop offset="0.55" stop-color="#2563eb" stop-opacity="0.7"/><stop offset="1" stop-color="#2563eb"/></linearGradient><linearGradient id="as-1" x1="0" y1="0" x2="0" y2="1"><stop offset="0" stop-color="#2563eb" stop-opacity="0.1"/><stop offset="1" stop-color="#2563eb" stop-opacity="0"/></linearGradient><linearGradient id="ls-2" x1="0" y1="0" x2="1" y2="0"><stop offset="0" stop-color="#059669" stop-opacity="0.25"/><stop offset="0.55" stop-color="#059669" stop-opacity="0.7"/><stop offset="1" stop-color="#059669"/></linearGradient><linearGradient id="as-2" x1="0" y1="0" x2="0" y2="1"><stop offset="0" stop-color="#059669" stop-opacity="0.1"/><stop offset="1" stop-color="#059669" stop-opacity="0"/></linearGradient><linearGradient id="ls-3" x1="0" y1="0" x2="1" y2="0"><stop offset="0" stop-color="#d97706" stop-opacity="0.25"/><stop offset="0.55" stop-color="#d97706" stop-opacity="0.7"/><stop offset="1" stop-color="#d97706"/></linearGradient><linearGradient id="as-3" x1="0" y1="0" x2="0" y2="1"><stop offset="0" stop-color="#d97706" stop-opacity="0.1"/><stop offset="1" stop-color="#d97706" stop-opacity="0"/></linearGradient><linearGradient id="ls-4" x1="0" y1="0" x2="1" y2="0"><stop offset="0" stop-color="#7c3aed" stop-opacity="0.25"/><stop offset="0.55" stop-color="#7c3aed" stop-opacity="0.7"/><stop offset="1" stop-color="#7c3aed"/></linearGradient><linearGradient id="as-4" x1="0" y1="0" x2="0" y2="1"><stop offset="0" stop-color="#7c3aed" stop-opacity="0.1"/><stop offset="1" stop-color="#7c3aed" stop-opacity="0"/></linearGradient><linearGradient id="ls-5" x1="0" y1="0" x2="1" y2="0"><stop offset="0" stop-color="#0891b2" stop-opacity="0.25"/><stop offset="0.55" stop-color="#0891b2" stop-opacity="0.7"/><stop offset="1" stop-color="#0891b2"/></linearGradient><linearGradient id="as-5" x1="0" y1="0" x2="0" y2="1"><stop offset="0" stop-color="#0891b2" stop-opacity="0.1"/><stop offset="1" stop-color="#0891b2" stop-opacity="0"/></linearGradient><linearGradient id="ls-6" x1="0" y1="0" x2="1" y2="0"><stop offset="0" stop-color="#db2777" stop-opacity="0.25"/><stop offset="0.55" stop-color="#db2777" stop-opacity="0.7"/><stop offset="1" stop-color="#db2777"/></linearGradient><linearGradient id="as-6" x1="0" y1="0" x2="0" y2="1"><stop offset="0" stop-color="#db2777" stop-opacity="0.1"/><stop offset="1" stop-color="#db2777" stop-opacity="0"/></linearGradient><linearGradient id="ls-7" x1="0" y1="0" x2="1" y2="0"><stop offset="0" stop-color="#ea580c" stop-opacity="0.25"/><stop offset="0.55" stop-color="#ea580c" stop-opacity="0.7"/><stop offset="1" stop-color="#ea580c"/></linearGradient><linearGradient id="as-7" x1="0" y1="0" x2="0" y2="1"><stop offset="0" stop-color="#ea580c" stop-opacity="0.1"/><stop offset="1" stop-color="#ea580c" stop-opacity="0"/></linearGradient><linearGradient id="ls-8" x1="0" y1="0" x2="1" y2="0"><stop offset="0" stop-color="#4f46e5" stop-opacity="0.25"/><stop offset="0.55" stop-color="#4f46e5" stop-opacity="0.7"/><stop offset="1" stop-color="#4f46e5"/></linearGradient><linearGradient id="as-8" x1="0" y1="0" x2="0" y2="1"><stop offset="0" stop-color="#4f46e5" stop-opacity="0.1"/><stop offset="1" stop-color="#4f46e5" stop-opacity="0"/></linearGradient><linearGradient id="ls-9" x1="0" y1="0" x2="1" y2="0"><stop offset="0" stop-color="#64748b" stop-opacity="0.25"/><stop offset="0.55" stop-color="#64748b" stop-opacity="0.7"/><stop offset="1" stop-color="#64748b"/></linearGradient><linearGradient id="as-9" x1="0" y1="0" x2="0" y2="1"><stop offset="0" stop-color="#64748b" stop-opacity="0.1"/><stop offset="1" stop-color="#64748b" stop-opacity="0"/></linearGradient></defs>
<rect width="1600" height="900" rx="16" fill="url(#cardbg)"/>
<rect x="0.75" y="0.75" width="1598.5" height="898.5" rx="16" fill="none" stroke="#e2e8f0" stroke-width="1.5"/>
<polygon points="84.0,57.0 88.7,69.5 102.1,70.1 91.6,78.5 95.2,91.4 84.0,84.0 72.8,91.4 76.4,78.5 65.9,70.1 79.3,69.5" fill="#f59e0b"/>
<text x="118" y="90" font-family="-apple-system,BlinkMacSystemFont,&quot;Segoe UI&quot;,&quot;Noto Sans CJK SC&quot;,&quot;PingFang SC&quot;,&quot;Microsoft YaHei&quot;,Helvetica,Arial,sans-serif" font-size="38" font-weight="700" fill="#0f172a">Star Top 10</text>
<text x="118" y="128" font-family="-apple-system,BlinkMacSystemFont,&quot;Segoe UI&quot;,&quot;Noto Sans CJK SC&quot;,&quot;PingFang SC&quot;,&quot;Microsoft YaHei&quot;,Helvetica,Arial,sans-serif" font-size="21" fill="#64748b">2026.8.6 – 2026.9.17 · @techysy · 最近 42 天</text>
<text x="1536" y="90" font-family="-apple-system,BlinkMacSystemFont,&quot;Segoe UI&quot;,&quot;Noto Sans CJK SC&quot;,&quot;PingFang SC&quot;,&quot;Microsoft YaHei&quot;,Helvetica,Arial,sans-serif" font-size="18" fill="#64748b" text-anchor="end">生成于 2026-09-17</text>
<line x1="64" y1="152" x2="1536" y2="152" stroke="#f1f5f9" stroke-width="1.5"/>
<line x1="100" y1="776" x2="1016" y2="776" stroke="#cbd5e1" stroke-width="1.6"/>
<text x="84" y="782" font-family="-apple-system,BlinkMacSystemFont,&quot;Segoe UI&quot;,&quot;Noto Sans CJK SC&quot;,&quot;PingFang SC&quot;,&quot;Microsoft YaHei&quot;,Helvetica,Arial,sans-serif" font-size="19" fill="#64748b" text-anchor="end">0</text>
<line x1="100" y1="631" x2="1016" y2="631" stroke="#eef2f7" stroke-width="1"/>
<text x="84" y="637" font-family="-apple-system,BlinkMacSystemFont,&quot;Segoe UI&quot;,&quot;Noto Sans CJK SC&quot;,&quot;PingFang SC&quot;,&quot;Microsoft YaHei&quot;,Helvetica,Arial,sans-serif" font-size="19" fill="#64748b" text-anchor="end">10</text>
<line x1="100" y1="486" x2="1016" y2="486" stroke="#eef2f7" stroke-width="1"/>
<text x="84" y="492" font-family="-apple-system,BlinkMacSystemFont,&quot;Segoe UI&quot;,&quot;Noto Sans CJK SC&quot;,&quot;PingFang SC&quot;,&quot;Microsoft YaHei&quot;,Helvetica,Arial,sans-serif" font-size="19" fill="#64748b" text-anchor="end">20</text>
<line x1="100" y1="341" x2="1016" y2="341" stroke="#eef2f7" stroke-width="1"/>
<text x="84" y="347" font-family="-apple-system,BlinkMacSystemFont,&quot;Segoe UI&quot;,&quot;Noto Sans CJK SC&quot;,&quot;PingFang SC&quot;,&quot;Microsoft YaHei&quot;,Helvetica,Arial,sans-serif" font-size="19" fill="#64748b" text-anchor="end">30</text>
<line x1="100" y1="196" x2="1016" y2="196" stroke="#eef2f7" stroke-width="1"/>
<text x="84" y="202" font-family="-apple-system,BlinkMacSystemFont,&quot;Segoe UI&quot;,&quot;Noto Sans CJK SC&quot;,&quot;PingFang SC&quot;,&quot;Microsoft YaHei&quot;,Helvetica,Arial,sans-serif" font-size="19" fill="#64748b" text-anchor="end">40</text>
<text x="100" y="180" font-family="-apple-system,BlinkMacSystemFont,&quot;Segoe UI&quot;,&quot;Noto Sans CJK SC&quot;,&quot;PingFang SC&quot;,&quot;Microsoft YaHei&quot;,Helvetica,Arial,sans-serif" font-size="18" fill="#64748b">Stars</text>
<text x="100" y="808" font-family="-apple-system,BlinkMacSystemFont,&quot;Segoe UI&quot;,&quot;Noto Sans CJK SC&quot;,&quot;PingFang SC&quot;,&quot;Microsoft YaHei&quot;,Helvetica,Arial,sans-serif" font-size="19" fill="#64748b" text-anchor="middle">8.6</text>
<text x="252.66666666666666" y="808" font-family="-apple-system,BlinkMacSystemFont,&quot;Segoe UI&quot;,&quot;Noto Sans CJK SC&quot;,&quot;PingFang SC&quot;,&quot;Microsoft YaHei&quot;,Helvetica,Arial,sans-serif" font-size="19" fill="#64748b" text-anchor="middle">8.13</text>
<text x="405.3333333333333" y="808" font-family="-apple-system,BlinkMacSystemFont,&quot;Segoe UI&quot;,&quot;Noto Sans CJK SC&quot;,&quot;PingFang SC&quot;,&quot;Microsoft YaHei&quot;,Helvetica,Arial,sans-serif" font-size="19" fill="#64748b" text-anchor="middle">8.20</text>
<text x="558" y="808" font-family="-apple-system,BlinkMacSystemFont,&quot;Segoe UI&quot;,&quot;Noto Sans CJK SC&quot;,&quot;PingFang SC&quot;,&quot;Microsoft YaHei&quot;,Helvetica,Arial,sans-serif" font-size="19" fill="#64748b" text-anchor="middle">8.27</text>
<text x="710.6666666666666" y="808" font-family="-apple-system,BlinkMacSystemFont,&quot;Segoe UI&quot;,&quot;Noto Sans CJK SC&quot;,&quot;PingFang SC&quot;,&quot;Microsoft YaHei&quot;,Helvetica,Arial,sans-serif" font-size="19" fill="#64748b" text-anchor="middle">9.3</text>
<text x="863.3333333333334" y="808" font-family="-apple-system,BlinkMacSystemFont,&quot;Segoe UI&quot;,&quot;Noto Sans CJK SC&quot;,&quot;PingFang SC&quot;,&quot;Microsoft YaHei&quot;,Helvetica,Arial,sans-serif" font-size="19" fill="#64748b" text-anchor="middle">9.10</text>
<text x="1016" y="808" font-family="-apple-system,BlinkMacSystemFont,&quot;Segoe UI&quot;,&quot;Noto Sans CJK SC&quot;,&quot;PingFang SC&quot;,&quot;Microsoft YaHei&quot;,Helvetica,Arial,sans-serif" font-size="19" fill="#64748b" text-anchor="middle">9.17</text>
<path d="M100.0,761.5C107.3,761.5 114.5,761.5 121.8,761.5C129.1,761.5 136.3,761.5 143.6,761.5C150.9,761.5 158.2,761.5 165.4,761.5C172.7,761.5 180.0,761.5 187.2,761.5C194.5,761.5 201.8,761.5 209.0,761.5C216.3,761.5 223.6,761.5 230.9,761.5C238.1,761.5 245.4,761.5 252.7,761.5C259.9,761.5 267.2,761.5 274.5,761.5C281.7,761.5 289.0,761.5 296.3,761.5C303.6,761.5 310.8,761.5 318.1,761.5C325.4,761.5 332.6,761.5 339.9,761.5C347.2,761.5 354.4,761.5 361.7,761.5C369.0,761.5 376.3,761.5 383.5,761.5C390.8,761.5 398.1,761.5 405.3,761.5C412.6,761.5 419.9,761.5 427.1,761.5C434.4,761.5 441.7,761.5 449.0,761.5C456.2,761.5 463.5,761.5 470.8,761.5C478.0,761.5 485.3,761.5 492.6,761.5C499.8,761.5 507.1,761.5 514.4,761.5C521.7,761.5 528.9,761.5 536.2,761.5C543.5,761.5 550.7,761.5 558.0,761.5C565.3,761.5 572.5,761.5 579.8,761.5C587.1,761.5 594.3,761.5 601.6,761.5C608.9,761.5 616.2,761.5 623.4,761.5C630.7,761.5 638.0,761.5 645.2,761.5C652.5,761.5 659.8,761.5 667.0,761.5C674.3,761.5 681.6,761.5 688.9,761.5C696.1,761.5 703.4,761.5 710.7,761.5C717.9,761.5 725.2,761.5 732.5,761.5C739.7,761.5 747.0,761.5 754.3,761.5C761.6,761.5 768.8,761.5 776.1,761.5C783.4,761.5 790.6,761.5 797.9,761.5C805.2,761.5 812.4,761.5 819.7,761.5C827.0,761.5 834.3,761.5 841.5,761.5C848.8,761.5 856.1,761.5 863.3,761.5C870.6,761.5 877.9,761.5 885.1,761.5C892.4,761.5 899.7,761.5 907.0,761.5C914.2,761.5 921.5,761.5 928.8,761.5C936.0,761.5 943.3,747.0 950.6,747.0C957.8,747.0 965.1,747.0 972.4,747.0C979.7,747.0 986.9,747.0 994.2,747.0C1001.5,747.0 1008.7,747.0 1016.0,747.0L1016.0,776 L100.0,776 Z" fill="url(#as-9)" stroke="none"/>
<path d="M100.0,761.5C107.3,761.5 114.5,761.5 121.8,761.5C129.1,761.5 136.3,761.5 143.6,761.5C150.9,761.5 158.2,761.5 165.4,761.5C172.7,761.5 180.0,761.5 187.2,761.5C194.5,761.5 201.8,761.5 209.0,761.5C216.3,761.5 223.6,747.0 230.9,747.0C238.1,747.0 245.4,747.0 252.7,747.0C259.9,747.0 267.2,747.0 274.5,747.0C281.7,747.0 289.0,747.0 296.3,747.0C303.6,747.0 310.8,747.0 318.1,747.0C325.4,747.0 332.6,747.0 339.9,747.0C347.2,747.0 354.4,747.0 361.7,747.0C369.0,747.0 376.3,732.5 383.5,732.5C390.8,732.5 398.1,732.5 405.3,732.5C412.6,732.5 419.9,732.5 427.1,732.5C434.4,732.5 441.7,732.5 449.0,732.5C456.2,732.5 463.5,732.5 470.8,732.5C478.0,732.5 485.3,732.5 492.6,732.5C499.8,732.5 507.1,732.5 514.4,732.5C521.7,732.5 528.9,732.5 536.2,732.5C543.5,732.5 550.7,732.5 558.0,732.5C565.3,732.5 572.5,732.5 579.8,732.5C587.1,732.5 594.3,732.5 601.6,732.5C608.9,732.5 616.2,732.5 623.4,732.5C630.7,732.5 638.0,732.5 645.2,732.5C652.5,732.5 659.8,732.5 667.0,732.5C674.3,732.5 681.6,732.5 688.9,732.5C696.1,732.5 703.4,732.5 710.7,732.5C717.9,732.5 725.2,732.5 732.5,732.5C739.7,732.5 747.0,732.5 754.3,732.5C761.6,732.5 768.8,732.5 776.1,732.5C783.4,732.5 790.6,732.5 797.9,732.5C805.2,732.5 812.4,732.5 819.7,732.5C827.0,732.5 834.3,732.5 841.5,732.5C848.8,732.5 856.1,732.5 863.3,732.5C870.6,732.5 877.9,732.5 885.1,732.5C892.4,732.5 899.7,732.5 907.0,732.5C914.2,732.5 921.5,732.5 928.8,732.5C936.0,732.5 943.3,732.5 950.6,732.5C957.8,732.5 965.1,732.5 972.4,732.5C979.7,732.5 986.9,732.5 994.2,732.5C1001.5,732.5 1008.7,732.5 1016.0,732.5L1016.0,776 L100.0,776 Z" fill="url(#as-8)" stroke="none"/>
<path d="M100.0,776.0C107.3,776.0 114.5,776.0 121.8,776.0C129.1,776.0 136.3,776.0 143.6,776.0C150.9,776.0 158.2,776.0 165.4,776.0C172.7,776.0 180.0,776.0 187.2,776.0C194.5,776.0 201.8,776.0 209.0,776.0C216.3,776.0 223.6,776.0 230.9,776.0C238.1,776.0 245.4,776.0 252.7,776.0C259.9,776.0 267.2,776.0 274.5,776.0C281.7,776.0 289.0,761.5 296.3,761.5C303.6,761.5 310.8,761.5 318.1,761.5C325.4,761.5 332.6,761.5 339.9,761.5C347.2,761.5 354.4,761.5 361.7,761.5C369.0,761.5 376.3,761.5 383.5,761.5C390.8,761.5 398.1,747.0 405.3,747.0C412.6,747.0 419.9,747.0 427.1,747.0C434.4,747.0 441.7,737.3 449.0,732.5C456.2,727.7 463.5,718.0 470.8,718.0C478.0,718.0 485.3,718.0 492.6,718.0C499.8,718.0 507.1,718.0 514.4,718.0C521.7,718.0 528.9,718.0 536.2,718.0C543.5,718.0 550.7,718.0 558.0,718.0C565.3,718.0 572.5,718.0 579.8,718.0C587.1,718.0 594.3,718.0 601.6,718.0C608.9,718.0 616.2,718.0 623.4,718.0C630.7,718.0 638.0,718.0 645.2,718.0C652.5,718.0 659.8,718.0 667.0,718.0C674.3,718.0 681.6,718.0 688.9,718.0C696.1,718.0 703.4,718.0 710.7,718.0C717.9,718.0 725.2,718.0 732.5,718.0C739.7,718.0 747.0,718.0 754.3,718.0C761.6,718.0 768.8,718.0 776.1,718.0C783.4,718.0 790.6,718.0 797.9,718.0C805.2,718.0 812.4,718.0 819.7,718.0C827.0,718.0 834.3,718.0 841.5,718.0C848.8,718.0 856.1,718.0 863.3,718.0C870.6,718.0 877.9,718.0 885.1,718.0C892.4,718.0 899.7,718.0 907.0,718.0C914.2,718.0 921.5,718.0 928.8,718.0C936.0,718.0 943.3,718.0 950.6,718.0C957.8,718.0 965.1,718.0 972.4,718.0C979.7,718.0 986.9,718.0 994.2,718.0C1001.5,718.0 1008.7,718.0 1016.0,718.0L1016.0,776 L100.0,776 Z" fill="url(#as-7)" stroke="none"/>
<path d="M100.0,776.0C107.3,776.0 114.5,776.0 121.8,776.0C129.1,776.0 136.3,776.0 143.6,776.0C150.9,776.0 158.2,776.0 165.4,776.0C172.7,776.0 180.0,776.0 187.2,776.0C194.5,776.0 201.8,776.0 209.0,776.0C216.3,776.0 223.6,776.0 230.9,776.0C238.1,776.0 245.4,776.0 252.7,776.0C259.9,776.0 267.2,776.0 274.5,776.0C281.7,776.0 289.0,776.0 296.3,776.0C303.6,776.0 310.8,776.0 318.1,776.0C325.4,776.0 332.6,776.0 339.9,776.0C347.2,776.0 354.4,776.0 361.7,776.0C369.0,776.0 376.3,761.5 383.5,761.5C390.8,761.5 398.1,761.5 405.3,761.5C412.6,761.5 419.9,761.5 427.1,761.5C434.4,761.5 441.7,761.5 449.0,761.5C456.2,761.5 463.5,761.5 470.8,761.5C478.0,761.5 485.3,761.5 492.6,761.5C499.8,761.5 507.1,761.5 514.4,761.5C521.7,761.5 528.9,761.5 536.2,761.5C543.5,761.5 550.7,761.5 558.0,761.5C565.3,761.5 572.5,761.5 579.8,761.5C587.1,761.5 594.3,761.5 601.6,761.5C608.9,761.5 616.2,761.5 623.4,761.5C630.7,761.5 638.0,761.5 645.2,761.5C652.5,761.5 659.8,761.5 667.0,761.5C674.3,761.5 681.6,747.0 688.9,747.0C696.1,747.0 703.4,747.0 710.7,747.0C717.9,747.0 725.2,732.5 732.5,732.5C739.7,732.5 747.0,732.5 754.3,732.5C761.6,732.5 768.8,732.5 776.1,732.5C783.4,732.5 790.6,732.5 797.9,732.5C805.2,732.5 812.4,732.5 819.7,732.5C827.0,732.5 834.3,732.5 841.5,732.5C848.8,732.5 856.1,732.5 863.3,732.5C870.6,732.5 877.9,732.5 885.1,732.5C892.4,732.5 899.7,732.5 907.0,732.5C914.2,732.5 921.5,732.5 928.8,732.5C936.0,732.5 943.3,718.0 950.6,718.0C957.8,718.0 965.1,718.0 972.4,718.0C979.7,718.0 986.9,718.0 994.2,718.0C1001.5,718.0 1008.7,718.0 1016.0,718.0L1016.0,776 L100.0,776 Z" fill="url(#as-6)" stroke="none"/>
<path d="M100.0,776.0C107.3,776.0 114.5,776.0 121.8,776.0C129.1,776.0 136.3,776.0 143.6,776.0C150.9,776.0 158.2,776.0 165.4,776.0C172.7,776.0 180.0,776.0 187.2,776.0C194.5,776.0 201.8,761.5 209.0,761.5C216.3,761.5 223.6,761.5 230.9,761.5C238.1,761.5 245.4,761.5 252.7,761.5C259.9,761.5 267.2,761.5 274.5,761.5C281.7,761.5 289.0,761.5 296.3,761.5C303.6,761.5 310.8,761.5 318.1,761.5C325.4,761.5 332.6,761.5 339.9,761.5C347.2,761.5 354.4,747.0 361.7,747.0C369.0,747.0 376.3,747.0 383.5,747.0C390.8,747.0 398.1,747.0 405.3,747.0C412.6,747.0 419.9,747.0 427.1,747.0C434.4,747.0 441.7,747.0 449.0,747.0C456.2,747.0 463.5,747.0 470.8,747.0C478.0,747.0 485.3,747.0 492.6,747.0C499.8,747.0 507.1,747.0 514.4,747.0C521.7,747.0 528.9,747.0 536.2,747.0C543.5,747.0 550.7,747.0 558.0,747.0C565.3,747.0 572.5,747.0 579.8,747.0C587.1,747.0 594.3,747.0 601.6,747.0C608.9,747.0 616.2,747.0 623.4,747.0C630.7,747.0 638.0,747.0 645.2,747.0C652.5,747.0 659.8,747.0 667.0,747.0C674.3,747.0 681.6,747.0 688.9,747.0C696.1,747.0 703.4,747.0 710.7,747.0C717.9,747.0 725.2,732.5 732.5,732.5C739.7,732.5 747.0,732.5 754.3,732.5C761.6,732.5 768.8,732.5 776.1,732.5C783.4,732.5 790.6,718.0 797.9,718.0C805.2,718.0 812.4,718.0 819.7,718.0C827.0,718.0 834.3,718.0 841.5,718.0C848.8,718.0 856.1,703.5 863.3,703.5C870.6,703.5 877.9,703.5 885.1,703.5C892.4,703.5 899.7,703.5 907.0,703.5C914.2,703.5 921.5,703.5 928.8,703.5C936.0,703.5 943.3,689.0 950.6,689.0C957.8,689.0 965.1,689.0 972.4,689.0C979.7,689.0 986.9,689.0 994.2,689.0C1001.5,689.0 1008.7,689.0 1016.0,689.0L1016.0,776 L100.0,776 Z" fill="url(#as-5)" stroke="none"/>
<path d="M100.0,776.0C107.3,776.0 114.5,776.0 121.8,776.0C129.1,776.0 136.3,776.0 143.6,776.0C150.9,776.0 158.2,776.0 165.4,776.0C172.7,776.0 180.0,776.0 187.2,776.0C194.5,776.0 201.8,776.0 209.0,776.0C216.3,776.0 223.6,776.0 230.9,776.0C238.1,776.0 245.4,776.0 252.7,776.0C259.9,776.0 267.2,776.0 274.5,776.0C281.7,776.0 289.0,776.0 296.3,776.0C303.6,776.0 310.8,776.0 318.1,776.0C325.4,776.0 332.6,776.0 339.9,776.0C347.2,776.0 354.4,776.0 361.7,776.0C369.0,776.0 376.3,776.0 383.5,776.0C390.8,776.0 398.1,776.0 405.3,776.0C412.6,776.0 419.9,761.5 427.1,761.5C434.4,761.5 441.7,761.5 449.0,761.5C456.2,761.5 463.5,761.5 470.8,761.5C478.0,761.5 485.3,732.5 492.6,732.5C499.8,732.5 507.1,732.5 514.4,732.5C521.7,732.5 528.9,732.5 536.2,732.5C543.5,732.5 550.7,718.0 558.0,718.0C565.3,718.0 572.5,718.0 579.8,718.0C587.1,718.0 594.3,718.0 601.6,718.0C608.9,718.0 616.2,718.0 623.4,718.0C630.7,718.0 638.0,718.0 645.2,718.0C652.5,718.0 659.8,703.5 667.0,703.5C674.3,703.5 681.6,703.5 688.9,703.5C696.1,703.5 703.4,703.5 710.7,703.5C717.9,703.5 725.2,703.5 732.5,703.5C739.7,703.5 747.0,703.5 754.3,703.5C761.6,703.5 768.8,703.5 776.1,703.5C783.4,703.5 790.6,703.5 797.9,703.5C805.2,703.5 812.4,703.5 819.7,703.5C827.0,703.5 834.3,703.5 841.5,703.5C848.8,703.5 856.1,703.5 863.3,703.5C870.6,703.5 877.9,693.8 885.1,689.0C892.4,684.2 899.7,674.5 907.0,674.5C914.2,674.5 921.5,674.5 928.8,674.5C936.0,674.5 943.3,660.0 950.6,660.0C957.8,660.0 965.1,660.0 972.4,660.0C979.7,660.0 986.9,660.0 994.2,660.0C1001.5,660.0 1008.7,660.0 1016.0,660.0L1016.0,776 L100.0,776 Z" fill="url(#as-4)" stroke="none"/>
<path d="M100.0,761.5C107.3,761.5 114.5,761.5 121.8,761.5C129.1,761.5 136.3,761.5 143.6,761.5C150.9,761.5 158.2,761.5 165.4,761.5C172.7,761.5 180.0,761.5 187.2,761.5C194.5,761.5 201.8,747.0 209.0,747.0C216.3,747.0 223.6,747.0 230.9,747.0C238.1,747.0 245.4,725.3 252.7,718.0C259.9,710.8 267.2,703.5 274.5,703.5C281.7,703.5 289.0,703.5 296.3,703.5C303.6,703.5 310.8,703.5 318.1,703.5C325.4,703.5 332.6,703.5 339.9,703.5C347.2,703.5 354.4,703.5 361.7,703.5C369.0,703.5 376.3,703.5 383.5,703.5C390.8,703.5 398.1,703.5 405.3,703.5C412.6,703.5 419.9,703.5 427.1,703.5C434.4,703.5 441.7,703.5 449.0,703.5C456.2,703.5 463.5,703.5 470.8,703.5C478.0,703.5 485.3,703.5 492.6,703.5C499.8,703.5 507.1,689.0 514.4,689.0C521.7,689.0 528.9,689.0 536.2,689.0C543.5,689.0 550.7,689.0 558.0,689.0C565.3,689.0 572.5,689.0 579.8,689.0C587.1,689.0 594.3,689.0 601.6,689.0C608.9,689.0 616.2,660.0 623.4,660.0C630.7,660.0 638.0,660.0 645.2,660.0C652.5,660.0 659.8,660.0 667.0,660.0C674.3,660.0 681.6,660.0 688.9,660.0C696.1,660.0 703.4,660.0 710.7,660.0C717.9,660.0 725.2,660.0 732.5,660.0C739.7,660.0 747.0,660.0 754.3,660.0C761.6,660.0 768.8,645.5 776.1,645.5C783.4,645.5 790.6,645.5 797.9,645.5C805.2,645.5 812.4,631.0 819.7,631.0C827.0,631.0 834.3,631.0 841.5,631.0C848.8,631.0 856.1,631.0 863.3,631.0C870.6,631.0 877.9,631.0 885.1,631.0C892.4,631.0 899.7,631.0 907.0,631.0C914.2,631.0 921.5,631.0 928.8,631.0C936.0,631.0 943.3,616.5 950.6,616.5C957.8,616.5 965.1,616.5 972.4,616.5C979.7,616.5 986.9,616.5 994.2,616.5C1001.5,616.5 1008.7,616.5 1016.0,616.5L1016.0,776 L100.0,776 Z" fill="url(#as-3)" stroke="none"/>
<path d="M100.0,761.5C107.3,761.5 114.5,761.5 121.8,761.5C129.1,761.5 136.3,761.5 143.6,761.5C150.9,761.5 158.2,754.3 165.4,747.0C172.7,739.8 180.0,718.0 187.2,718.0C194.5,718.0 201.8,718.0 209.0,718.0C216.3,718.0 223.6,718.0 230.9,718.0C238.1,718.0 245.4,718.0 252.7,718.0C259.9,718.0 267.2,713.2 274.5,703.5C281.7,693.8 289.0,660.0 296.3,660.0C303.6,660.0 310.8,660.0 318.1,660.0C325.4,660.0 332.6,650.3 339.9,645.5C347.2,640.7 354.4,631.0 361.7,631.0C369.0,631.0 376.3,631.0 383.5,631.0C390.8,631.0 398.1,631.0 405.3,631.0C412.6,631.0 419.9,631.0 427.1,631.0C434.4,631.0 441.7,631.0 449.0,631.0C456.2,631.0 463.5,631.0 470.8,631.0C478.0,631.0 485.3,631.0 492.6,631.0C499.8,631.0 507.1,631.0 514.4,631.0C521.7,631.0 528.9,631.0 536.2,631.0C543.5,631.0 550.7,631.0 558.0,631.0C565.3,631.0 572.5,631.0 579.8,631.0C587.1,631.0 594.3,631.0 601.6,631.0C608.9,631.0 616.2,616.5 623.4,616.5C630.7,616.5 638.0,616.5 645.2,616.5C652.5,616.5 659.8,616.5 667.0,616.5C674.3,616.5 681.6,616.5 688.9,616.5C696.1,616.5 703.4,616.5 710.7,616.5C717.9,616.5 725.2,616.5 732.5,616.5C739.7,616.5 747.0,616.5 754.3,616.5C761.6,616.5 768.8,616.5 776.1,616.5C783.4,616.5 790.6,602.0 797.9,602.0C805.2,602.0 812.4,602.0 819.7,602.0C827.0,602.0 834.3,602.0 841.5,602.0C848.8,602.0 856.1,602.0 863.3,602.0C870.6,602.0 877.9,602.0 885.1,602.0C892.4,602.0 899.7,602.0 907.0,602.0C914.2,602.0 921.5,602.0 928.8,602.0C936.0,602.0 943.3,587.5 950.6,587.5C957.8,587.5 965.1,587.5 972.4,587.5C979.7,587.5 986.9,587.5 994.2,587.5C1001.5,587.5 1008.7,587.5 1016.0,587.5L1016.0,776 L100.0,776 Z" fill="url(#as-2)" stroke="none"/>
<path d="M100.0,776.0C107.3,776.0 114.5,776.0 121.8,776.0C129.1,776.0 136.3,776.0 143.6,776.0C150.9,776.0 158.2,776.0 165.4,776.0C172.7,776.0 180.0,776.0 187.2,776.0C194.5,776.0 201.8,776.0 209.0,776.0C216.3,776.0 223.6,776.0 230.9,776.0C238.1,776.0 245.4,776.0 252.7,776.0C259.9,776.0 267.2,776.0 274.5,776.0C281.7,776.0 289.0,776.0 296.3,776.0C303.6,776.0 310.8,776.0 318.1,776.0C325.4,776.0 332.6,776.0 339.9,776.0C347.2,776.0 354.4,776.0 361.7,776.0C369.0,776.0 376.3,776.0 383.5,776.0C390.8,776.0 398.1,776.0 405.3,776.0C412.6,776.0 419.9,730.1 427.1,718.0C434.4,705.9 441.7,703.5 449.0,703.5C456.2,703.5 463.5,703.5 470.8,703.5C478.0,703.5 485.3,703.5 492.6,703.5C499.8,703.5 507.1,703.5 514.4,703.5C521.7,703.5 528.9,681.8 536.2,674.5C543.5,667.3 550.7,664.8 558.0,660.0C565.3,655.2 572.5,650.3 579.8,645.5C587.1,640.7 594.3,635.8 601.6,631.0C608.9,626.2 616.2,621.3 623.4,616.5C630.7,611.7 638.0,606.8 645.2,602.0C652.5,597.2 659.8,594.8 667.0,587.5C674.3,580.3 681.6,565.8 688.9,558.5C696.1,551.3 703.4,553.7 710.7,544.0C717.9,534.3 725.2,512.6 732.5,500.5C739.7,488.4 747.0,471.5 754.3,471.5C761.6,471.5 768.8,471.5 776.1,471.5C783.4,471.5 790.6,449.8 797.9,442.5C805.2,435.2 812.4,428.0 819.7,428.0C827.0,428.0 834.3,428.0 841.5,428.0C848.8,428.0 856.1,413.5 863.3,413.5C870.6,413.5 877.9,413.5 885.1,413.5C892.4,413.5 899.7,384.5 907.0,384.5C914.2,384.5 921.5,384.5 928.8,384.5C936.0,384.5 943.3,384.5 950.6,384.5C957.8,384.5 965.1,377.3 972.4,370.0C979.7,362.8 986.9,348.3 994.2,341.0C1001.5,333.8 1008.7,331.3 1016.0,326.5L1016.0,776 L100.0,776 Z" fill="url(#as-1)" stroke="none"/>
<path d="M100.0,776.0C107.3,776.0 114.5,776.0 121.8,776.0C129.1,776.0 136.3,776.0 143.6,776.0C150.9,776.0 158.2,776.0 165.4,776.0C172.7,776.0 180.0,776.0 187.2,776.0C194.5,776.0 201.8,776.0 209.0,776.0C216.3,776.0 223.6,776.0 230.9,776.0C238.1,776.0 245.4,776.0 252.7,776.0C259.9,776.0 267.2,749.4 274.5,732.5C281.7,715.6 289.0,685.8 296.3,674.5C303.6,663.2 310.8,669.1 318.1,660.0C325.4,650.9 332.6,628.6 339.9,616.5C347.2,604.4 354.4,597.2 361.7,587.5C369.0,577.8 376.3,568.2 383.5,558.5C390.8,548.8 398.1,529.5 405.3,529.5C412.6,529.5 419.9,529.5 427.1,529.5C434.4,529.5 441.7,519.8 449.0,515.0C456.2,510.2 463.5,507.8 470.8,500.5C478.0,493.3 485.3,478.8 492.6,471.5C499.8,464.3 507.1,464.3 514.4,457.0C521.7,449.8 528.9,428.0 536.2,428.0C543.5,428.0 550.7,428.0 558.0,428.0C565.3,428.0 572.5,428.0 579.8,428.0C587.1,428.0 594.3,428.0 601.6,428.0C608.9,428.0 616.2,413.5 623.4,413.5C630.7,413.5 638.0,413.5 645.2,413.5C652.5,413.5 659.8,413.5 667.0,413.5C674.3,413.5 681.6,413.5 688.9,413.5C696.1,413.5 703.4,399.0 710.7,399.0C717.9,399.0 725.2,399.0 732.5,399.0C739.7,399.0 747.0,370.0 754.3,370.0C761.6,370.0 768.8,370.0 776.1,370.0C783.4,370.0 790.6,336.2 797.9,326.5C805.2,316.8 812.4,312.0 819.7,312.0C827.0,312.0 834.3,312.0 841.5,312.0C848.8,312.0 856.1,312.0 863.3,312.0C870.6,312.0 877.9,304.8 885.1,297.5C892.4,290.3 899.7,268.5 907.0,268.5C914.2,268.5 921.5,268.5 928.8,268.5C936.0,268.5 943.3,268.5 950.6,268.5C957.8,268.5 965.1,268.5 972.4,268.5C979.7,268.5 986.9,268.5 994.2,268.5C1001.5,268.5 1008.7,258.8 1016.0,254.0L1016.0,776 L100.0,776 Z" fill="url(#as-0)" stroke="none"/>
<path d="M100.0,761.5C107.3,761.5 114.5,761.5 121.8,761.5C129.1,761.5 136.3,761.5 143.6,761.5C150.9,761.5 158.2,761.5 165.4,761.5C172.7,761.5 180.0,761.5 187.2,761.5C194.5,761.5 201.8,761.5 209.0,761.5C216.3,761.5 223.6,761.5 230.9,761.5C238.1,761.5 245.4,761.5 252.7,761.5C259.9,761.5 267.2,761.5 274.5,761.5C281.7,761.5 289.0,761.5 296.3,761.5C303.6,761.5 310.8,761.5 318.1,761.5C325.4,761.5 332.6,761.5 339.9,761.5C347.2,761.5 354.4,761.5 361.7,761.5C369.0,761.5 376.3,761.5 383.5,761.5C390.8,761.5 398.1,761.5 405.3,761.5C412.6,761.5 419.9,761.5 427.1,761.5C434.4,761.5 441.7,761.5 449.0,761.5C456.2,761.5 463.5,761.5 470.8,761.5C478.0,761.5 485.3,761.5 492.6,761.5C499.8,761.5 507.1,761.5 514.4,761.5C521.7,761.5 528.9,761.5 536.2,761.5C543.5,761.5 550.7,761.5 558.0,761.5C565.3,761.5 572.5,761.5 579.8,761.5C587.1,761.5 594.3,761.5 601.6,761.5C608.9,761.5 616.2,761.5 623.4,761.5C630.7,761.5 638.0,761.5 645.2,761.5C652.5,761.5 659.8,761.5 667.0,761.5C674.3,761.5 681.6,761.5 688.9,761.5C696.1,761.5 703.4,761.5 710.7,761.5C717.9,761.5 725.2,761.5 732.5,761.5C739.7,761.5 747.0,761.5 754.3,761.5C761.6,761.5 768.8,761.5 776.1,761.5C783.4,761.5 790.6,761.5 797.9,761.5C805.2,761.5 812.4,761.5 819.7,761.5C827.0,761.5 834.3,761.5 841.5,761.5C848.8,761.5 856.1,761.5 863.3,761.5C870.6,761.5 877.9,761.5 885.1,761.5C892.4,761.5 899.7,761.5 907.0,761.5C914.2,761.5 921.5,761.5 928.8,761.5C936.0,761.5 943.3,747.0 950.6,747.0C957.8,747.0 965.1,747.0 972.4,747.0C979.7,747.0 986.9,747.0 994.2,747.0C1001.5,747.0 1008.7,747.0 1016.0,747.0" fill="none" stroke="url(#ls-9)" stroke-width="3.5" stroke-linecap="round"/>
<circle cx="1016" cy="747" r="9" fill="#64748b" fill-opacity="0.22"/>
<circle cx="1016" cy="747" r="4.5" fill="#64748b"/>
<path d="M100.0,761.5C107.3,761.5 114.5,761.5 121.8,761.5C129.1,761.5 136.3,761.5 143.6,761.5C150.9,761.5 158.2,761.5 165.4,761.5C172.7,761.5 180.0,761.5 187.2,761.5C194.5,761.5 201.8,761.5 209.0,761.5C216.3,761.5 223.6,747.0 230.9,747.0C238.1,747.0 245.4,747.0 252.7,747.0C259.9,747.0 267.2,747.0 274.5,747.0C281.7,747.0 289.0,747.0 296.3,747.0C303.6,747.0 310.8,747.0 318.1,747.0C325.4,747.0 332.6,747.0 339.9,747.0C347.2,747.0 354.4,747.0 361.7,747.0C369.0,747.0 376.3,732.5 383.5,732.5C390.8,732.5 398.1,732.5 405.3,732.5C412.6,732.5 419.9,732.5 427.1,732.5C434.4,732.5 441.7,732.5 449.0,732.5C456.2,732.5 463.5,732.5 470.8,732.5C478.0,732.5 485.3,732.5 492.6,732.5C499.8,732.5 507.1,732.5 514.4,732.5C521.7,732.5 528.9,732.5 536.2,732.5C543.5,732.5 550.7,732.5 558.0,732.5C565.3,732.5 572.5,732.5 579.8,732.5C587.1,732.5 594.3,732.5 601.6,732.5C608.9,732.5 616.2,732.5 623.4,732.5C630.7,732.5 638.0,732.5 645.2,732.5C652.5,732.5 659.8,732.5 667.0,732.5C674.3,732.5 681.6,732.5 688.9,732.5C696.1,732.5 703.4,732.5 710.7,732.5C717.9,732.5 725.2,732.5 732.5,732.5C739.7,732.5 747.0,732.5 754.3,732.5C761.6,732.5 768.8,732.5 776.1,732.5C783.4,732.5 790.6,732.5 797.9,732.5C805.2,732.5 812.4,732.5 819.7,732.5C827.0,732.5 834.3,732.5 841.5,732.5C848.8,732.5 856.1,732.5 863.3,732.5C870.6,732.5 877.9,732.5 885.1,732.5C892.4,732.5 899.7,732.5 907.0,732.5C914.2,732.5 921.5,732.5 928.8,732.5C936.0,732.5 943.3,732.5 950.6,732.5C957.8,732.5 965.1,732.5 972.4,732.5C979.7,732.5 986.9,732.5 994.2,732.5C1001.5,732.5 1008.7,732.5 1016.0,732.5" fill="none" stroke="url(#ls-8)" stroke-width="3.5" stroke-linecap="round"/>
<circle cx="1016" cy="732.5" r="9" fill="#4f46e5" fill-opacity="0.22"/>
<circle cx="1016" cy="732.5" r="4.5" fill="#4f46e5"/>
<path d="M100.0,776.0C107.3,776.0 114.5,776.0 121.8,776.0C129.1,776.0 136.3,776.0 143.6,776.0C150.9,776.0 158.2,776.0 165.4,776.0C172.7,776.0 180.0,776.0 187.2,776.0C194.5,776.0 201.8,776.0 209.0,776.0C216.3,776.0 223.6,776.0 230.9,776.0C238.1,776.0 245.4,776.0 252.7,776.0C259.9,776.0 267.2,776.0 274.5,776.0C281.7,776.0 289.0,761.5 296.3,761.5C303.6,761.5 310.8,761.5 318.1,761.5C325.4,761.5 332.6,761.5 339.9,761.5C347.2,761.5 354.4,761.5 361.7,761.5C369.0,761.5 376.3,761.5 383.5,761.5C390.8,761.5 398.1,747.0 405.3,747.0C412.6,747.0 419.9,747.0 427.1,747.0C434.4,747.0 441.7,737.3 449.0,732.5C456.2,727.7 463.5,718.0 470.8,718.0C478.0,718.0 485.3,718.0 492.6,718.0C499.8,718.0 507.1,718.0 514.4,718.0C521.7,718.0 528.9,718.0 536.2,718.0C543.5,718.0 550.7,718.0 558.0,718.0C565.3,718.0 572.5,718.0 579.8,718.0C587.1,718.0 594.3,718.0 601.6,718.0C608.9,718.0 616.2,718.0 623.4,718.0C630.7,718.0 638.0,718.0 645.2,718.0C652.5,718.0 659.8,718.0 667.0,718.0C674.3,718.0 681.6,718.0 688.9,718.0C696.1,718.0 703.4,718.0 710.7,718.0C717.9,718.0 725.2,718.0 732.5,718.0C739.7,718.0 747.0,718.0 754.3,718.0C761.6,718.0 768.8,718.0 776.1,718.0C783.4,718.0 790.6,718.0 797.9,718.0C805.2,718.0 812.4,718.0 819.7,718.0C827.0,718.0 834.3,718.0 841.5,718.0C848.8,718.0 856.1,718.0 863.3,718.0C870.6,718.0 877.9,718.0 885.1,718.0C892.4,718.0 899.7,718.0 907.0,718.0C914.2,718.0 921.5,718.0 928.8,718.0C936.0,718.0 943.3,718.0 950.6,718.0C957.8,718.0 965.1,718.0 972.4,718.0C979.7,718.0 986.9,718.0 994.2,718.0C1001.5,718.0 1008.7,718.0 1016.0,718.0" fill="none" stroke="url(#ls-7)" stroke-width="3.5" stroke-linecap="round"/>
<circle cx="1016" cy="718" r="9" fill="#ea580c" fill-opacity="0.22"/>
<circle cx="1016" cy="718" r="4.5" fill="#ea580c"/>
<path d="M100.0,776.0C107.3,776.0 114.5,776.0 121.8,776.0C129.1,776.0 136.3,776.0 143.6,776.0C150.9,776.0 158.2,776.0 165.4,776.0C172.7,776.0 180.0,776.0 187.2,776.0C194.5,776.0 201.8,776.0 209.0,776.0C216.3,776.0 223.6,776.0 230.9,776.0C238.1,776.0 245.4,776.0 252.7,776.0C259.9,776.0 267.2,776.0 274.5,776.0C281.7,776.0 289.0,776.0 296.3,776.0C303.6,776.0 310.8,776.0 318.1,776.0C325.4,776.0 332.6,776.0 339.9,776.0C347.2,776.0 354.4,776.0 361.7,776.0C369.0,776.0 376.3,761.5 383.5,761.5C390.8,761.5 398.1,761.5 405.3,761.5C412.6,761.5 419.9,761.5 427.1,761.5C434.4,761.5 441.7,761.5 449.0,761.5C456.2,761.5 463.5,761.5 470.8,761.5C478.0,761.5 485.3,761.5 492.6,761.5C499.8,761.5 507.1,761.5 514.4,761.5C521.7,761.5 528.9,761.5 536.2,761.5C543.5,761.5 550.7,761.5 558.0,761.5C565.3,761.5 572.5,761.5 579.8,761.5C587.1,761.5 594.3,761.5 601.6,761.5C608.9,761.5 616.2,761.5 623.4,761.5C630.7,761.5 638.0,761.5 645.2,761.5C652.5,761.5 659.8,761.5 667.0,761.5C674.3,761.5 681.6,747.0 688.9,747.0C696.1,747.0 703.4,747.0 710.7,747.0C717.9,747.0 725.2,732.5 732.5,732.5C739.7,732.5 747.0,732.5 754.3,732.5C761.6,732.5 768.8,732.5 776.1,732.5C783.4,732.5 790.6,732.5 797.9,732.5C805.2,732.5 812.4,732.5 819.7,732.5C827.0,732.5 834.3,732.5 841.5,732.5C848.8,732.5 856.1,732.5 863.3,732.5C870.6,732.5 877.9,732.5 885.1,732.5C892.4,732.5 899.7,732.5 907.0,732.5C914.2,732.5 921.5,732.5 928.8,732.5C936.0,732.5 943.3,718.0 950.6,718.0C957.8,718.0 965.1,718.0 972.4,718.0C979.7,718.0 986.9,718.0 994.2,718.0C1001.5,718.0 1008.7,718.0 1016.0,718.0" fill="none" stroke="url(#ls-6)" stroke-width="3.5" stroke-linecap="round"/>
<circle cx="1016" cy="718" r="9" fill="#db2777" fill-opacity="0.22"/>
<circle cx="1016" cy="718" r="4.5" fill="#db2777"/>
<path d="M100.0,776.0C107.3,776.0 114.5,776.0 121.8,776.0C129.1,776.0 136.3,776.0 143.6,776.0C150.9,776.0 158.2,776.0 165.4,776.0C172.7,776.0 180.0,776.0 187.2,776.0C194.5,776.0 201.8,761.5 209.0,761.5C216.3,761.5 223.6,761.5 230.9,761.5C238.1,761.5 245.4,761.5 252.7,761.5C259.9,761.5 267.2,761.5 274.5,761.5C281.7,761.5 289.0,761.5 296.3,761.5C303.6,761.5 310.8,761.5 318.1,761.5C325.4,761.5 332.6,761.5 339.9,761.5C347.2,761.5 354.4,747.0 361.7,747.0C369.0,747.0 376.3,747.0 383.5,747.0C390.8,747.0 398.1,747.0 405.3,747.0C412.6,747.0 419.9,747.0 427.1,747.0C434.4,747.0 441.7,747.0 449.0,747.0C456.2,747.0 463.5,747.0 470.8,747.0C478.0,747.0 485.3,747.0 492.6,747.0C499.8,747.0 507.1,747.0 514.4,747.0C521.7,747.0 528.9,747.0 536.2,747.0C543.5,747.0 550.7,747.0 558.0,747.0C565.3,747.0 572.5,747.0 579.8,747.0C587.1,747.0 594.3,747.0 601.6,747.0C608.9,747.0 616.2,747.0 623.4,747.0C630.7,747.0 638.0,747.0 645.2,747.0C652.5,747.0 659.8,747.0 667.0,747.0C674.3,747.0 681.6,747.0 688.9,747.0C696.1,747.0 703.4,747.0 710.7,747.0C717.9,747.0 725.2,732.5 732.5,732.5C739.7,732.5 747.0,732.5 754.3,732.5C761.6,732.5 768.8,732.5 776.1,732.5C783.4,732.5 790.6,718.0 797.9,718.0C805.2,718.0 812.4,718.0 819.7,718.0C827.0,718.0 834.3,718.0 841.5,718.0C848.8,718.0 856.1,703.5 863.3,703.5C870.6,703.5 877.9,703.5 885.1,703.5C892.4,703.5 899.7,703.5 907.0,703.5C914.2,703.5 921.5,703.5 928.8,703.5C936.0,703.5 943.3,689.0 950.6,689.0C957.8,689.0 965.1,689.0 972.4,689.0C979.7,689.0 986.9,689.0 994.2,689.0C1001.5,689.0 1008.7,689.0 1016.0,689.0" fill="none" stroke="url(#ls-5)" stroke-width="3.5" stroke-linecap="round"/>
<circle cx="1016" cy="689" r="9" fill="#0891b2" fill-opacity="0.22"/>
<circle cx="1016" cy="689" r="4.5" fill="#0891b2"/>
<path d="M100.0,776.0C107.3,776.0 114.5,776.0 121.8,776.0C129.1,776.0 136.3,776.0 143.6,776.0C150.9,776.0 158.2,776.0 165.4,776.0C172.7,776.0 180.0,776.0 187.2,776.0C194.5,776.0 201.8,776.0 209.0,776.0C216.3,776.0 223.6,776.0 230.9,776.0C238.1,776.0 245.4,776.0 252.7,776.0C259.9,776.0 267.2,776.0 274.5,776.0C281.7,776.0 289.0,776.0 296.3,776.0C303.6,776.0 310.8,776.0 318.1,776.0C325.4,776.0 332.6,776.0 339.9,776.0C347.2,776.0 354.4,776.0 361.7,776.0C369.0,776.0 376.3,776.0 383.5,776.0C390.8,776.0 398.1,776.0 405.3,776.0C412.6,776.0 419.9,761.5 427.1,761.5C434.4,761.5 441.7,761.5 449.0,761.5C456.2,761.5 463.5,761.5 470.8,761.5C478.0,761.5 485.3,732.5 492.6,732.5C499.8,732.5 507.1,732.5 514.4,732.5C521.7,732.5 528.9,732.5 536.2,732.5C543.5,732.5 550.7,718.0 558.0,718.0C565.3,718.0 572.5,718.0 579.8,718.0C587.1,718.0 594.3,718.0 601.6,718.0C608.9,718.0 616.2,718.0 623.4,718.0C630.7,718.0 638.0,718.0 645.2,718.0C652.5,718.0 659.8,703.5 667.0,703.5C674.3,703.5 681.6,703.5 688.9,703.5C696.1,703.5 703.4,703.5 710.7,703.5C717.9,703.5 725.2,703.5 732.5,703.5C739.7,703.5 747.0,703.5 754.3,703.5C761.6,703.5 768.8,703.5 776.1,703.5C783.4,703.5 790.6,703.5 797.9,703.5C805.2,703.5 812.4,703.5 819.7,703.5C827.0,703.5 834.3,703.5 841.5,703.5C848.8,703.5 856.1,703.5 863.3,703.5C870.6,703.5 877.9,693.8 885.1,689.0C892.4,684.2 899.7,674.5 907.0,674.5C914.2,674.5 921.5,674.5 928.8,674.5C936.0,674.5 943.3,660.0 950.6,660.0C957.8,660.0 965.1,660.0 972.4,660.0C979.7,660.0 986.9,660.0 994.2,660.0C1001.5,660.0 1008.7,660.0 1016.0,660.0" fill="none" stroke="url(#ls-4)" stroke-width="3.5" stroke-linecap="round"/>
<circle cx="1016" cy="660" r="9" fill="#7c3aed" fill-opacity="0.22"/>
<circle cx="1016" cy="660" r="4.5" fill="#7c3aed"/>
<path d="M100.0,761.5C107.3,761.5 114.5,761.5 121.8,761.5C129.1,761.5 136.3,761.5 143.6,761.5C150.9,761.5 158.2,761.5 165.4,761.5C172.7,761.5 180.0,761.5 187.2,761.5C194.5,761.5 201.8,747.0 209.0,747.0C216.3,747.0 223.6,747.0 230.9,747.0C238.1,747.0 245.4,725.3 252.7,718.0C259.9,710.8 267.2,703.5 274.5,703.5C281.7,703.5 289.0,703.5 296.3,703.5C303.6,703.5 310.8,703.5 318.1,703.5C325.4,703.5 332.6,703.5 339.9,703.5C347.2,703.5 354.4,703.5 361.7,703.5C369.0,703.5 376.3,703.5 383.5,703.5C390.8,703.5 398.1,703.5 405.3,703.5C412.6,703.5 419.9,703.5 427.1,703.5C434.4,703.5 441.7,703.5 449.0,703.5C456.2,703.5 463.5,703.5 470.8,703.5C478.0,703.5 485.3,703.5 492.6,703.5C499.8,703.5 507.1,689.0 514.4,689.0C521.7,689.0 528.9,689.0 536.2,689.0C543.5,689.0 550.7,689.0 558.0,689.0C565.3,689.0 572.5,689.0 579.8,689.0C587.1,689.0 594.3,689.0 601.6,689.0C608.9,689.0 616.2,660.0 623.4,660.0C630.7,660.0 638.0,660.0 645.2,660.0C652.5,660.0 659.8,660.0 667.0,660.0C674.3,660.0 681.6,660.0 688.9,660.0C696.1,660.0 703.4,660.0 710.7,660.0C717.9,660.0 725.2,660.0 732.5,660.0C739.7,660.0 747.0,660.0 754.3,660.0C761.6,660.0 768.8,645.5 776.1,645.5C783.4,645.5 790.6,645.5 797.9,645.5C805.2,645.5 812.4,631.0 819.7,631.0C827.0,631.0 834.3,631.0 841.5,631.0C848.8,631.0 856.1,631.0 863.3,631.0C870.6,631.0 877.9,631.0 885.1,631.0C892.4,631.0 899.7,631.0 907.0,631.0C914.2,631.0 921.5,631.0 928.8,631.0C936.0,631.0 943.3,616.5 950.6,616.5C957.8,616.5 965.1,616.5 972.4,616.5C979.7,616.5 986.9,616.5 994.2,616.5C1001.5,616.5 1008.7,616.5 1016.0,616.5" fill="none" stroke="url(#ls-3)" stroke-width="3.5" stroke-linecap="round"/>
<circle cx="1016" cy="616.5" r="9" fill="#d97706" fill-opacity="0.22"/>
<circle cx="1016" cy="616.5" r="4.5" fill="#d97706"/>
<path d="M100.0,761.5C107.3,761.5 114.5,761.5 121.8,761.5C129.1,761.5 136.3,761.5 143.6,761.5C150.9,761.5 158.2,754.3 165.4,747.0C172.7,739.8 180.0,718.0 187.2,718.0C194.5,718.0 201.8,718.0 209.0,718.0C216.3,718.0 223.6,718.0 230.9,718.0C238.1,718.0 245.4,718.0 252.7,718.0C259.9,718.0 267.2,713.2 274.5,703.5C281.7,693.8 289.0,660.0 296.3,660.0C303.6,660.0 310.8,660.0 318.1,660.0C325.4,660.0 332.6,650.3 339.9,645.5C347.2,640.7 354.4,631.0 361.7,631.0C369.0,631.0 376.3,631.0 383.5,631.0C390.8,631.0 398.1,631.0 405.3,631.0C412.6,631.0 419.9,631.0 427.1,631.0C434.4,631.0 441.7,631.0 449.0,631.0C456.2,631.0 463.5,631.0 470.8,631.0C478.0,631.0 485.3,631.0 492.6,631.0C499.8,631.0 507.1,631.0 514.4,631.0C521.7,631.0 528.9,631.0 536.2,631.0C543.5,631.0 550.7,631.0 558.0,631.0C565.3,631.0 572.5,631.0 579.8,631.0C587.1,631.0 594.3,631.0 601.6,631.0C608.9,631.0 616.2,616.5 623.4,616.5C630.7,616.5 638.0,616.5 645.2,616.5C652.5,616.5 659.8,616.5 667.0,616.5C674.3,616.5 681.6,616.5 688.9,616.5C696.1,616.5 703.4,616.5 710.7,616.5C717.9,616.5 725.2,616.5 732.5,616.5C739.7,616.5 747.0,616.5 754.3,616.5C761.6,616.5 768.8,616.5 776.1,616.5C783.4,616.5 790.6,602.0 797.9,602.0C805.2,602.0 812.4,602.0 819.7,602.0C827.0,602.0 834.3,602.0 841.5,602.0C848.8,602.0 856.1,602.0 863.3,602.0C870.6,602.0 877.9,602.0 885.1,602.0C892.4,602.0 899.7,602.0 907.0,602.0C914.2,602.0 921.5,602.0 928.8,602.0C936.0,602.0 943.3,587.5 950.6,587.5C957.8,587.5 965.1,587.5 972.4,587.5C979.7,587.5 986.9,587.5 994.2,587.5C1001.5,587.5 1008.7,587.5 1016.0,587.5" fill="none" stroke="url(#ls-2)" stroke-width="3.5" stroke-linecap="round"/>
<circle cx="1016" cy="587.5" r="9" fill="#059669" fill-opacity="0.22"/>
<circle cx="1016" cy="587.5" r="4.5" fill="#059669"/>
<path d="M100.0,776.0C107.3,776.0 114.5,776.0 121.8,776.0C129.1,776.0 136.3,776.0 143.6,776.0C150.9,776.0 158.2,776.0 165.4,776.0C172.7,776.0 180.0,776.0 187.2,776.0C194.5,776.0 201.8,776.0 209.0,776.0C216.3,776.0 223.6,776.0 230.9,776.0C238.1,776.0 245.4,776.0 252.7,776.0C259.9,776.0 267.2,776.0 274.5,776.0C281.7,776.0 289.0,776.0 296.3,776.0C303.6,776.0 310.8,776.0 318.1,776.0C325.4,776.0 332.6,776.0 339.9,776.0C347.2,776.0 354.4,776.0 361.7,776.0C369.0,776.0 376.3,776.0 383.5,776.0C390.8,776.0 398.1,776.0 405.3,776.0C412.6,776.0 419.9,730.1 427.1,718.0C434.4,705.9 441.7,703.5 449.0,703.5C456.2,703.5 463.5,703.5 470.8,703.5C478.0,703.5 485.3,703.5 492.6,703.5C499.8,703.5 507.1,703.5 514.4,703.5C521.7,703.5 528.9,681.8 536.2,674.5C543.5,667.3 550.7,664.8 558.0,660.0C565.3,655.2 572.5,650.3 579.8,645.5C587.1,640.7 594.3,635.8 601.6,631.0C608.9,626.2 616.2,621.3 623.4,616.5C630.7,611.7 638.0,606.8 645.2,602.0C652.5,597.2 659.8,594.8 667.0,587.5C674.3,580.3 681.6,565.8 688.9,558.5C696.1,551.3 703.4,553.7 710.7,544.0C717.9,534.3 725.2,512.6 732.5,500.5C739.7,488.4 747.0,471.5 754.3,471.5C761.6,471.5 768.8,471.5 776.1,471.5C783.4,471.5 790.6,449.8 797.9,442.5C805.2,435.2 812.4,428.0 819.7,428.0C827.0,428.0 834.3,428.0 841.5,428.0C848.8,428.0 856.1,413.5 863.3,413.5C870.6,413.5 877.9,413.5 885.1,413.5C892.4,413.5 899.7,384.5 907.0,384.5C914.2,384.5 921.5,384.5 928.8,384.5C936.0,384.5 943.3,384.5 950.6,384.5C957.8,384.5 965.1,377.3 972.4,370.0C979.7,362.8 986.9,348.3 994.2,341.0C1001.5,333.8 1008.7,331.3 1016.0,326.5" fill="none" stroke="url(#ls-1)" stroke-width="3.5" stroke-linecap="round"/>
<circle cx="1016" cy="326.5" r="9" fill="#2563eb" fill-opacity="0.22"/>
<circle cx="1016" cy="326.5" r="4.5" fill="#2563eb"/>
<path d="M100.0,776.0C107.3,776.0 114.5,776.0 121.8,776.0C129.1,776.0 136.3,776.0 143.6,776.0C150.9,776.0 158.2,776.0 165.4,776.0C172.7,776.0 180.0,776.0 187.2,776.0C194.5,776.0 201.8,776.0 209.0,776.0C216.3,776.0 223.6,776.0 230.9,776.0C238.1,776.0 245.4,776.0 252.7,776.0C259.9,776.0 267.2,749.4 274.5,732.5C281.7,715.6 289.0,685.8 296.3,674.5C303.6,663.2 310.8,669.1 318.1,660.0C325.4,650.9 332.6,628.6 339.9,616.5C347.2,604.4 354.4,597.2 361.7,587.5C369.0,577.8 376.3,568.2 383.5,558.5C390.8,548.8 398.1,529.5 405.3,529.5C412.6,529.5 419.9,529.5 427.1,529.5C434.4,529.5 441.7,519.8 449.0,515.0C456.2,510.2 463.5,507.8 470.8,500.5C478.0,493.3 485.3,478.8 492.6,471.5C499.8,464.3 507.1,464.3 514.4,457.0C521.7,449.8 528.9,428.0 536.2,428.0C543.5,428.0 550.7,428.0 558.0,428.0C565.3,428.0 572.5,428.0 579.8,428.0C587.1,428.0 594.3,428.0 601.6,428.0C608.9,428.0 616.2,413.5 623.4,413.5C630.7,413.5 638.0,413.5 645.2,413.5C652.5,413.5 659.8,413.5 667.0,413.5C674.3,413.5 681.6,413.5 688.9,413.5C696.1,413.5 703.4,399.0 710.7,399.0C717.9,399.0 725.2,399.0 732.5,399.0C739.7,399.0 747.0,370.0 754.3,370.0C761.6,370.0 768.8,370.0 776.1,370.0C783.4,370.0 790.6,336.2 797.9,326.5C805.2,316.8 812.4,312.0 819.7,312.0C827.0,312.0 834.3,312.0 841.5,312.0C848.8,312.0 856.1,312.0 863.3,312.0C870.6,312.0 877.9,304.8 885.1,297.5C892.4,290.3 899.7,268.5 907.0,268.5C914.2,268.5 921.5,268.5 928.8,268.5C936.0,268.5 943.3,268.5 950.6,268.5C957.8,268.5 965.1,268.5 972.4,268.5C979.7,268.5 986.9,268.5 994.2,268.5C1001.5,268.5 1008.7,258.8 1016.0,254.0" fill="none" stroke="url(#ls-0)" stroke-width="3.5" stroke-linecap="round"/>
<circle cx="1016" cy="254" r="9" fill="#e11d48" fill-opacity="0.22"/>
<circle cx="1016" cy="254" r="4.5" fill="#e11d48"/>
<text x="1088" y="180" font-family="-apple-system,BlinkMacSystemFont,&quot;Segoe UI&quot;,&quot;Noto Sans CJK SC&quot;,&quot;PingFang SC&quot;,&quot;Microsoft YaHei&quot;,Helvetica,Arial,sans-serif" font-size="20" font-weight="600" fill="#64748b">排名</text>
<text x="1112" y="228" font-family="-apple-system,BlinkMacSystemFont,&quot;Segoe UI&quot;,&quot;Noto Sans CJK SC&quot;,&quot;PingFang SC&quot;,&quot;Microsoft YaHei&quot;,Helvetica,Arial,sans-serif" font-size="20" font-weight="700" fill="#d97706" text-anchor="end">1</text>
<circle cx="1144" cy="222" r="7" fill="#e11d48"/>
<text x="1166" y="229" font-family="-apple-system,BlinkMacSystemFont,&quot;Segoe UI&quot;,&quot;Noto Sans CJK SC&quot;,&quot;PingFang SC&quot;,&quot;Microsoft YaHei&quot;,Helvetica,Arial,sans-serif" font-size="21" fill="#1e293b">deepseek-harness-fnos</text>
<text x="1520" y="230" font-family="-apple-system,BlinkMacSystemFont,&quot;Segoe UI&quot;,&quot;Noto Sans CJK SC&quot;,&quot;PingFang SC&quot;,&quot;Microsoft YaHei&quot;,Helvetica,Arial,sans-serif" font-size="23" font-weight="700" fill="#e11d48" text-anchor="end">36</text>
<line x1="1088" y1="248" x2="1528" y2="248" stroke="#f1f5f9" stroke-width="1"/>
<text x="1112" y="284" font-family="-apple-system,BlinkMacSystemFont,&quot;Segoe UI&quot;,&quot;Noto Sans CJK SC&quot;,&quot;PingFang SC&quot;,&quot;Microsoft YaHei&quot;,Helvetica,Arial,sans-serif" font-size="20" font-weight="700" fill="#94a3b8" text-anchor="end">2</text>
<circle cx="1144" cy="278" r="7" fill="#2563eb"/>
<text x="1166" y="285" font-family="-apple-system,BlinkMacSystemFont,&quot;Segoe UI&quot;,&quot;Noto Sans CJK SC&quot;,&quot;PingFang SC&quot;,&quot;Microsoft YaHei&quot;,Helvetica,Arial,sans-serif" font-size="21" fill="#1e293b">10router</text>
<text x="1520" y="286" font-family="-apple-system,BlinkMacSystemFont,&quot;Segoe UI&quot;,&quot;Noto Sans CJK SC&quot;,&quot;PingFang SC&quot;,&quot;Microsoft YaHei&quot;,Helvetica,Arial,sans-serif" font-size="23" font-weight="700" fill="#2563eb" text-anchor="end">31</text>
<line x1="1088" y1="304" x2="1528" y2="304" stroke="#f1f5f9" stroke-width="1"/>
<text x="1112" y="340" font-family="-apple-system,BlinkMacSystemFont,&quot;Segoe UI&quot;,&quot;Noto Sans CJK SC&quot;,&quot;PingFang SC&quot;,&quot;Microsoft YaHei&quot;,Helvetica,Arial,sans-serif" font-size="20" font-weight="700" fill="#b45309" text-anchor="end">3</text>
<circle cx="1144" cy="334" r="7" fill="#059669"/>
<text x="1166" y="341" font-family="-apple-system,BlinkMacSystemFont,&quot;Segoe UI&quot;,&quot;Noto Sans CJK SC&quot;,&quot;PingFang SC&quot;,&quot;Microsoft YaHei&quot;,Helvetica,Arial,sans-serif" font-size="21" fill="#1e293b">9router-fnos</text>
<text x="1520" y="342" font-family="-apple-system,BlinkMacSystemFont,&quot;Segoe UI&quot;,&quot;Noto Sans CJK SC&quot;,&quot;PingFang SC&quot;,&quot;Microsoft YaHei&quot;,Helvetica,Arial,sans-serif" font-size="23" font-weight="700" fill="#059669" text-anchor="end">13</text>
<line x1="1088" y1="360" x2="1528" y2="360" stroke="#f1f5f9" stroke-width="1"/>
<text x="1112" y="396" font-family="-apple-system,BlinkMacSystemFont,&quot;Segoe UI&quot;,&quot;Noto Sans CJK SC&quot;,&quot;PingFang SC&quot;,&quot;Microsoft YaHei&quot;,Helvetica,Arial,sans-serif" font-size="20" font-weight="400" fill="#64748b" text-anchor="end">4</text>
<circle cx="1144" cy="390" r="7" fill="#d97706"/>
<text x="1166" y="397" font-family="-apple-system,BlinkMacSystemFont,&quot;Segoe UI&quot;,&quot;Noto Sans CJK SC&quot;,&quot;PingFang SC&quot;,&quot;Microsoft YaHei&quot;,Helvetica,Arial,sans-serif" font-size="21" fill="#1e293b">rEFInd</text>
<text x="1520" y="398" font-family="-apple-system,BlinkMacSystemFont,&quot;Segoe UI&quot;,&quot;Noto Sans CJK SC&quot;,&quot;PingFang SC&quot;,&quot;Microsoft YaHei&quot;,Helvetica,Arial,sans-serif" font-size="23" font-weight="700" fill="#d97706" text-anchor="end">11</text>
<line x1="1088" y1="416" x2="1528" y2="416" stroke="#f1f5f9" stroke-width="1"/>
<text x="1112" y="452" font-family="-apple-system,BlinkMacSystemFont,&quot;Segoe UI&quot;,&quot;Noto Sans CJK SC&quot;,&quot;PingFang SC&quot;,&quot;Microsoft YaHei&quot;,Helvetica,Arial,sans-serif" font-size="20" font-weight="400" fill="#64748b" text-anchor="end">5</text>
<circle cx="1144" cy="446" r="7" fill="#7c3aed"/>
<text x="1166" y="453" font-family="-apple-system,BlinkMacSystemFont,&quot;Segoe UI&quot;,&quot;Noto Sans CJK SC&quot;,&quot;PingFang SC&quot;,&quot;Microsoft YaHei&quot;,Helvetica,Arial,sans-serif" font-size="21" fill="#1e293b">hermes-fry-cards</text>
<text x="1520" y="454" font-family="-apple-system,BlinkMacSystemFont,&quot;Segoe UI&quot;,&quot;Noto Sans CJK SC&quot;,&quot;PingFang SC&quot;,&quot;Microsoft YaHei&quot;,Helvetica,Arial,sans-serif" font-size="23" font-weight="700" fill="#7c3aed" text-anchor="end">8</text>
<line x1="1088" y1="472" x2="1528" y2="472" stroke="#f1f5f9" stroke-width="1"/>
<text x="1112" y="508" font-family="-apple-system,BlinkMacSystemFont,&quot;Segoe UI&quot;,&quot;Noto Sans CJK SC&quot;,&quot;PingFang SC&quot;,&quot;Microsoft YaHei&quot;,Helvetica,Arial,sans-serif" font-size="20" font-weight="400" fill="#64748b" text-anchor="end">6</text>
<circle cx="1144" cy="502" r="7" fill="#0891b2"/>
<text x="1166" y="509" font-family="-apple-system,BlinkMacSystemFont,&quot;Segoe UI&quot;,&quot;Noto Sans CJK SC&quot;,&quot;PingFang SC&quot;,&quot;Microsoft YaHei&quot;,Helvetica,Arial,sans-serif" font-size="21" fill="#1e293b">mihomo-core-fnos</text>
<text x="1520" y="510" font-family="-apple-system,BlinkMacSystemFont,&quot;Segoe UI&quot;,&quot;Noto Sans CJK SC&quot;,&quot;PingFang SC&quot;,&quot;Microsoft YaHei&quot;,Helvetica,Arial,sans-serif" font-size="23" font-weight="700" fill="#0891b2" text-anchor="end">6</text>
<line x1="1088" y1="528" x2="1528" y2="528" stroke="#f1f5f9" stroke-width="1"/>
<text x="1112" y="564" font-family="-apple-system,BlinkMacSystemFont,&quot;Segoe UI&quot;,&quot;Noto Sans CJK SC&quot;,&quot;PingFang SC&quot;,&quot;Microsoft YaHei&quot;,Helvetica,Arial,sans-serif" font-size="20" font-weight="400" fill="#64748b" text-anchor="end">7</text>
<circle cx="1144" cy="558" r="7" fill="#db2777"/>
<text x="1166" y="565" font-family="-apple-system,BlinkMacSystemFont,&quot;Segoe UI&quot;,&quot;Noto Sans CJK SC&quot;,&quot;PingFang SC&quot;,&quot;Microsoft YaHei&quot;,Helvetica,Arial,sans-serif" font-size="21" fill="#1e293b">metacubexd-fnos</text>
<text x="1520" y="566" font-family="-apple-system,BlinkMacSystemFont,&quot;Segoe UI&quot;,&quot;Noto Sans CJK SC&quot;,&quot;PingFang SC&quot;,&quot;Microsoft YaHei&quot;,Helvetica,Arial,sans-serif" font-size="23" font-weight="700" fill="#db2777" text-anchor="end">4</text>
<line x1="1088" y1="584" x2="1528" y2="584" stroke="#f1f5f9" stroke-width="1"/>
<text x="1112" y="620" font-family="-apple-system,BlinkMacSystemFont,&quot;Segoe UI&quot;,&quot;Noto Sans CJK SC&quot;,&quot;PingFang SC&quot;,&quot;Microsoft YaHei&quot;,Helvetica,Arial,sans-serif" font-size="20" font-weight="400" fill="#64748b" text-anchor="end">8</text>
<circle cx="1144" cy="614" r="7" fill="#ea580c"/>
<text x="1166" y="621" font-family="-apple-system,BlinkMacSystemFont,&quot;Segoe UI&quot;,&quot;Noto Sans CJK SC&quot;,&quot;PingFang SC&quot;,&quot;Microsoft YaHei&quot;,Helvetica,Arial,sans-serif" font-size="21" fill="#1e293b">hermes-dashboard-fnos</text>
<text x="1520" y="622" font-family="-apple-system,BlinkMacSystemFont,&quot;Segoe UI&quot;,&quot;Noto Sans CJK SC&quot;,&quot;PingFang SC&quot;,&quot;Microsoft YaHei&quot;,Helvetica,Arial,sans-serif" font-size="23" font-weight="700" fill="#ea580c" text-anchor="end">4</text>
<line x1="1088" y1="640" x2="1528" y2="640" stroke="#f1f5f9" stroke-width="1"/>
<text x="1112" y="676" font-family="-apple-system,BlinkMacSystemFont,&quot;Segoe UI&quot;,&quot;Noto Sans CJK SC&quot;,&quot;PingFang SC&quot;,&quot;Microsoft YaHei&quot;,Helvetica,Arial,sans-serif" font-size="20" font-weight="400" fill="#64748b" text-anchor="end">9</text>
<circle cx="1144" cy="670" r="7" fill="#4f46e5"/>
<text x="1166" y="677" font-family="-apple-system,BlinkMacSystemFont,&quot;Segoe UI&quot;,&quot;Noto Sans CJK SC&quot;,&quot;PingFang SC&quot;,&quot;Microsoft YaHei&quot;,Helvetica,Arial,sans-serif" font-size="21" fill="#1e293b">hermes-core-fnos</text>
<text x="1520" y="678" font-family="-apple-system,BlinkMacSystemFont,&quot;Segoe UI&quot;,&quot;Noto Sans CJK SC&quot;,&quot;PingFang SC&quot;,&quot;Microsoft YaHei&quot;,Helvetica,Arial,sans-serif" font-size="23" font-weight="700" fill="#4f46e5" text-anchor="end">3</text>
<line x1="1088" y1="696" x2="1528" y2="696" stroke="#f1f5f9" stroke-width="1"/>
<text x="1112" y="732" font-family="-apple-system,BlinkMacSystemFont,&quot;Segoe UI&quot;,&quot;Noto Sans CJK SC&quot;,&quot;PingFang SC&quot;,&quot;Microsoft YaHei&quot;,Helvetica,Arial,sans-serif" font-size="20" font-weight="400" fill="#64748b" text-anchor="end">10</text>
<circle cx="1144" cy="726" r="7" fill="#64748b"/>
<text x="1166" y="733" font-family="-apple-system,BlinkMacSystemFont,&quot;Segoe UI&quot;,&quot;Noto Sans CJK SC&quot;,&quot;PingFang SC&quot;,&quot;Microsoft YaHei&quot;,Helvetica,Arial,sans-serif" font-size="21" fill="#1e293b">yangyu-hermes-skills</text>
<text x="1520" y="734" font-family="-apple-system,BlinkMacSystemFont,&quot;Segoe UI&quot;,&quot;Noto Sans CJK SC&quot;,&quot;PingFang SC&quot;,&quot;Microsoft YaHei&quot;,Helvetica,Arial,sans-serif" font-size="23" font-weight="700" fill="#64748b" text-anchor="end">2</text>
<text x="800" y="866" font-family="-apple-system,BlinkMacSystemFont,&quot;Segoe UI&quot;,&quot;Noto Sans CJK SC&quot;,&quot;PingFang SC&quot;,&quot;Microsoft YaHei&quot;,Helvetica,Arial,sans-serif" font-size="16" fill="#64748b" text-anchor="middle">数据来自 GitHub API · 仅统计公开仓库 · 每日自动更新</text>
</svg>